<svg xmlns="http://www.w3.org/2000/svg" fill="none" viewBox="0 0 68 68">
    <path fill="#fff" d="M34 68c18.7777 0 34-15.2223 34-34S52.7777 0 34 0 0 15.2223 0 34s15.2223 34 34 34Z"/>
    <path fill="#fff" fill-opacity=".78" fill-rule="evenodd" d="M34.823 19.123c.0728 0 .1455-.0037.218-.011.072-.007.144-.018.216-.032.072-.014.142-.032.212-.053.07-.021.138-.046.205-.073.067-.027.133-.059.2-.093s.127-.072.188-.112c.121-.0812.2339-.174.337-.277.052-.051.1-.105.147-.161.047-.056.09-.115.13-.175.04-.06.078-.123.113-.188s.065-.13.094-.2c.029-.07.052-.136.073-.205.021-.069.039-.14.053-.212.014-.072.025-.144.032-.216.007-.072.011-.145.011-.218 0-.073 0-.145-.01-.218-.01-.073-.018-.144-.032-.216-.014-.072-.032-.142-.053-.211-.0209-.0698-.0452-.1386-.073-.206-.028-.0667-.059-.1333-.093-.2-.035-.064-.072-.126-.112-.187-.04-.061-.084-.119-.13-.175-.046-.056-.1-.11-.146-.162-.046-.052-.105-.1-.162-.147-.057-.047-.115-.09-.176-.13-.061-.04-.123-.078-.187-.112-.065-.0347-.1318-.0661-.2-.094-.068-.028-.136-.052-.206-.074-.07-.022-.141-.039-.212-.053-.071-.014-.143-.025-.216-.032-.073-.007-.145-.011-.218-.011-.073 0-.146 0-.218.01-.072.01-.144.018-.216.032-.072.014-.142.032-.212.053-.0699.0209-.1386.0452-.206.073-.068.028-.133.058-.2.093-.067.035-.127.072-.187.112-.06.04-.119.084-.176.13-.1129.0922-.2164.1954-.309.308-.0466.0561-.0903.1145-.131.175-.0406.0603-.078.1227-.112.187-.035.064-.066.13-.094.2-.028.07-.053.136-.074.205-.0213.0694-.039.1398-.053.211-.014.072-.025.144-.032.216-.0146.145-.0146.291 0 .436.007.073.018.144.032.216.014.072.032.142.053.212.021.07.046.138.073.206.027.068.059.133.093.2s.072.127.112.188c.04.061.084.119.13.175.046.056.1.111.147.162.047.051.105.1.162.147.057.047.115.09.176.13.0607.0406.1234.078.188.112.0667.0347.1333.066.2.094.068.028.136.053.206.074.07.021.141.039.212.053.0714.0143.1435.025.216.032.0721.0076.1445.0116.217.012Zm10.792 1.711c1.2097 1.4014 2.0151 3.1057 2.33 4.93.451 2.637-.237 5.078.246 6.72.1127.367.265.7208.454 1.055-.1127.0667-.2273.129-.344.187-.1167.058-.2347.1137-.354.167-.1193.052-.2403.101-.363.147-.123.045-.246.087-.371.125-.125.038-.25.073-.377.1-.127.027-.255.059-.383.082-.128.023-.258.044-.387.06s-.26.029-.39.038c-.13.009-.26.014-.391.015-.131.001-.261 0-.391-.007s-.261-.016-.39-.029c-.129-.013-.259-.031-.388-.052-.129-.021-.257-.045-.384-.073-.127-.028-.254-.06-.38-.1-.126-.04-.25-.075-.374-.117-.124-.042-.245-.088-.366-.138-.121-.05-.24-.1-.358-.159s-.234-.116-.348-.179c-.114-.063-.227-.129-.337-.2-.11-.071-.219-.142-.326-.218-.107-.076-.21-.154-.312-.236-.102-.082-.2-.166-.3-.253-.1-.087-.191-.178-.283-.27-.092-.092-.181-.188-.267-.286-.086-.098-.17-.2-.25-.3-.08-.1-.158-.208-.232-.315-.074-.107-.146-.216-.214-.328-.068-.112-.133-.224-.2-.339-.067-.115-.12-.231-.175-.35-.055-.119-.106-.238-.155-.359s-.093-.243-.134-.367c-.041-.124-.079-.249-.112-.375s-.065-.253-.091-.38c-.026-.127-.05-.256-.069-.385-.019-.129-.035-.258-.046-.388-.011-.13-.02-.26-.024-.39s-.005-.261 0-.391.01-.261.021-.39c.011-.129.025-.26.043-.389.018-.129.04-.258.065-.386s.054-.255.087-.381c.033-.126.069-.251.109-.376.04-.125.083-.247.13-.369s.1-.242.151-.361c.051-.119.111-.236.172-.352.061-.116.124-.229.191-.341.067-.112.138-.222.211-.329.073-.107.15-.214.229-.317.079-.103.162-.2.247-.3.085-.1.173-.195.264-.289.091-.094.184-.185.28-.273.096-.088.195-.174.3-.257.105-.083.2-.162.31-.239.11-.077.213-.151.323-.221.11-.07.222-.138.335-.2.113-.062.229-.125.346-.183.117-.058.236-.112.356-.163.12-.051.242-.1.365-.142.123-.042.247-.084.372-.121.125-.037.251-.07.378-.1s.255-.056.384-.078.257-.041.387-.056.26-.026.39-.033c.13-.007.261-.011.392-.011s.261.015.398.015Z" clip-rule="evenodd"/>
    <path fill="#fff" fill-opacity=".78" fill-rule="evenodd" d="M48.075 26.925c.143 2.185-.3 4.163.113 5.565.7 2.4 3.826 4.566 2.367 5.8-.462.369-1.256.394-1.722.756-.742.578-.235 1.2-.169 1.654.032.214-.163.558-.8.976.484.357.44.659.267.937-.236.1613-.479.312-.729.452s-.5057.268-.767.384c-.2614.1167-.528.2213-.8.314s-.5464.173-.823.241c-.278.0667-.5583.1217-.841.165-.2827.0433-.567.073-.853.089-.286.0173-.572.0213-.858.012a9.62568 9.62568 0 0 1-.855-.066c-.284-.0347-.566-.082-.846-.142-.28-.06-.5564-.1327-.829-.218-.2734-.0853-.542-.1827-.806-.292-.264-.1093-.5227-.2307-.776-.364-.254-.1333-.501-.2773-.741-.432s-.4734-.3213-.7-.5c-.2254-.176-.4424-.362-.651-.558-.2087-.196-.4087-.4007-.6-.614-.1893-.214-.3694-.436-.54-.666-.1707-.23-.3297-.4673-.477-.712-.1487-.2447-.2857-.4953-.411-.752-.1254-.2567-.2393-.5187-.342-.786-.102-.2667-.192-.5377-.27-.813-.078-.2753-.143-.5533-.195-.834-.0527-.2807-.0923-.5637-.119-.849s-.0403-.5703-.041-.855c0-.286.0117-.5713.035-.856.0233-.2847.061-.5677.113-.849.0506-.2813.1137-.5597.189-.835s.1633-.547.264-.815c.1007-.2667.213-.5293.337-.788.124-.2587.2593-.51.406-.754.1466-.2453.3043-.4837.473-.715.1687-.2313.347-.4543.535-.669.1887-.2147.3867-.4207.594-.618.2073-.1973.423-.3847.647-.562.224-.1773.4573-.344.7-.5.2427-.156.4886-.3017.738-.437.2526-.1333.5106-.2563.774-.369.2633-.1127.53-.2127.8-.3.2726-.0867.5487-.161.828-.223s.561-.1113.845-.148c.2833-.0367.5683-.0603.855-.071.2866-.0107.5727-.0087.858.006.286.0147.5707.0423.854.083.2833.0407.5643.094.843.16.2787.0667.5537.145.825.235s.538.193.8.309c.262.1147.5183.241.769.379.2507.138.4946.287.732.447v-.002Z" clip-rule="evenodd"/>
    <path fill="#fff" fill-opacity=".78" fill-rule="evenodd" d="M46.043 47.889c-3.607 1.467-8.436-3.453-9.086 6.581a37.904524 37.904524 0 0 0-7.456-3.79c-.108-.1587-.211-.3207-.309-.486-.1-.165-.191-.334-.278-.5-.087-.166-.17-.345-.246-.521-.076-.176-.147-.354-.213-.535-.066-.181-.125-.363-.179-.548-.054-.185-.1-.37-.145-.558-.045-.188-.079-.376-.109-.565-.03-.189-.055-.38-.073-.571-.018-.191-.032-.383-.038-.575-.006-.192-.007-.384 0-.576.007-.192.017-.384.034-.575.017-.191.041-.382.07-.572.029-.19.065-.378.106-.566.041-.188.088-.374.141-.559.053-.185.112-.368.176-.549.064-.181.134-.36.21-.537.076-.177.156-.351.243-.522.087-.171.178-.341.275-.507.097-.166.2-.329.306-.489.106-.16.219-.316.336-.468.117-.152.238-.3.365-.446.127-.146.257-.286.392-.423s.275-.269.418-.4c.143-.131.29-.252.442-.371.152-.119.306-.233.464-.343.158-.11.32-.214.485-.313.165-.099.332-.193.5-.282.168-.089.344-.172.519-.25.175-.078.354-.15.535-.217.181-.067.363-.128.547-.183.184-.055.37-.105.557-.149.187-.044.376-.082.565-.114.189-.032.38-.058.571-.078.191-.02.383-.034.575-.042.192-.008.384-.01.577-.006.193.004.384.014.576.03.192.016.383.038.573.065.19.027.38.061.568.1.188.039.375.085.56.136.185.051.369.109.551.171.182.062.361.131.539.205.178.074.352.154.525.239.173.085.343.175.509.27.166.095.331.2.492.3.161.1.318.216.471.332.153.116.3.236.45.36.15.124.288.255.426.388s.272.272.4.414c.128.142.254.288.375.438.121.15.235.3.346.46.111.16.216.318.317.482.101.164.2.331.286.5.086.169.175.342.255.517.08.175.153.352.221.532.068.18.131.361.188.545.057.184.108.369.153.556.045.187.085.375.118.564.033.189.061.379.083.57.022.191.037.382.047.574.01.192.013.384.011.576-.002.192-.011.384-.025.576-.014.192-.035.383-.061.573-.026.19-.058.38-.1.568-.042.188-.082.378-.131.564Z" clip-rule="evenodd"/>
    <path fill="#fff" fill-opacity=".78" fill-rule="evenodd" d="M40.747 47.941c-1.906.08-3.443 1.176-3.79 6.53-2.3251-1.5258-4.8107-2.7917-7.412-3.775.004-.1627.0146-.3247.032-.486.0173-.1613.041-.322.071-.482.0306-.1593.0673-.3173.11-.474.0426-.1567.092-.3113.148-.464.056-.1527.118-.3027.186-.45s.142-.292.222-.434c.08-.142.1657-.28.257-.414.0913-.134.188-.2647.29-.392.102-.1267.2087-.249.32-.367.1113-.118.2277-.231.349-.339.1213-.1087.2467-.212.376-.31s.2627-.1907.4-.278c.1373-.0874.2777-.169.421-.245.1433-.076.29-.146.44-.21.1493-.0667.3013-.1243.456-.173.1547-.0487.3107-.094.468-.136.1573-.0387.3163-.072.477-.1.1607-.028.322-.0474.484-.058.162-.0127.3243-.0187.487-.018.1627.0007.325.0077.487.021.162.014.3233.0343.484.061.1606.0267.3197.06.477.1.1573.04.313.0863.467.139.154.053.306.111.455.177.149.066.3.136.439.213.139.077.283.159.419.248s.269.182.4.281c.131.099.253.2.374.313.121.113.236.223.347.342.111.119.217.242.318.369s.2.258.287.394c.087.136.175.272.254.417Z" clip-rule="evenodd"/>
    <path fill="#fff" fill-opacity=".78" fill-rule="evenodd" d="M49.462 38.743c-.2248.0646-.4373.166-.629.3-.741.578-.235 1.2-.169 1.654.032.214-.163.558-.8.976.742.547.243.965-.056 1.367-1.387 1 .543 3.164-1.746 4.842-2.31.95-5.119-.727-7.016.561-.03-.173-.055-.347-.074-.522-.019-.175-.033-.35-.041-.525-.008-.175-.011-.351-.009-.527.002-.176.011-.351.024-.526.013-.175.032-.35.056-.524.024-.174.054-.347.089-.519.035-.172.076-.343.121-.513.045-.17.1-.338.153-.5.053-.162.117-.331.183-.494.066-.163.138-.323.214-.482.076-.159.157-.314.243-.468.086-.154.177-.3.272-.451.095-.151.195-.292.3-.434.105-.142.213-.28.326-.414.113-.134.23-.266.351-.394.121-.128.246-.251.374-.371s.261-.235.4-.347c.139-.112.275-.219.417-.322.142-.103.288-.2.437-.3.149-.1.3-.183.454-.268.154-.085.311-.164.47-.24.159-.076.32-.145.484-.21.164-.065.329-.125.5-.179.171-.054.336-.1.506-.148.17-.048.342-.083.514-.117s.346-.062.521-.085c.175-.023.35-.04.525-.052.175-.012.352-.018.528-.02.176-.002.351 0 .527.013.176.013.351.025.526.046.175.021.349.047.522.078.173.031.345.068.516.11l-.013.005Zm-26.826.107c.108 0 .216-.0053.324-.016.108-.0107.2147-.0263.32-.047.212-.0423.4193-.1053.619-.188.1-.041.2-.087.293-.138.093-.051.188-.106.278-.166.09-.06.177-.124.26-.193.083-.069.164-.141.24-.217.076-.076.149-.156.217-.24.068-.084.133-.17.193-.26.0603-.0898.1161-.1826.167-.278.051-.095.1-.193.138-.292.038-.099.078-.2.109-.3.031-.1.057-.208.079-.314.022-.106.037-.212.047-.32.01-.108.016-.215.016-.323 0-.108-.005-.216-.016-.323a3.282801 3.282801 0 0 0-.126-.633c-.0313-.1018-.0677-.2019-.109-.3-.0413-.1-.0873-.1977-.138-.293-.051-.0951-.1068-.1875-.167-.277-.06-.09-.124-.176-.193-.26-.069-.084-.141-.163-.217-.24-.1531-.1524-.3206-.2897-.5-.41-.0893-.06-.182-.1153-.278-.166-.0953-.0509-.1931-.097-.293-.138-.1-.0413-.2-.0777-.3-.109-.1-.0313-.2047-.0577-.314-.079-.106-.0207-.2127-.0363-.32-.047-.108-.01-.215-.016-.323-.016-.108 0-.216.006-.324.016-.108.01-.214.026-.32.048-.212.0424-.4193.1053-.619.188-.1.0413-.1973.0873-.292.138-.0947.0507-.1873.106-.278.166-.0899.0599-.1767.1243-.26.193-.084.068-.164.141-.24.217-.076.076-.149.156-.217.24-.068.084-.133.17-.193.26-.0604.0898-.1161.1826-.167.278-.0507.0953-.0967.1927-.138.292-.0413.0993-.0777.1993-.109.3-.031.1-.058.208-.079.314-.021.106-.037.213-.047.32-.01.107-.016.215-.016.323 0 .108.006.216.017.323.011.107.027.214.048.319.021.105.048.21.079.313.031.103.068.2.109.3.0414.0996.0878.1971.139.292.0507.0953.106.1877.166.277.06.09.124.176.193.259.069.083.141.163.217.239.076.076.156.149.24.217.0833.0687.1701.1331.26.193.09.06.182.115.277.167.095.052.193.1.293.138.1.038.2.078.3.109.1.031.208.058.314.079.1058.0213.2126.0374.32.048.106.011.213.017.321.017Zm6.908 4.587c.1 0 .2 0 .3-.014.098-.0094.1955-.0237.292-.043.1-.019.193-.043.287-.071.094-.028.187-.061.278-.1.091-.039.18-.079.267-.126.087-.047.172-.1.254-.151.082-.051.161-.113.238-.175.077-.062.149-.128.219-.2.07-.072.136-.142.2-.218.0626-.076.1213-.1551.176-.237.0553-.082.106-.1663.152-.253.047-.0864.0894-.1751.127-.266.038-.0907.0713-.1833.1-.278.029-.094.053-.19.072-.286.019-.096.034-.194.044-.292.01-.098.015-.2.015-.3 0-.1 0-.2-.014-.295-.014-.095-.024-.2-.043-.292-.019-.092-.043-.192-.071-.287-.028-.095-.062-.187-.1-.278-.038-.091-.08-.18-.126-.267-.046-.087-.1-.171-.152-.253-.052-.082-.113-.161-.175-.237-.062-.076-.129-.149-.2-.219-.0694-.0705-.1425-.1372-.219-.2-.076-.063-.155-.121-.237-.176-.082-.055-.166-.106-.253-.152s-.175-.088-.267-.126c-.092-.038-.184-.071-.278-.1-.094-.029-.19-.053-.286-.072-.096-.019-.194-.034-.292-.044-.098-.01-.2-.015-.295-.015-.095 0-.2 0-.3.015-.0983.0094-.1961.0238-.293.043-.0968.0188-.1926.0425-.287.071-.0947.0287-.1873.062-.278.1-.091.038-.18.08-.267.126-.087.046-.171.1-.253.152-.082.052-.161.113-.237.176-.076.063-.15.129-.219.2-.069.071-.136.143-.2.219-.064.076-.121.155-.176.237-.055.082-.106.166-.152.253s-.088.176-.126.267c-.038.091-.071.184-.1.278-.029.094-.053.19-.072.286-.019.096-.034.194-.044.292-.01.098-.015.2-.015.295 0 .095.005.2.015.294.01.094.024.195.044.291.02.096.044.192.072.286.0286.094.062.1864.1.277.038.091.08.179.126.266.046.087.1.171.151.252.051.081.113.161.176.237.063.076.128.149.2.218.072.069.142.135.218.2.076.065.155.121.236.176.081.055.166.105.252.152s.175.089.266.127c.091.038.183.071.277.1.094.029.189.053.285.073.096.02.194.034.291.044.097.01.199.019.297.02Zm-7.383-12.605c.0753 0 .1506-.0037.226-.011.0753-.0073.1503-.0183.225-.033.074-.015.147-.033.22-.055.073-.022.144-.047.214-.077.0683-.03.135-.0633.2-.1.0666-.036.1316-.075.195-.117.063-.042.123-.087.182-.135.059-.048.114-.1.168-.152.054-.052.1-.11.152-.168.048-.0584.0931-.1191.135-.182.042-.063.081-.128.117-.194.036-.066.068-.135.1-.2.0289-.07.0543-.1414.076-.214.022-.072.04-.146.055-.22.0148-.074.0258-.1488.033-.224.007-.076.011-.151.011-.226 0-.075 0-.151-.011-.227-.011-.076-.019-.15-.033-.224-.014-.074-.033-.148-.055-.22-.022-.072-.048-.144-.076-.214-.028-.07-.062-.138-.1-.205-.0357-.0666-.0748-.1313-.117-.194-.042-.063-.087-.123-.135-.182-.048-.059-.1-.114-.152-.168-.052-.054-.11-.1-.168-.152-.0583-.0481-.119-.0932-.182-.135-.0629-.0425-.128-.0815-.195-.117-.0667-.0353-.135-.0687-.205-.1-.07-.029-.141-.054-.214-.076-.0724-.0221-.1458-.0405-.22-.055-.074-.015-.149-.026-.225-.033-.076-.007-.151-.011-.226-.011-.075 0-.152 0-.227.012-.0752.0071-.15.0181-.224.033-.0743.0144-.1477.0328-.22.055-.0726.0217-.144.0471-.214.076-.07.029-.138.061-.205.1-.067.039-.132.075-.194.117-.062.042-.124.087-.182.135-.058.048-.114.1-.168.153-.054.053-.1.109-.153.168-.053.059-.093.119-.135.182-.042.063-.081.128-.117.194-.036.066-.068.135-.1.205-.032.07-.054.141-.076.213-.0221.0723-.0405.1458-.055.22-.0147.0747-.0257.1493-.033.224-.007.075-.011.151-.011.226.0004.1511.0155.3018.045.45.015.074.033.147.056.22.023.073.047.143.076.213.029.07.062.138.1.2.0356.0667.0746.1314.117.194.042.063.087.123.135.182.048.059.1.114.152.167.1069.107.2241.2032.35.287.063.042.128.081.194.117.066.036.135.068.2.1s.141.054.214.077c.073.023.146.04.22.055.074.015.149.026.224.033.075.007.161.013.236.013Z" clip-rule="evenodd"/>
    <path fill="#fff" fill-opacity=".78" d="M21.009 22.787c0 .0667-.003.1333-.009.2-.006.065-.016.13-.029.194-.013.064-.029.128-.047.19s-.041.124-.066.185-.053.12-.084.177c-.0305.0577-.0639.1137-.1.168-.0367.0547-.0757.1073-.117.158-.042.051-.086.1-.132.146-.046.046-.095.09-.146.132-.051.042-.1.081-.158.117-.058.036-.111.07-.169.1-.058.03-.117.059-.178.084-.0605.0251-.1223.0471-.185.066-.0625.0193-.1259.0353-.19.048-.0641.013-.1289.0226-.194.029-.0667.0067-.1333.01-.2.01-.065 0-.131 0-.2-.01-.1305-.0125-.2595-.038-.385-.076-.063-.019-.125-.041-.185-.066s-.12-.053-.178-.084c-.058-.031-.114-.065-.169-.1-.055-.035-.107-.075-.158-.117-.051-.042-.1-.086-.146-.132-.046-.046-.09-.095-.132-.146-.0417-.0506-.0808-.1033-.117-.158a1.835656 1.835656 0 0 1-.1-.168c-.031-.058-.059-.117-.084-.177-.025-.06-.047-.122-.066-.185-.019-.063-.035-.126-.048-.19-.013-.064-.023-.129-.029-.194-.006-.065-.009-.131-.009-.2s0-.131.009-.2.016-.13.029-.194c.0128-.0641.0288-.1275.048-.19.019-.063.041-.124.066-.185s.053-.12.084-.177c.0305-.0576.0639-.1137.1-.168.036-.054.075-.1067.117-.158.042-.05.086-.1.132-.145.046-.045.095-.09.146-.132.051-.042.1-.08.158-.117.058-.037.111-.07.169-.1.0579-.031.1173-.059.178-.084.06-.025.122-.047.185-.066.063-.019.126-.035.191-.047.0641-.0129.1289-.0226.194-.029.065-.006.131-.009.2-.009s.131 0 .2.009c.0651.0064.1299.0161.194.029.065.013.128.029.19.047s.125.041.185.066c.0607.025.1201.053.178.084.058.031.114.065.169.1.055.035.107.075.158.117.051.042.1.085.146.132.046.047.09.095.132.145.042.05.08.1.117.158.037.058.07.111.1.168.03.057.059.117.084.177.025.06.047.122.066.185.019.063.035.126.047.19.012.064.023.129.029.194.006.065.009.134.009.199Z"/>
    <path fill="#fff" fill-opacity=".78" fill-rule="evenodd" d="M23.236 19.125c.0613 0 .1223-.003.183-.009.061-.006.121-.015.181-.026s.119-.027.178-.044c.059-.017.116-.038.173-.062.0567-.0229.1121-.049.166-.078.054-.029.107-.06.158-.094.051-.034.1-.071.147-.109.047-.038.093-.08.136-.123.0433-.0432.0843-.0886.123-.136.0388-.0471.0751-.0962.109-.147.034-.051.065-.1.094-.157.0291-.054.0555-.1094.079-.166.023-.056.044-.114.062-.172.018-.058.032-.118.044-.178.012-.06.021-.12.027-.181.006-.061.009-.122.009-.183s0-.122-.009-.183-.015-.121-.027-.181-.026-.119-.044-.178-.038-.116-.062-.173c-.024-.057-.05-.112-.079-.166-.029-.054-.06-.106-.094-.157-.034-.051-.07-.1-.109-.147-.039-.047-.08-.092-.123-.135-.043-.043-.089-.085-.136-.123-.047-.038-.1-.075-.147-.109-.047-.034-.1-.065-.158-.094-.0539-.0292-.1093-.0556-.166-.079-.056-.023-.114-.044-.173-.061a1.7045 1.7045 0 0 0-.178-.045c-.06-.012-.12-.021-.181-.027-.061-.006-.122-.009-.183-.009s-.123 0-.183.009-.121.015-.182.027-.119.027-.178.044c-.059.017-.116.038-.173.062-.0566.0232-.112.0492-.166.078-.054.029-.106.06-.158.094-.052.034-.1.071-.147.109-.047.038-.092.08-.136.123-.044.043-.084.088-.123.136-.039.048-.075.1-.109.147-.034.047-.065.1-.094.157-.0288.054-.0548.1094-.078.166-.0237.0565-.0444.1143-.062.173-.018.0585-.0331.1179-.045.178-.012.06-.021.12-.027.181-.006.061-.009.122-.009.183s0 .122.009.183c.0059.0608.0149.1212.027.181.012.06.027.119.045.178s.038.116.062.172c.024.056.05.112.078.166.028.054.061.106.094.157.033.051.071.1.109.147.0385.0475.0795.0929.123.136.0433.0433.0883.0843.135.123.047.038.1.075.147.109.047.034.1.065.157.094.057.029.109.055.166.079.057.024.114.044.173.062.0585.018.1179.0331.178.045.06.012.12.021.181.027.061.006.128.006.186.006Zm.634 4.651c.3273.0001.6413-.1297.873-.361.1144-.1147.2054-.2506.268-.4.0307-.0746.0542-.1519.07-.231.0317-.1588.0317-.3222 0-.481-.0158-.0791-.0393-.1564-.07-.231-.0936-.2256-.2519-.4184-.455-.554-.1348-.09-.286-.1526-.445-.184a1.243692 1.243692 0 0 0-.481 0c-.1591.0312-.3104.0938-.445.184-.0673.0447-.1299.096-.187.153-.2314.2313-.3616.5449-.362.872-.001.0805.0057.1608.02.24.0159.0792.0397.1566.071.231.1254.3021.3657.542.668.667.0746.0306.1519.054.231.07.0803.0165.162.0248.244.025Zm2.574-7.84c.162-.0003.3223-.0322.472-.094.0748-.0311.1465-.0692.214-.114.1346-.0899.2501-.2054.34-.34.045-.0686.0829-.1417.113-.218.0623-.1496.0943-.31.0943-.472 0-.162-.032-.3224-.0943-.472-.0307-.0747-.0689-.146-.114-.213-.0446-.0673-.0959-.1299-.153-.187-.057-.0572-.1196-.1085-.187-.153a1.24339 1.24339 0 0 0-.446-.179 1.244917 1.244917 0 0 0-.482 0c-.0791.0156-.1565.0391-.231.07-.1495.062-.2854.1527-.4.267-.0574.0571-.109.1197-.154.187-.0447.0672-.0829.1385-.114.213-.0618.1497-.0937.31-.094.472.0001.0809.0081.1616.024.241.016.0792.0398.1565.071.231.0311.0745.0692.1458.114.213.0903.1343.2058.2497.34.34.0672.0447.1385.0829.213.114.0745.0313.1518.0551.231.071.0801.0155.1615.0232.243.023Zm-7.581 2.748c.0611-.0003.1221-.0067.182-.019.0599-.0124.1185-.0304.175-.054.1121-.0464.214-.1144.3-.2.0432-.0435.082-.091.116-.142.0336-.0507.0621-.1046.085-.161.0232-.0564.0406-.1151.052-.175.0116-.06.0173-.1209.017-.182.0001-.1226-.0244-.244-.072-.357-.0236-.0564-.0528-.1103-.087-.161-.034-.0506-.0729-.0978-.116-.141-.1309-.1303-.2977-.2187-.479-.254a.903547.903547 0 0 0-.182-.017c-.1845.0004-.3647.0554-.518.158a.944544.944544 0 0 0-.141.116c-.0434.0429-.0822.0902-.116.141a.925013.925013 0 0 0-.086.161c-.0236.0564-.0414.115-.053.175-.012.0599-.0181.1209-.018.182.0001.1229.0245.2446.072.358.0236.0564.0527.1104.087.161.0861.1275.2021.2319.3379.3041.1358.0721.2873.1099.4411.1099l.003-.003Z" clip-rule="evenodd"/>
    <path fill="#fff" fill-opacity=".78" d="M41.069 28.205c0 .128 0 .255-.009.383s-.016.255-.028.382-.028.254-.047.38-.041.252-.066.377-.053.249-.084.373c-.031.124-.065.247-.1.369s-.077.243-.12.363-.089.239-.138.357c-.049.118-.1.235-.155.35-.055.115-.112.229-.172.342-.06.113-.123.224-.189.333-.066.109-.134.217-.205.323-.071.106-.145.211-.221.313-.076.102-.155.2-.236.3-.081.1-.164.2-.25.29-.086.09-.174.187-.264.277-.09.09-.183.178-.277.264-.094.086-.192.169-.29.25-.098.081-.2.16-.3.236-.1.076-.207.15-.313.22-.106.07-.214.139-.324.2-.11.061-.221.129-.333.189-.112.06-.227.117-.342.172-.115.055-.232.106-.35.155-.118.049-.237.095-.357.138-.12.043-.242.083-.364.12-.122.037-.246.071-.369.1-.123.029-.249.059-.374.084-.125.025-.252.047-.378.066-.126.019-.253.034-.38.047-.127.013-.255.022-.382.028-.127.006-.255.009-.383.009s-.255 0-.383-.009-.255-.015-.382-.028c-.127-.013-.254-.028-.38-.047s-.252-.041-.378-.066-.25-.053-.374-.084c-.124-.031-.247-.065-.369-.1s-.244-.077-.364-.12-.24-.089-.358-.138c-.118-.049-.235-.1-.351-.155-.116-.055-.229-.112-.342-.172-.113-.06-.224-.123-.334-.189-.11-.066-.217-.134-.324-.2-.107-.066-.21-.144-.313-.22-.103-.076-.2-.155-.3-.236-.1-.081-.2-.164-.29-.25-.09-.086-.187-.174-.278-.264-.091-.09-.179-.183-.264-.277-.085-.094-.169-.191-.25-.29-.081-.099-.16-.2-.236-.3-.076-.1-.149-.207-.22-.313-.071-.106-.14-.214-.2-.323-.06-.109-.129-.22-.189-.333-.06-.113-.117-.226-.172-.342-.055-.116-.106-.232-.155-.35-.049-.118-.095-.237-.138-.357-.043-.12-.083-.241-.12-.363-.037-.122-.071-.245-.1-.369-.029-.124-.059-.248-.084-.373-.025-.125-.047-.251-.065-.377-.018-.126-.035-.253-.047-.38-.012-.127-.022-.254-.028-.382-.006-.128-.009-.255-.009-.383s0-.255.009-.383.015-.255.028-.381c.013-.126.028-.254.047-.38s.041-.252.065-.377.053-.249.084-.373c.031-.124.065-.247.1-.369s.077-.243.12-.363.089-.239.138-.357c.049-.118.1-.235.155-.35.055-.115.112-.229.172-.342.06-.113.123-.224.189-.333.066-.109.134-.217.2-.323.066-.106.144-.211.22-.313.076-.102.155-.2.236-.3.081-.1.164-.2.25-.29.086-.09.174-.187.264-.277.09-.09.183-.178.278-.264.095-.086.191-.169.29-.25.099-.081.2-.159.3-.235.1-.076.207-.149.313-.22.106-.071.214-.139.324-.2.11-.061.221-.129.334-.189.113-.06.227-.117.342-.172.115-.055.232-.106.351-.155.119-.049.237-.095.358-.138.121-.043.241-.083.364-.12.123-.037.245-.071.369-.1.124-.029.249-.059.374-.084.125-.025.251-.047.378-.066.127-.019.253-.034.38-.047.127-.013.255-.022.382-.028.127-.006.255-.009.383-.009s.255 0 .383.009.255.015.382.028c.127.013.254.028.38.047s.252.041.378.066.25.053.374.084c.124.031.247.065.369.1s.243.077.364.12.239.089.357.138c.118.049.235.1.35.155.115.055.23.112.342.172.112.06.224.123.333.189.109.066.217.134.324.2.107.066.211.144.313.22.102.076.2.155.3.235.1.08.2.164.29.25.09.086.187.174.277.264.09.09.179.183.264.277.085.094.169.191.25.29.081.099.16.2.236.3.076.1.15.207.221.313.071.106.139.214.205.323.066.109.129.22.189.333.06.113.118.226.172.342.054.116.107.232.155.35.048.118.095.237.138.357.043.12.083.241.12.363.037.122.071.245.1.369.029.124.059.248.084.373.025.125.047.251.066.377.019.126.034.253.047.38.013.127.022.254.028.381.006.127.009.256.009.383Z"/>
    <path fill="#fff" fill-opacity=".78" fill-rule="evenodd" d="M37.577 16.401c3.4862.5893 6.611 2.5002 8.724 5.335-.016.114-.0353.2273-.058.34-.0227.1127-.049.2247-.079.336-.03.1113-.0633.2217-.1.331-.0367.1093-.0767.2173-.12.324-.043.106-.09.212-.14.316-.05.104-.1.206-.159.306s-.116.2-.178.3c-.062.1-.127.192-.2.284-.073.092-.139.183-.213.272-.074.089-.15.174-.23.258-.08.084-.161.165-.245.243-.084.078-.171.155-.26.228-.089.073-.18.143-.273.211-.093.068-.188.132-.286.194-.098.062-.2.12-.3.175-.1.055-.2.108-.308.157-.108.049-.21.1-.317.138-.107.038-.215.082-.325.118-.11.036-.22.068-.331.1-.111.032-.224.055-.337.077-.113.022-.227.041-.341.056-.114.015-.229.027-.344.035-.115.008-.23.013-.346.014-.116.001-.23 0-.345-.008-.115-.008-.23-.016-.344-.029-.114-.013-.229-.03-.342-.05-.113-.02-.226-.044-.338-.072-.112-.028-.223-.058-.333-.092-.11-.034-.219-.072-.327-.113-.108-.041-.214-.085-.319-.132-.105-.047-.208-.1-.31-.152-.102-.052-.2-.111-.3-.171-.1-.06-.194-.123-.289-.189-.095-.066-.187-.135-.277-.207-.09-.072-.178-.147-.263-.224-.085-.077-.168-.157-.249-.239-.081-.082-.158-.167-.234-.254-.076-.087-.148-.177-.217-.268-.069-.091-.137-.186-.2-.282-.063-.096-.125-.193-.182-.293-.057-.1-.113-.2-.164-.3-.051-.1-.1-.208-.145-.313-.045-.105-.087-.213-.126-.322-.039-.109-.073-.218-.105-.329-.032-.111-.06-.222-.084-.335-.024-.113-.046-.225-.064-.339-.018-.114-.032-.228-.042-.343-.01-.115-.018-.229-.021-.345-.003-.116 0-.23 0-.345 0-.115.011-.23.022-.345.011-.115.025-.229.043-.343.018-.114.039-.227.064-.339.025-.112.053-.224.085-.334.032-.11.067-.22.105-.329.038-.109.081-.216.126-.322.045-.106.094-.21.145-.313.051-.103.106-.2.164-.3.058-.1.119-.2.183-.292.064-.092.131-.19.2-.281.069-.091.142-.181.218-.268.076-.087.153-.172.234-.254.081-.082.164-.162.249-.239.085-.077.173-.152.263-.223.09-.071.191-.154.285-.22Z" clip-rule="evenodd"/>
    <path fill="#fff" fill-opacity=".78" fill-rule="evenodd" d="M30.636 24.788c.1533 0 .3063-.0073.459-.022.1527-.0147.304-.0373.454-.068.1507-.03.299-.067.445-.111.146-.044.29-.0957.432-.155.142-.058.28-.124.415-.2.135-.076.266-.15.394-.235.1275-.0848.2506-.1759.369-.273.118-.0967.2313-.199.34-.307.109-.108.211-.222.308-.34.0971-.118.1882-.2408.273-.368.0847-.1267.1633-.2577.236-.393.0727-.1353.1393-.2733.2-.414.1171-.2826.2062-.576.266-.876.03-.15.0527-.3013.068-.454.0153-.1527.023-.3053.023-.458s-.0077-.305-.023-.457c-.0153-.152-.0377-.3033-.067-.454-.03-.15-.067-.2983-.111-.445s-.0957-.2903-.155-.431a4.15995 4.15995 0 0 0-.2-.415c-.0747-.1353-.1533-.2663-.236-.393-.0853-.1273-.1763-.25-.273-.368-.0967-.118-.1993-.231-.308-.339-.1087-.1087-.222-.2113-.34-.308-.118-.0967-.241-.1877-.369-.273-.128-.0847-.2593-.1633-.394-.236-.1347-.0727-.273-.1393-.415-.2-.142-.0587-.286-.1103-.432-.155-.146-.0447-.2943-.0817-.445-.111-.1507-.03-.302-.0523-.454-.067-.152-.0147-.3047-.022-.458-.022s-.306.0073-.458.022c-.152.0147-.3033.037-.454.067-.1501.0295-.2986.0666-.445.111-.1467.0447-.2907.0963-.432.155a4.15995 4.15995 0 0 0-.415.2c-.1352.0717-.2667.1501-.394.235a4.92094 4.92094 0 0 0-.369.273c-.1187.0967-.232.1993-.34.308-.108.108-.211.222-.308.339-.097.117-.188.241-.273.368-.085.127-.164.258-.236.393-.072.135-.138.273-.2.414-.062.141-.11.285-.155.432-.045.147-.082.295-.111.445-.029.15-.053.3-.068.453-.015.153-.022.305-.022.458 0 .1526.0077.3051.023.457.0153.1527.038.3037.068.453.03.1493.0673.2973.112.444.0447.146.0963.2897.155.431.0587.1413.1253.2793.2.414.072.1333.1507.2643.236.393.0853.1287.1763.2513.273.368.0967.118.1993.231.308.339.1087.108.222.2107.34.308.118.0967.2407.1877.368.273.1273.0853.2583.164.393.236.1333.072.2713.1387.414.2.1427.0613.2863.113.431.155.1467.0447.295.082.445.112.1501.0303.3016.053.454.068.1527.0153.3053.0233.458.024Z" clip-rule="evenodd"/>
    <path fill="#F9ED32" fill-opacity=".78" fill-rule="evenodd" d="M34.823 19.123c.0728 0 .1455-.0037.218-.011.072-.007.144-.018.216-.032.072-.014.142-.032.212-.053.07-.021.138-.046.205-.073.067-.027.133-.059.2-.093s.127-.072.188-.112c.121-.0812.2339-.174.337-.277.052-.051.1-.105.147-.161.047-.056.09-.115.13-.175.04-.06.078-.123.113-.188s.065-.13.094-.2c.029-.07.052-.136.073-.205.021-.069.039-.14.053-.212.014-.072.025-.144.032-.216.007-.072.011-.145.011-.218 0-.073 0-.145-.01-.218-.01-.073-.018-.144-.032-.216-.014-.072-.032-.142-.053-.211-.0209-.0698-.0452-.1386-.073-.206-.028-.0667-.059-.1333-.093-.2-.035-.064-.072-.126-.112-.187-.04-.061-.084-.119-.13-.175-.046-.056-.1-.11-.146-.162-.046-.052-.105-.1-.162-.147-.057-.047-.115-.09-.176-.13-.061-.04-.123-.078-.187-.112-.065-.0347-.1318-.0661-.2-.094-.068-.028-.136-.052-.206-.074-.07-.022-.141-.039-.212-.053-.071-.014-.143-.025-.216-.032-.073-.007-.145-.011-.218-.011-.073 0-.146 0-.218.01-.072.01-.144.018-.216.032-.072.014-.142.032-.212.053-.0699.0209-.1386.0452-.206.073-.068.028-.133.058-.2.093-.067.035-.127.072-.187.112-.06.04-.119.084-.176.13-.1129.0922-.2164.1954-.309.308-.0466.0561-.0903.1145-.131.175-.0406.0603-.078.1227-.112.187-.035.064-.066.13-.094.2-.028.07-.053.136-.074.205-.0213.0694-.039.1398-.053.211-.014.072-.025.144-.032.216-.0146.145-.0146.291 0 .436.007.073.018.144.032.216.014.072.032.142.053.212.021.07.046.138.073.206.027.068.059.133.093.2s.072.127.112.188c.04.061.084.119.13.175.046.056.1.111.147.162.047.051.105.1.162.147.057.047.115.09.176.13.0607.0406.1234.078.188.112.0667.0347.1333.066.2.094.068.028.136.053.206.074.07.021.141.039.212.053.0714.0143.1435.025.216.032.0721.0076.1445.0116.217.012Z" clip-rule="evenodd"/>
    <path fill="#662D91" fill-opacity=".78" fill-rule="evenodd" d="M45.615 20.834c1.2097 1.4014 2.0151 3.1057 2.33 4.93.451 2.637-.237 5.078.246 6.72.1127.367.265.7208.454 1.055-.1127.0667-.2273.129-.344.187-.1167.058-.2347.1137-.354.167-.1193.052-.2403.101-.363.147-.123.045-.246.087-.371.125-.125.038-.25.073-.377.1-.127.027-.255.059-.383.082-.128.023-.258.044-.387.06s-.26.029-.39.038c-.13.009-.26.014-.391.015-.131.001-.261 0-.391-.007s-.261-.016-.39-.029c-.129-.013-.259-.031-.388-.052-.129-.021-.257-.045-.384-.073-.127-.028-.254-.06-.38-.1-.126-.04-.25-.075-.374-.117-.124-.042-.245-.088-.366-.138-.121-.05-.24-.1-.358-.159s-.234-.116-.348-.179c-.114-.063-.227-.129-.337-.2-.11-.071-.219-.142-.326-.218-.107-.076-.21-.154-.312-.236-.102-.082-.2-.166-.3-.253-.1-.087-.191-.178-.283-.27-.092-.092-.181-.188-.267-.286-.086-.098-.17-.2-.25-.3-.08-.1-.158-.208-.232-.315-.074-.107-.146-.216-.214-.328-.068-.112-.133-.224-.2-.339-.067-.115-.12-.231-.175-.35-.055-.119-.106-.238-.155-.359s-.093-.243-.134-.367c-.041-.124-.079-.249-.112-.375s-.065-.253-.091-.38c-.026-.127-.05-.256-.069-.385-.019-.129-.035-.258-.046-.388-.011-.13-.02-.26-.024-.39s-.005-.261 0-.391.01-.261.021-.39c.011-.129.025-.26.043-.389.018-.129.04-.258.065-.386s.054-.255.087-.381c.033-.126.069-.251.109-.376.04-.125.083-.247.13-.369s.1-.242.151-.361c.051-.119.111-.236.172-.352.061-.116.124-.229.191-.341.067-.112.138-.222.211-.329.073-.107.15-.214.229-.317.079-.103.162-.2.247-.3.085-.1.173-.195.264-.289.091-.094.184-.185.28-.273.096-.088.195-.174.3-.257.105-.083.2-.162.31-.239.11-.077.213-.151.323-.221.11-.07.222-.138.335-.2.113-.062.229-.125.346-.183.117-.058.236-.112.356-.163.12-.051.242-.1.365-.142.123-.042.247-.084.372-.121.125-.037.251-.07.378-.1s.255-.056.384-.078.257-.041.387-.056.26-.026.39-.033c.13-.007.261-.011.392-.011s.261.015.398.015Z" clip-rule="evenodd"/>
    <path fill="#92278F" fill-opacity=".78" fill-rule="evenodd" d="M48.075 26.925c.143 2.185-.3 4.163.113 5.565.7 2.4 3.826 4.566 2.367 5.8-.462.369-1.256.394-1.722.756-.742.578-.235 1.2-.169 1.654.032.214-.163.558-.8.976.484.357.44.659.267.937-.236.1613-.479.312-.729.452s-.5057.268-.767.384c-.2614.1167-.528.2213-.8.314s-.5464.173-.823.241c-.278.0667-.5583.1217-.841.165-.2827.0433-.567.073-.853.089-.286.0173-.572.0213-.858.012a9.62568 9.62568 0 0 1-.855-.066c-.284-.0347-.566-.082-.846-.142-.28-.06-.5564-.1327-.829-.218-.2734-.0853-.542-.1827-.806-.292-.264-.1093-.5227-.2307-.776-.364-.254-.1333-.501-.2773-.741-.432s-.4734-.3213-.7-.5c-.2254-.176-.4424-.362-.651-.558-.2087-.196-.4087-.4007-.6-.614-.1893-.214-.3694-.436-.54-.666-.1707-.23-.3297-.4673-.477-.712-.1487-.2447-.2857-.4953-.411-.752-.1254-.2567-.2393-.5187-.342-.786-.102-.2667-.192-.5377-.27-.813-.078-.2753-.143-.5533-.195-.834-.0527-.2807-.0923-.5637-.119-.849s-.0403-.5703-.041-.855c0-.286.0117-.5713.035-.856.0233-.2847.061-.5677.113-.849.0506-.2813.1137-.5597.189-.835s.1633-.547.264-.815c.1007-.2667.213-.5293.337-.788.124-.2587.2593-.51.406-.754.1466-.2453.3043-.4837.473-.715.1687-.2313.347-.4543.535-.669.1887-.2147.3867-.4207.594-.618.2073-.1973.423-.3847.647-.562.224-.1773.4573-.344.7-.5.2427-.156.4886-.3017.738-.437.2526-.1333.5106-.2563.774-.369.2633-.1127.53-.2127.8-.3.2726-.0867.5487-.161.828-.223s.561-.1113.845-.148c.2833-.0367.5683-.0603.855-.071.2866-.0107.5727-.0087.858.006.286.0147.5707.0423.854.083.2833.0407.5643.094.843.16.2787.0667.5537.145.825.235s.538.193.8.309c.262.1147.5183.241.769.379.2507.138.4946.287.732.447v-.002Z" clip-rule="evenodd"/>
    <path fill="#007FC6" fill-opacity=".78" fill-rule="evenodd" d="M46.043 47.889c-3.607 1.467-8.436-3.453-9.086 6.581a37.904524 37.904524 0 0 0-7.456-3.79c-.108-.1587-.211-.3207-.309-.486-.1-.165-.191-.334-.278-.5-.087-.166-.17-.345-.246-.521-.076-.176-.147-.354-.213-.535-.066-.181-.125-.363-.179-.548-.054-.185-.1-.37-.145-.558-.045-.188-.079-.376-.109-.565-.03-.189-.055-.38-.073-.571-.018-.191-.032-.383-.038-.575-.006-.192-.007-.384 0-.576.007-.192.017-.384.034-.575.017-.191.041-.382.07-.572.029-.19.065-.378.106-.566.041-.188.088-.374.141-.559.053-.185.112-.368.176-.549.064-.181.134-.36.21-.537.076-.177.156-.351.243-.522.087-.171.178-.341.275-.507.097-.166.2-.329.306-.489.106-.16.219-.316.336-.468.117-.152.238-.3.365-.446.127-.146.257-.286.392-.423s.275-.269.418-.4c.143-.131.29-.252.442-.371.152-.119.306-.233.464-.343.158-.11.32-.214.485-.313.165-.099.332-.193.5-.282.168-.089.344-.172.519-.25.175-.078.354-.15.535-.217.181-.067.363-.128.547-.183.184-.055.37-.105.557-.149.187-.044.376-.082.565-.114.189-.032.38-.058.571-.078.191-.02.383-.034.575-.042.192-.008.384-.01.577-.006.193.004.384.014.576.03.192.016.383.038.573.065.19.027.38.061.568.1.188.039.375.085.56.136.185.051.369.109.551.171.182.062.361.131.539.205.178.074.352.154.525.239.173.085.343.175.509.27.166.095.331.2.492.3.161.1.318.216.471.332.153.116.3.236.45.36.15.124.288.255.426.388s.272.272.4.414c.128.142.254.288.375.438.121.15.235.3.346.46.111.16.216.318.317.482.101.164.2.331.286.5.086.169.175.342.255.517.08.175.153.352.221.532.068.18.131.361.188.545.057.184.108.369.153.556.045.187.085.375.118.564.033.189.061.379.083.57.022.191.037.382.047.574.01.192.013.384.011.576-.002.192-.011.384-.025.576-.014.192-.035.383-.061.573-.026.19-.058.38-.1.568-.042.188-.082.378-.131.564Z" clip-rule="evenodd"/>
    <path fill="#01A6E6" fill-opacity=".78" fill-rule="evenodd" d="M40.747 47.941c-1.906.08-3.443 1.176-3.79 6.53-2.3251-1.5258-4.8107-2.7917-7.412-3.775.004-.1627.0146-.3247.032-.486.0173-.1613.041-.322.071-.482.0306-.1593.0673-.3173.11-.474.0426-.1567.092-.3113.148-.464.056-.1527.118-.3027.186-.45s.142-.292.222-.434c.08-.142.1657-.28.257-.414.0913-.134.188-.2647.29-.392.102-.1267.2087-.249.32-.367.1113-.118.2277-.231.349-.339.1213-.1087.2467-.212.376-.31s.2627-.1907.4-.278c.1373-.0874.2777-.169.421-.245.1433-.076.29-.146.44-.21.1493-.0667.3013-.1243.456-.173.1547-.0487.3107-.094.468-.136.1573-.0387.3163-.072.477-.1.1607-.028.322-.0474.484-.058.162-.0127.3243-.0187.487-.018.1627.0007.325.0077.487.021.162.014.3233.0343.484.061.1606.0267.3197.06.477.1.1573.04.313.0863.467.139.154.053.306.111.455.177.149.066.3.136.439.213.139.077.283.159.419.248s.269.182.4.281c.131.099.253.2.374.313.121.113.236.223.347.342.111.119.217.242.318.369s.2.258.287.394c.087.136.175.272.254.417Z" clip-rule="evenodd"/>
    <path fill="#2063B2" fill-opacity=".78" fill-rule="evenodd" d="M49.462 38.743c-.2248.0646-.4373.166-.629.3-.741.578-.235 1.2-.169 1.654.032.214-.163.558-.8.976.742.547.243.965-.056 1.367-1.387 1 .543 3.164-1.746 4.842-2.31.95-5.119-.727-7.016.561-.03-.173-.055-.347-.074-.522-.019-.175-.033-.35-.041-.525-.008-.175-.011-.351-.009-.527.002-.176.011-.351.024-.526.013-.175.032-.35.056-.524.024-.174.054-.347.089-.519.035-.172.076-.343.121-.513.045-.17.1-.338.153-.5.053-.162.117-.331.183-.494.066-.163.138-.323.214-.482.076-.159.157-.314.243-.468.086-.154.177-.3.272-.451.095-.151.195-.292.3-.434.105-.142.213-.28.326-.414.113-.134.23-.266.351-.394.121-.128.246-.251.374-.371s.261-.235.4-.347c.139-.112.275-.219.417-.322.142-.103.288-.2.437-.3.149-.1.3-.183.454-.268.154-.085.311-.164.47-.24.159-.076.32-.145.484-.21.164-.065.329-.125.5-.179.171-.054.336-.1.506-.148.17-.048.342-.083.514-.117s.346-.062.521-.085c.175-.023.35-.04.525-.052.175-.012.352-.018.528-.02.176-.002.351 0 .527.013.176.013.351.025.526.046.175.021.349.047.522.078.173.031.345.068.516.11l-.013.005Z" clip-rule="evenodd"/>
    <path fill="#12BCBC" fill-opacity=".78" fill-rule="evenodd" d="M22.636 38.85c.108 0 .216-.0053.324-.016.108-.0107.2147-.0263.32-.047.212-.0423.4193-.1053.619-.188.1-.041.2-.087.293-.138.093-.051.188-.106.278-.166.09-.06.177-.124.26-.193.083-.069.164-.141.24-.217.076-.076.149-.156.217-.24.068-.084.133-.17.193-.26.0603-.0898.1161-.1826.167-.278.051-.095.1-.193.138-.292.038-.099.078-.2.109-.3.031-.1.057-.208.079-.314.022-.106.037-.212.047-.32.01-.108.016-.215.016-.323 0-.108-.005-.216-.016-.323a3.282801 3.282801 0 0 0-.126-.633c-.0313-.1018-.0677-.2019-.109-.3-.0413-.1-.0873-.1977-.138-.293-.051-.0951-.1068-.1875-.167-.277-.06-.09-.124-.176-.193-.26-.069-.084-.141-.163-.217-.24-.1531-.1524-.3206-.2897-.5-.41-.0893-.06-.182-.1153-.278-.166-.0953-.0509-.1931-.097-.293-.138-.1-.0413-.2-.0777-.3-.109-.1-.0313-.2047-.0577-.314-.079-.106-.0207-.2127-.0363-.32-.047-.108-.01-.215-.016-.323-.016-.108 0-.216.006-.324.016-.108.01-.214.026-.32.048-.212.0424-.4193.1053-.619.188-.1.0413-.1973.0873-.292.138-.0947.0507-.1873.106-.278.166-.0899.0599-.1767.1243-.26.193-.084.068-.164.141-.24.217-.076.076-.149.156-.217.24-.068.084-.133.17-.193.26-.0604.0898-.1161.1826-.167.278-.0507.0953-.0967.1927-.138.292-.0413.0993-.0777.1993-.109.3-.031.1-.058.208-.079.314-.021.106-.037.213-.047.32-.01.107-.016.215-.016.323 0 .108.006.216.017.323.011.107.027.214.048.319.021.105.048.21.079.313.031.103.068.2.109.3.0414.0996.0878.1971.139.292.0507.0953.106.1877.166.277.06.09.124.176.193.259.069.083.141.163.217.239.076.076.156.149.24.217.0833.0687.1701.1331.26.193.09.06.182.115.277.167.095.052.193.1.293.138.1.038.2.078.3.109.1.031.208.058.314.079.1058.0213.2126.0374.32.048.106.011.213.017.321.017Z" clip-rule="evenodd"/>
    <path fill="#00B9F1" fill-opacity=".78" fill-rule="evenodd" d="M29.544 43.437c.1 0 .2 0 .3-.014.098-.0094.1955-.0237.292-.043.1-.019.193-.043.287-.071.094-.028.187-.061.278-.1.091-.039.18-.079.267-.126.087-.047.172-.1.254-.151.082-.051.161-.113.238-.175.077-.062.149-.128.219-.2.07-.072.136-.142.2-.218.0626-.076.1213-.1551.176-.237.0553-.082.106-.1663.152-.253.047-.0864.0894-.1751.127-.266.038-.0907.0713-.1833.1-.278.029-.094.053-.19.072-.286.019-.096.034-.194.044-.292.01-.098.015-.2.015-.3 0-.1 0-.2-.014-.295-.014-.095-.024-.2-.043-.292-.019-.092-.043-.192-.071-.287-.028-.095-.062-.187-.1-.278-.038-.091-.08-.18-.126-.267-.046-.087-.1-.171-.152-.253-.052-.082-.113-.161-.175-.237-.062-.076-.129-.149-.2-.219-.0694-.0705-.1425-.1372-.219-.2-.076-.063-.155-.121-.237-.176-.082-.055-.166-.106-.253-.152s-.175-.088-.267-.126c-.092-.038-.184-.071-.278-.1-.094-.029-.19-.053-.286-.072-.096-.019-.194-.034-.292-.044-.098-.01-.2-.015-.295-.015-.095 0-.2 0-.3.015-.0983.0094-.1961.0238-.293.043-.0968.0188-.1926.0425-.287.071-.0947.0287-.1873.062-.278.1-.091.038-.18.08-.267.126-.087.046-.171.1-.253.152-.082.052-.161.113-.237.176-.076.063-.15.129-.219.2-.069.071-.136.143-.2.219-.064.076-.121.155-.176.237-.055.082-.106.166-.152.253s-.088.176-.126.267c-.038.091-.071.184-.1.278-.029.094-.053.19-.072.286-.019.096-.034.194-.044.292-.01.098-.015.2-.015.295 0 .095.005.2.015.294.01.094.024.195.044.291.02.096.044.192.072.286.0286.094.062.1864.1.277.038.091.08.179.126.266.046.087.1.171.151.252.051.081.113.161.176.237.063.076.128.149.2.218.072.069.142.135.218.2.076.065.155.121.236.176.081.055.166.105.252.152s.175.089.266.127c.091.038.183.071.277.1.094.029.189.053.285.073.096.02.194.034.291.044.097.01.199.019.297.02Z" clip-rule="evenodd"/>
    <path fill="#8DC63F" fill-opacity=".78" fill-rule="evenodd" d="M22.161 30.832c.0753 0 .1506-.0037.226-.011.0753-.0073.1503-.0183.225-.033.074-.015.147-.033.22-.055.073-.022.144-.047.214-.077.0683-.03.135-.0633.2-.1.0666-.036.1316-.075.195-.117.063-.042.123-.087.182-.135.059-.048.114-.1.168-.152.054-.052.1-.11.152-.168.048-.0584.0931-.1191.135-.182.042-.063.081-.128.117-.194.036-.066.068-.135.1-.2.0289-.07.0543-.1414.076-.214.022-.072.04-.146.055-.22.0148-.074.0258-.1488.033-.224.007-.076.011-.151.011-.226 0-.075 0-.151-.011-.227-.011-.076-.019-.15-.033-.224-.014-.074-.033-.148-.055-.22-.022-.072-.048-.144-.076-.214-.028-.07-.062-.138-.1-.205-.0357-.0666-.0748-.1313-.117-.194-.042-.063-.087-.123-.135-.182-.048-.059-.1-.114-.152-.168-.052-.054-.11-.1-.168-.152-.0583-.0481-.119-.0932-.182-.135-.0629-.0425-.128-.0815-.195-.117-.0667-.0353-.135-.0687-.205-.1-.07-.029-.141-.054-.214-.076-.0724-.0221-.1458-.0405-.22-.055-.074-.015-.149-.026-.225-.033-.076-.007-.151-.011-.226-.011-.075 0-.152 0-.227.012-.0752.0071-.15.0181-.224.033-.0743.0144-.1477.0328-.22.055-.0726.0217-.144.0471-.214.076-.07.029-.138.061-.205.1-.067.039-.132.075-.194.117-.062.042-.124.087-.182.135-.058.048-.114.1-.168.153-.054.053-.1.109-.153.168-.053.059-.093.119-.135.182-.042.063-.081.128-.117.194-.036.066-.068.135-.1.205-.032.07-.054.141-.076.213-.0221.0723-.0405.1458-.055.22-.0147.0747-.0257.1493-.033.224-.007.075-.011.151-.011.226.0004.1511.0155.3018.045.45.015.074.033.147.056.22.023.073.047.143.076.213.029.07.062.138.1.2.0356.0667.0746.1314.117.194.042.063.087.123.135.182.048.059.1.114.152.167.1069.107.2241.2032.35.287.063.042.128.081.194.117.066.036.135.068.2.1s.141.054.214.077c.073.023.146.04.22.055.074.015.149.026.224.033.075.007.161.013.236.013Z" clip-rule="evenodd"/>
    <path fill="#FFD900" fill-opacity=".78" d="M21.009 22.787c0 .0667-.003.1333-.009.2-.006.065-.016.13-.029.194-.013.064-.029.128-.047.19s-.041.124-.066.185-.053.12-.084.177c-.0305.0577-.0639.1137-.1.168-.0367.0547-.0757.1073-.117.158-.042.051-.086.1-.132.146-.046.046-.095.09-.146.132-.051.042-.1.081-.158.117-.058.036-.111.07-.169.1-.058.03-.117.059-.178.084-.0605.0251-.1223.0471-.185.066-.0625.0193-.1259.0353-.19.048-.0641.013-.1289.0226-.194.029-.0667.0067-.1333.01-.2.01-.065 0-.131 0-.2-.01-.1305-.0125-.2595-.038-.385-.076-.063-.019-.125-.041-.185-.066s-.12-.053-.178-.084c-.058-.031-.114-.065-.169-.1-.055-.035-.107-.075-.158-.117-.051-.042-.1-.086-.146-.132-.046-.046-.09-.095-.132-.146-.0417-.0506-.0808-.1033-.117-.158a1.835656 1.835656 0 0 1-.1-.168c-.031-.058-.059-.117-.084-.177-.025-.06-.047-.122-.066-.185-.019-.063-.035-.126-.048-.19-.013-.064-.023-.129-.029-.194-.006-.065-.009-.131-.009-.2s0-.131.009-.2.016-.13.029-.194c.0128-.0641.0288-.1275.048-.19.019-.063.041-.124.066-.185s.053-.12.084-.177c.0305-.0576.0639-.1137.1-.168.036-.054.075-.1067.117-.158.042-.05.086-.1.132-.145.046-.045.095-.09.146-.132.051-.042.1-.08.158-.117.058-.037.111-.07.169-.1.0579-.031.1173-.059.178-.084.06-.025.122-.047.185-.066.063-.019.126-.035.191-.047.0641-.0129.1289-.0226.194-.029.065-.006.131-.009.2-.009s.131 0 .2.009c.0651.0064.1299.0161.194.029.065.013.128.029.19.047s.125.041.185.066c.0607.025.1201.053.178.084.058.031.114.065.169.1.055.035.107.075.158.117.051.042.1.085.146.132.046.047.09.095.132.145.042.05.08.1.117.158.037.058.07.111.1.168.03.057.059.117.084.177.025.06.047.122.066.185.019.063.035.126.047.19.012.064.023.129.029.194.006.065.009.134.009.199Z"/>
    <path fill="#009444" fill-opacity=".78" fill-rule="evenodd" d="M23.236 19.125c.0613 0 .1223-.003.183-.009.061-.006.121-.015.181-.026s.119-.027.178-.044c.059-.017.116-.038.173-.062.0567-.0229.1121-.049.166-.078.054-.029.107-.06.158-.094.051-.034.1-.071.147-.109.047-.038.093-.08.136-.123.0433-.0432.0843-.0886.123-.136.0388-.0471.0751-.0962.109-.147.034-.051.065-.1.094-.157.0291-.054.0555-.1094.079-.166.023-.056.044-.114.062-.172.018-.058.032-.118.044-.178.012-.06.021-.12.027-.181.006-.061.009-.122.009-.183s0-.122-.009-.183-.015-.121-.027-.181-.026-.119-.044-.178-.038-.116-.062-.173c-.024-.057-.05-.112-.079-.166-.029-.054-.06-.106-.094-.157-.034-.051-.07-.1-.109-.147-.039-.047-.08-.092-.123-.135-.043-.043-.089-.085-.136-.123-.047-.038-.1-.075-.147-.109-.047-.034-.1-.065-.158-.094-.0539-.0292-.1093-.0556-.166-.079-.056-.023-.114-.044-.173-.061a1.7045 1.7045 0 0 0-.178-.045c-.06-.012-.12-.021-.181-.027-.061-.006-.122-.009-.183-.009s-.123 0-.183.009-.121.015-.182.027-.119.027-.178.044c-.059.017-.116.038-.173.062-.0566.0232-.112.0492-.166.078-.054.029-.106.06-.158.094-.052.034-.1.071-.147.109-.047.038-.092.08-.136.123-.044.043-.084.088-.123.136-.039.048-.075.1-.109.147-.034.047-.065.1-.094.157-.0288.054-.0548.1094-.078.166-.0237.0565-.0444.1143-.062.173-.018.0585-.0331.1179-.045.178-.012.06-.021.12-.027.181-.006.061-.009.122-.009.183s0 .122.009.183c.0059.0608.0149.1212.027.181.012.06.027.119.045.178s.038.116.062.172c.024.056.05.112.078.166.028.054.061.106.094.157.033.051.071.1.109.147.0385.0475.0795.0929.123.136.0433.0433.0883.0843.135.123.047.038.1.075.147.109.047.034.1.065.157.094.057.029.109.055.166.079.057.024.114.044.173.062.0585.018.1179.0331.178.045.06.012.12.021.181.027.061.006.128.006.186.006Z" clip-rule="evenodd"/>
    <path fill="#56BA48" fill-opacity=".78" fill-rule="evenodd" d="M23.87 23.776c.3273.0001.6413-.1297.873-.361.1144-.1147.2054-.2506.268-.4.0307-.0746.0542-.1519.07-.231.0317-.1588.0317-.3222 0-.481-.0158-.0791-.0393-.1564-.07-.231-.0936-.2256-.2519-.4184-.455-.554-.1348-.09-.286-.1526-.445-.184a1.243692 1.243692 0 0 0-.481 0c-.1591.0312-.3104.0938-.445.184-.0673.0447-.1299.096-.187.153-.2314.2313-.3616.5449-.362.872-.001.0805.0057.1608.02.24.0159.0792.0397.1566.071.231.1254.3021.3657.542.668.667.0746.0306.1519.054.231.07.0803.0165.162.0248.244.025Z" clip-rule="evenodd"/>
    <path fill="#FBAD17" fill-opacity=".78" fill-rule="evenodd" d="M26.444 15.936c.162-.0003.3223-.0322.472-.094.0748-.0311.1465-.0692.214-.114.1346-.0899.2501-.2054.34-.34.045-.0686.0829-.1417.113-.218.0623-.1496.0943-.31.0943-.472 0-.162-.032-.3224-.0943-.472-.0307-.0747-.0689-.146-.114-.213-.0446-.0673-.0959-.1299-.153-.187-.057-.0572-.1196-.1085-.187-.153a1.24339 1.24339 0 0 0-.446-.179 1.244917 1.244917 0 0 0-.482 0c-.0791.0156-.1565.0391-.231.07-.1495.062-.2854.1527-.4.267-.0574.0571-.109.1197-.154.187-.0447.0672-.0829.1385-.114.213-.0618.1497-.0937.31-.094.472.0001.0809.0081.1616.024.241.016.0792.0398.1565.071.231.0311.0745.0692.1458.114.213.0903.1343.2058.2497.34.34.0672.0447.1385.0829.213.114.0745.0313.1518.0551.231.071.0801.0155.1615.0232.243.023Z" clip-rule="evenodd"/>
    <path fill="#F15C22" fill-opacity=".78" fill-rule="evenodd" d="M18.863 18.684c.0611-.0003.1221-.0067.182-.019.0599-.0124.1185-.0304.175-.054.1121-.0464.214-.1144.3-.2.0432-.0435.082-.091.116-.142.0336-.0507.0621-.1046.085-.161.0232-.0564.0406-.1151.052-.175.0116-.06.0173-.1209.017-.182.0001-.1226-.0244-.244-.072-.357-.0236-.0564-.0528-.1103-.087-.161-.034-.0506-.0729-.0978-.116-.141-.1309-.1303-.2977-.2187-.479-.254a.903547.903547 0 0 0-.182-.017c-.1845.0004-.3647.0554-.518.158a.944544.944544 0 0 0-.141.116c-.0434.0429-.0822.0902-.116.141a.925013.925013 0 0 0-.086.161c-.0236.0564-.0414.115-.053.175-.012.0599-.0181.1209-.018.182.0001.1229.0245.2446.072.358.0236.0564.0527.1104.087.161.0861.1275.2021.2319.3379.3041.1358.0721.2873.1099.4411.1099l.003-.003Z" clip-rule="evenodd"/>
    <path fill="#FBAD17" fill-opacity=".78" d="M41.069 28.205c0 .128 0 .255-.009.383s-.016.255-.028.382-.028.254-.047.38-.041.252-.066.377-.053.249-.084.373c-.031.124-.065.247-.1.369s-.077.243-.12.363-.089.239-.138.357c-.049.118-.1.235-.155.35-.055.115-.112.229-.172.342-.06.113-.123.224-.189.333-.066.109-.134.217-.205.323-.071.106-.145.211-.221.313-.076.102-.155.2-.236.3-.081.1-.164.2-.25.29-.086.09-.174.187-.264.277-.09.09-.183.178-.277.264-.094.086-.192.169-.29.25-.098.081-.2.16-.3.236-.1.076-.207.15-.313.22-.106.07-.214.139-.324.2-.11.061-.221.129-.333.189-.112.06-.227.117-.342.172-.115.055-.232.106-.35.155-.118.049-.237.095-.357.138-.12.043-.242.083-.364.12-.122.037-.246.071-.369.1-.123.029-.249.059-.374.084-.125.025-.252.047-.378.066-.126.019-.253.034-.38.047-.127.013-.255.022-.382.028-.127.006-.255.009-.383.009s-.255 0-.383-.009-.255-.015-.382-.028c-.127-.013-.254-.028-.38-.047s-.252-.041-.378-.066-.25-.053-.374-.084c-.124-.031-.247-.065-.369-.1s-.244-.077-.364-.12-.24-.089-.358-.138c-.118-.049-.235-.1-.351-.155-.116-.055-.229-.112-.342-.172-.113-.06-.224-.123-.334-.189-.11-.066-.217-.134-.324-.2-.107-.066-.21-.144-.313-.22-.103-.076-.2-.155-.3-.236-.1-.081-.2-.164-.29-.25-.09-.086-.187-.174-.278-.264-.091-.09-.179-.183-.264-.277-.085-.094-.169-.191-.25-.29-.081-.099-.16-.2-.236-.3-.076-.1-.149-.207-.22-.313-.071-.106-.14-.214-.2-.323-.06-.109-.129-.22-.189-.333-.06-.113-.117-.226-.172-.342-.055-.116-.106-.232-.155-.35-.049-.118-.095-.237-.138-.357-.043-.12-.083-.241-.12-.363-.037-.122-.071-.245-.1-.369-.029-.124-.059-.248-.084-.373-.025-.125-.047-.251-.065-.377-.018-.126-.035-.253-.047-.38-.012-.127-.022-.254-.028-.382-.006-.128-.009-.255-.009-.383s0-.255.009-.383.015-.255.028-.381c.013-.126.028-.254.047-.38s.041-.252.065-.377.053-.249.084-.373c.031-.124.065-.247.1-.369s.077-.243.12-.363.089-.239.138-.357c.049-.118.1-.235.155-.35.055-.115.112-.229.172-.342.06-.113.123-.224.189-.333.066-.109.134-.217.2-.323.066-.106.144-.211.22-.313.076-.102.155-.2.236-.3.081-.1.164-.2.25-.29.086-.09.174-.187.264-.277.09-.09.183-.178.278-.264.095-.086.191-.169.29-.25.099-.081.2-.159.3-.235.1-.076.207-.149.313-.22.106-.071.214-.139.324-.2.11-.061.221-.129.334-.189.113-.06.227-.117.342-.172.115-.055.232-.106.351-.155.119-.049.237-.095.358-.138.121-.043.241-.083.364-.12.123-.037.245-.071.369-.1.124-.029.249-.059.374-.084.125-.025.251-.047.378-.066.127-.019.253-.034.38-.047.127-.013.255-.022.382-.028.127-.006.255-.009.383-.009s.255 0 .383.009.255.015.382.028c.127.013.254.028.38.047s.252.041.378.066.25.053.374.084c.124.031.247.065.369.1s.243.077.364.12.239.089.357.138c.118.049.235.1.35.155.115.055.23.112.342.172.112.06.224.123.333.189.109.066.217.134.324.2.107.066.211.144.313.22.102.076.2.155.3.235.1.08.2.164.29.25.09.086.187.174.277.264.09.09.179.183.264.277.085.094.169.191.25.29.081.099.16.2.236.3.076.1.15.207.221.313.071.106.139.214.205.323.066.109.129.22.189.333.06.113.118.226.172.342.054.116.107.232.155.35.048.118.095.237.138.357.043.12.083.241.12.363.037.122.071.245.1.369.029.124.059.248.084.373.025.125.047.251.066.377.019.126.034.253.047.38.013.127.022.254.028.381.006.127.009.256.009.383Z"/>
    <path fill="#EC008B" fill-opacity=".78" fill-rule="evenodd" d="M37.577 16.401c3.4862.5893 6.611 2.5002 8.724 5.335-.016.114-.0353.2273-.058.34-.0227.1127-.049.2247-.079.336-.03.1113-.0633.2217-.1.331-.0367.1093-.0767.2173-.12.324-.043.106-.09.212-.14.316-.05.104-.1.206-.159.306s-.116.2-.178.3c-.062.1-.127.192-.2.284-.073.092-.139.183-.213.272-.074.089-.15.174-.23.258-.08.084-.161.165-.245.243-.084.078-.171.155-.26.228-.089.073-.18.143-.273.211-.093.068-.188.132-.286.194-.098.062-.2.12-.3.175-.1.055-.2.108-.308.157-.108.049-.21.1-.317.138-.107.038-.215.082-.325.118-.11.036-.22.068-.331.1-.111.032-.224.055-.337.077-.113.022-.227.041-.341.056-.114.015-.229.027-.344.035-.115.008-.23.013-.346.014-.116.001-.23 0-.345-.008-.115-.008-.23-.016-.344-.029-.114-.013-.229-.03-.342-.05-.113-.02-.226-.044-.338-.072-.112-.028-.223-.058-.333-.092-.11-.034-.219-.072-.327-.113-.108-.041-.214-.085-.319-.132-.105-.047-.208-.1-.31-.152-.102-.052-.2-.111-.3-.171-.1-.06-.194-.123-.289-.189-.095-.066-.187-.135-.277-.207-.09-.072-.178-.147-.263-.224-.085-.077-.168-.157-.249-.239-.081-.082-.158-.167-.234-.254-.076-.087-.148-.177-.217-.268-.069-.091-.137-.186-.2-.282-.063-.096-.125-.193-.182-.293-.057-.1-.113-.2-.164-.3-.051-.1-.1-.208-.145-.313-.045-.105-.087-.213-.126-.322-.039-.109-.073-.218-.105-.329-.032-.111-.06-.222-.084-.335-.024-.113-.046-.225-.064-.339-.018-.114-.032-.228-.042-.343-.01-.115-.018-.229-.021-.345-.003-.116 0-.23 0-.345 0-.115.011-.23.022-.345.011-.115.025-.229.043-.343.018-.114.039-.227.064-.339.025-.112.053-.224.085-.334.032-.11.067-.22.105-.329.038-.109.081-.216.126-.322.045-.106.094-.21.145-.313.051-.103.106-.2.164-.3.058-.1.119-.2.183-.292.064-.092.131-.19.2-.281.069-.091.142-.181.218-.268.076-.087.153-.172.234-.254.081-.082.164-.162.249-.239.085-.077.173-.152.263-.223.09-.071.191-.154.285-.22Z" clip-rule="evenodd"/>
    <path fill="#56BA48" fill-opacity=".78" fill-rule="evenodd" d="M30.636 24.788c.1533 0 .3063-.0073.459-.022.1527-.0147.304-.0373.454-.068.1507-.03.299-.067.445-.111.146-.044.29-.0957.432-.155.142-.058.28-.124.415-.2.135-.076.266-.15.394-.235.1275-.0848.2506-.1759.369-.273.118-.0967.2313-.199.34-.307.109-.108.211-.222.308-.34.0971-.118.1882-.2408.273-.368.0847-.1267.1633-.2577.236-.393.0727-.1353.1393-.2733.2-.414.1171-.2826.2062-.576.266-.876.03-.15.0527-.3013.068-.454.0153-.1527.023-.3053.023-.458s-.0077-.305-.023-.457c-.0153-.152-.0377-.3033-.067-.454-.03-.15-.067-.2983-.111-.445s-.0957-.2903-.155-.431a4.15995 4.15995 0 0 0-.2-.415c-.0747-.1353-.1533-.2663-.236-.393-.0853-.1273-.1763-.25-.273-.368-.0967-.118-.1993-.231-.308-.339-.1087-.1087-.222-.2113-.34-.308-.118-.0967-.241-.1877-.369-.273-.128-.0847-.2593-.1633-.394-.236-.1347-.0727-.273-.1393-.415-.2-.142-.0587-.286-.1103-.432-.155-.146-.0447-.2943-.0817-.445-.111-.1507-.03-.302-.0523-.454-.067-.152-.0147-.3047-.022-.458-.022s-.306.0073-.458.022c-.152.0147-.3033.037-.454.067-.1501.0295-.2986.0666-.445.111-.1467.0447-.2907.0963-.432.155a4.15995 4.15995 0 0 0-.415.2c-.1352.0717-.2667.1501-.394.235a4.92094 4.92094 0 0 0-.369.273c-.1187.0967-.232.1993-.34.308-.108.108-.211.222-.308.339-.097.117-.188.241-.273.368-.085.127-.164.258-.236.393-.072.135-.138.273-.2.414-.062.141-.11.285-.155.432-.045.147-.082.295-.111.445-.029.15-.053.3-.068.453-.015.153-.022.305-.022.458 0 .1526.0077.3051.023.457.0153.1527.038.3037.068.453.03.1493.0673.2973.112.444.0447.146.0963.2897.155.431.0587.1413.1253.2793.2.414.072.1333.1507.2643.236.393.0853.1287.1763.2513.273.368.0967.118.1993.231.308.339.1087.108.222.2107.34.308.118.0967.2407.1877.368.273.1273.0853.2583.164.393.236.1333.072.2713.1387.414.2.1427.0613.2863.113.431.155.1467.0447.295.082.445.112.1501.0303.3016.053.454.068.1527.0153.3053.0233.458.024Z" clip-rule="evenodd"/>
</svg>
