<svg id="fe5d359d-323f-4cea-8631-0995619ab5e0" data-name="Слой 1" xmlns="http://www.w3.org/2000/svg" viewBox="0 0 95.76 98.33">
  <g>
    <polyline points="70.35 73.33 84.88 81.72 90.91 81.48" fill="none" stroke="#61efff" stroke-miterlimit="10" stroke-width="0.5"/>
    <line x1="66.39" y1="75.79" x2="92.02" y2="90.59" fill="none" stroke="#61efff" stroke-miterlimit="10" stroke-width="0.5"/>
    <line x1="62.28" y1="78.16" x2="81.85" y2="89.46" fill="none" stroke="#61efff" stroke-miterlimit="10" stroke-width="0.5"/>
    <polyline points="58.17 80.54 73.52 89.4 74.7 95.3" fill="none" stroke="#61efff" stroke-miterlimit="10" stroke-width="0.5"/>
    <ellipse cx="92.95" cy="81.39" rx="2.04" ry="1.18" fill="none" stroke="#61efff" stroke-miterlimit="10" stroke-width="0.5"/>
    <path d="M98.48,92.9a3.2,3.2,0,0,0-2.89,0,.88.88,0,0,0,0,1.67,3.2,3.2,0,0,0,2.89,0A.88.88,0,0,0,98.48,92.9Z" transform="translate(-3.57 -2.31)" fill="none" stroke="#61efff" stroke-miterlimit="10" stroke-width="0.5"/>
    <path d="M88.31,91.77a3.2,3.2,0,0,0-2.89,0c-.8.47-.8,1.21,0,1.67a3.2,3.2,0,0,0,2.89,0C89.11,93,89.11,92.24,88.31,91.77Z" transform="translate(-3.57 -2.31)" fill="none" stroke="#61efff" stroke-miterlimit="10" stroke-width="0.5"/>
    <path d="M80,97.94a3.2,3.2,0,0,0-2.89,0,.88.88,0,0,0,0,1.67,3.2,3.2,0,0,0,2.89,0C80.75,99.15,80.75,98.41,80,97.94Z" transform="translate(-3.57 -2.31)" fill="none" stroke="#61efff" stroke-miterlimit="10" stroke-width="0.5"/>
  </g>
  <polyline points="35.55 80.78 20.02 89.74 20.85 95.77" fill="none" stroke="#61efff" stroke-miterlimit="10" stroke-width="0.5"/>
  <line x1="31.38" y1="78.54" x2="8.88" y2="91.53" fill="none" stroke="#61efff" stroke-miterlimit="10" stroke-width="0.5"/>
  <line x1="27.35" y1="76.21" x2="10.79" y2="85.78" fill="none" stroke="#61efff" stroke-miterlimit="10" stroke-width="0.5"/>
  <polyline points="23.33 73.89 10.89 81.07 4.24 81.57" fill="none" stroke="#61efff" stroke-miterlimit="10" stroke-width="0.5"/>
  <ellipse cx="21.01" cy="96.92" rx="2" ry="1.15" fill="none" stroke="#61efff" stroke-miterlimit="10" stroke-width="0.5"/>
  <path d="M12.45,95.47a.86.86,0,0,0,0-1.63,3.14,3.14,0,0,0-2.83,0,.86.86,0,0,0,0,1.63A3.14,3.14,0,0,0,12.45,95.47Z" transform="translate(-3.57 -2.31)" fill="none" stroke="#61efff" stroke-miterlimit="10" stroke-width="0.5"/>
  <path d="M14.36,89.72a.86.86,0,0,0,0-1.63,3.14,3.14,0,0,0-2.83,0,.86.86,0,0,0,0,1.63A3.14,3.14,0,0,0,14.36,89.72Z" transform="translate(-3.57 -2.31)" fill="none" stroke="#61efff" stroke-miterlimit="10" stroke-width="0.5"/>
  <path d="M7.23,84.83a.87.87,0,0,0,0-1.64,3.13,3.13,0,0,0-2.83,0,.87.87,0,0,0,0,1.64A3.13,3.13,0,0,0,7.23,84.83Z" transform="translate(-3.57 -2.31)" fill="none" stroke="#61efff" stroke-miterlimit="10" stroke-width="0.5"/>
  <g>
    <g>
      <polygon points="86.12 33.82 86.12 68.64 77.23 73.78 77.23 70.44 58.88 81.03 58.88 84.37 47.03 91.21 47.03 56.39 86.12 33.82" fill="none" stroke="#61efff" stroke-miterlimit="10" stroke-width="0.5"/>
      <polygon points="86.12 33.82 47.03 56.39 7.94 33.82 47.03 11.25 86.12 33.82" fill="none" stroke="#61efff" stroke-miterlimit="10" stroke-width="0.5"/>
      <polygon points="77.23 70.44 77.23 73.78 74.34 72.11 77.23 70.44" fill="none" stroke="#61efff" stroke-miterlimit="10" stroke-width="0.5"/>
      <polygon points="47.03 56.39 47.03 91.21 35.17 84.37 35.17 81.03 16.82 70.44 16.82 73.78 7.93 68.64 7.93 33.82 7.94 33.82 47.03 56.39" fill="none" stroke="#61efff" stroke-miterlimit="10" stroke-width="0.5"/>
      <polygon points="19.71 72.11 16.82 73.78 16.82 70.44 19.71 72.11" fill="none" stroke="#61efff" stroke-miterlimit="10" stroke-width="0.5"/>
    </g>
    <g>
      <polygon points="7.94 33.82 47.03 11.25 86.12 33.82 47.03 56.39 7.94 33.82" fill="none" stroke="#61efff" stroke-miterlimit="10" stroke-width="0.5"/>
      <line x1="47.03" y1="56.39" x2="47.03" y2="91.21" fill="none" stroke="#61efff" stroke-miterlimit="10" stroke-width="0.5"/>
      <polyline points="7.93 33.82 7.93 68.64 16.82 73.78 16.82 70.44 35.17 81.03 35.17 84.37 47.03 91.21 58.88 84.37 58.88 81.03 77.23 70.44 77.23 73.78 86.12 68.64 86.12 33.82" fill="none" stroke="#61efff" stroke-miterlimit="10" stroke-width="0.5"/>
      <line x1="77.23" y1="73.78" x2="74.34" y2="72.11" fill="none" stroke="#61efff" stroke-miterlimit="10" stroke-width="0.5"/>
      <line x1="16.82" y1="73.78" x2="19.71" y2="72.11" fill="none" stroke="#61efff" stroke-miterlimit="10" stroke-width="0.5"/>
    </g>
  </g>
  <g>
    <g>
      <g>
        <polygon points="81.16 20 81.16 28.98 47.03 48.69 47.03 39.7 81.16 20" fill="none" stroke="#61efff" stroke-miterlimit="10" stroke-width="0.5"/>
        <path d="M84.73,22.31,50.6,42,16.46,22.31,50.6,2.6ZM50.34,37.47,76.6,22.31,50.34,7.14l-20,11.57" transform="translate(-3.57 -2.31)" fill="none" stroke="#61efff" stroke-miterlimit="10" stroke-width="0.5"/>
        <polyline points="26.73 16.4 46.77 4.83 73.03 19.99 46.77 35.16" fill="none" stroke="#61efff" stroke-miterlimit="10" stroke-width="0.5"/>
        <polygon points="47.03 39.7 47.03 48.69 12.89 28.98 12.89 20 47.03 39.7" fill="none" stroke="#61efff" stroke-miterlimit="10" stroke-width="0.5"/>
      </g>
      <g>
        <polygon points="12.89 20 47.03 0.29 81.16 20 47.03 39.7 12.89 20" fill="none" stroke="#61efff" stroke-miterlimit="10" stroke-width="0.5"/>
        <polyline points="12.89 20 12.89 28.98 47.03 48.69 81.16 28.98 81.16 20" fill="none" stroke="#61efff" stroke-miterlimit="10" stroke-width="0.5"/>
        <polygon points="26.73 16.4 46.77 4.83 73.03 19.99 46.77 35.16 22.05 19.25 26.73 16.4" fill="#1a1a1a" stroke="#61efff" stroke-miterlimit="10" stroke-width="0.5"/>
        <line x1="47.03" y1="39.7" x2="47.03" y2="48.69" fill="none" stroke="#61efff" stroke-miterlimit="10" stroke-width="0.5"/>
      </g>
    </g>
    <g>
      <path d="M53.62,23.89,49.45,26.3l1.14,1.55-2.84,1.64-5.51-8.2L45,19.71l14.22,3.17-2.9,1.67Zm-2.87-.71-4.43-1.09,1.89,2.55Z" transform="translate(-3.57 -2.31)" fill="#f2f2f2" stroke="#61efff" stroke-miterlimit="10" stroke-width="0.5"/>
      <polygon points="46.57 14.42 49.36 12.81 59.21 18.5 56.43 20.11 46.57 14.42" fill="#f2f2f2" stroke="#61efff" stroke-miterlimit="10" stroke-width="0.5"/>
    </g>
  </g>
  <g>
    <g>
      <path d="M87.51,43V53.63a4.55,4.55,0,0,1-2,4.18,3.66,3.66,0,0,1-1.82.47,5.06,5.06,0,0,1-2-.43,6.6,6.6,0,0,0,.05-.9V55.84l.09-.13,0,0a2.17,2.17,0,0,0,3.64-2.11V43a10.4,10.4,0,0,0-4.62-8l-4.54-2.62A1,1,0,0,1,76,31a1,1,0,0,1,1.34-.36l4.54,2.62A12.23,12.23,0,0,1,87.51,43Z" transform="translate(-3.57 -2.31)" fill="none" stroke="#61efff" stroke-miterlimit="10" stroke-width="0.5"/>
      <path d="M81.76,48.24c.94.25,1.57,1.3,1.57,2.9a8.58,8.58,0,0,1-1.48,4.57l-.09-.05Z" transform="translate(-3.57 -2.31)" fill="none" stroke="#61efff" stroke-miterlimit="10" stroke-width="0.5"/>
      <path d="M81.85,55.71l-.09.13v-.18Z" transform="translate(-3.57 -2.31)" fill="none" stroke="#61efff" stroke-miterlimit="10" stroke-width="0.5"/>
      <path d="M81.76,55.84V57a6.6,6.6,0,0,1-.05.9,4.18,4.18,0,0,1-1.94,3.27,3.6,3.6,0,0,1-1.83.48,5.12,5.12,0,0,1-2-.44,6.33,6.33,0,0,0,.06-.89V59l.13.07a4.4,4.4,0,0,0,.69.34,1.9,1.9,0,0,0,2.89-1.67,4.72,4.72,0,0,0,.06-.77V46.3a10.41,10.41,0,0,0-4.63-8l-4.54-2.62a1,1,0,1,1,1-1.71l4.54,2.62a12.24,12.24,0,0,1,5.61,9.73Z" transform="translate(-3.57 -2.31)" fill="none" stroke="#61efff" stroke-miterlimit="10" stroke-width="0.5"/>
      <path d="M79.79,56.8V57a4.72,4.72,0,0,1-.06.77l-2.89,1.67a4.4,4.4,0,0,1-.69-.34L76,59V50.85l3.77-2.17v5.84l-1.23-.71a1,1,0,0,0-1,1.71Z" transform="translate(-3.57 -2.31)" fill="none" stroke="#61efff" stroke-miterlimit="10" stroke-width="0.5"/>
      <path d="M79.79,54.52V56.8l-2.22-1.28a1,1,0,0,1,1-1.71Z" transform="translate(-3.57 -2.31)" fill="none" stroke="#61efff" stroke-miterlimit="10" stroke-width="0.5"/>
      <path d="M76,59v1.29a6.33,6.33,0,0,1-.06.89A4.13,4.13,0,0,1,74,64.44a3.56,3.56,0,0,1-1.82.48,5.08,5.08,0,0,1-2-.44,6.43,6.43,0,0,0,0-.9V62.3l.13.07a4.29,4.29,0,0,0,.69.33A1.9,1.9,0,0,0,74,61a6.06,6.06,0,0,0,.05-.76V49.62a10.39,10.39,0,0,0-4.62-8L64.88,39a1,1,0,0,1,1-1.71l4.53,2.62A12.25,12.25,0,0,1,76,49.62Z" transform="translate(-3.57 -2.31)" fill="none" stroke="#61efff" stroke-miterlimit="10" stroke-width="0.5"/>
      <path d="M74,60.12v.15A6.06,6.06,0,0,1,74,61l-2.9,1.67a4.29,4.29,0,0,1-.69-.33l-.13-.07V54.17L74,52v5.85l-1.23-.71a1,1,0,0,0-1,1.71Z" transform="translate(-3.57 -2.31)" fill="none" stroke="#61efff" stroke-miterlimit="10" stroke-width="0.5"/>
      <path d="M74,57.84v2.28l-2.21-1.28a1,1,0,0,1,1-1.71Z" transform="translate(-3.57 -2.31)" fill="none" stroke="#61efff" stroke-miterlimit="10" stroke-width="0.5"/>
      <path d="M70.27,62.3v1.28a6.43,6.43,0,0,1,0,.9,4.17,4.17,0,0,1-1.94,3.27,3.6,3.6,0,0,1-1.83.48,5.67,5.67,0,0,1-2.78-.83l-3.33-1.93a1,1,0,0,1,1-1.71l3.33,1.93a5.41,5.41,0,0,0,.69.33,1.9,1.9,0,0,0,2.89-1.67,4.63,4.63,0,0,0,.06-.77V52.93a10.39,10.39,0,0,0-4.63-8L59.13,42.3a1,1,0,1,1,1-1.71l4.54,2.62a12.22,12.22,0,0,1,5.61,9.72Z" transform="translate(-3.57 -2.31)" fill="none" stroke="#61efff" stroke-miterlimit="10" stroke-width="0.5"/>
      <path d="M68.3,63.44v.14a4.63,4.63,0,0,1-.06.77L65.35,66a5.41,5.41,0,0,1-.69-.33l-3.33-1.93a1,1,0,0,0-1,1.71l3,1.72L60,69.12c-1.87,1.08-3.38-.06-3.38-2.55A8.09,8.09,0,0,1,60,60.11l8.32-4.8v5.85l-1.23-.71a1,1,0,0,0-1.35.36,1,1,0,0,0,.36,1.35Z" transform="translate(-3.57 -2.31)" fill="none" stroke="#61efff" stroke-miterlimit="10" stroke-width="0.5"/>
      <path d="M68.3,61.16v2.28l-2.22-1.28a1,1,0,0,1-.36-1.35,1,1,0,0,1,1.35-.36Z" transform="translate(-3.57 -2.31)" fill="none" stroke="#61efff" stroke-miterlimit="10" stroke-width="0.5"/>
    </g>
    <g>
      <path d="M63.32,67.19,60,69.12c-1.87,1.08-3.38-.06-3.38-2.55A8.09,8.09,0,0,1,60,60.11l8.32-4.8" transform="translate(-3.57 -2.31)" fill="none" stroke="#61efff" stroke-miterlimit="10" stroke-width="0.5"/>
      <line x1="66.71" y1="51.86" x2="70.48" y2="49.68" fill="none" stroke="#61efff" stroke-miterlimit="10" stroke-width="0.5"/>
      <line x1="72.45" y1="48.54" x2="76.22" y2="46.36" fill="none" stroke="#61efff" stroke-miterlimit="10" stroke-width="0.5"/>
      <path d="M81.76,48.24c.94.25,1.57,1.3,1.57,2.9a8.7,8.7,0,0,1-1.48,4.57l-.09.13" transform="translate(-3.57 -2.31)" fill="none" stroke="#61efff" stroke-miterlimit="10" stroke-width="0.5"/>
      <line x1="76.16" y1="55.41" x2="73.27" y2="57.08" fill="none" stroke="#61efff" stroke-miterlimit="10" stroke-width="0.5"/>
      <line x1="70.42" y1="58.72" x2="67.53" y2="60.39" fill="none" stroke="#61efff" stroke-miterlimit="10" stroke-width="0.5"/>
      <line x1="64.67" y1="62.04" x2="61.78" y2="63.71" fill="none" stroke="#61efff" stroke-miterlimit="10" stroke-width="0.5"/>
      <path d="M70.22,64.48a4.17,4.17,0,0,1-1.94,3.27,3.6,3.6,0,0,1-1.83.48,5.67,5.67,0,0,1-2.78-.83l-3.33-1.93a1,1,0,0,1,1-1.71l3.33,1.93a5.41,5.41,0,0,0,.69.33,1.9,1.9,0,0,0,2.89-1.67,4.63,4.63,0,0,0,.06-.77V52.93a10.39,10.39,0,0,0-4.63-8L59.13,42.3a1,1,0,1,1,1-1.71l4.54,2.62a12.22,12.22,0,0,1,5.61,9.72V63.58A6.43,6.43,0,0,1,70.22,64.48Z" transform="translate(-3.57 -2.31)" fill="none" stroke="#61efff" stroke-miterlimit="10" stroke-width="0.5"/>
      <path d="M70.27,62.3l.13.07a4.29,4.29,0,0,0,.69.33A1.9,1.9,0,0,0,74,61a6.06,6.06,0,0,0,.05-.76V49.62a10.39,10.39,0,0,0-4.62-8L64.88,39a1,1,0,0,1,1-1.71l4.53,2.62A12.25,12.25,0,0,1,76,49.62V60.27a6.33,6.33,0,0,1-.06.89A4.13,4.13,0,0,1,74,64.44a3.56,3.56,0,0,1-1.82.48,5.08,5.08,0,0,1-2-.44" transform="translate(-3.57 -2.31)" fill="none" stroke="#61efff" stroke-miterlimit="10" stroke-width="0.5"/>
      <path d="M68.3,63.44l-2.22-1.28a1,1,0,0,1-.36-1.35,1,1,0,0,1,1.35-.36l1.23.71" transform="translate(-3.57 -2.31)" fill="none" stroke="#61efff" stroke-miterlimit="10" stroke-width="0.5"/>
      <path d="M76,59l.13.07a4.4,4.4,0,0,0,.69.34,1.9,1.9,0,0,0,2.89-1.67,4.72,4.72,0,0,0,.06-.77V46.3a10.41,10.41,0,0,0-4.63-8l-4.54-2.62a1,1,0,1,1,1-1.71l4.54,2.62a12.24,12.24,0,0,1,5.61,9.73V57a6.6,6.6,0,0,1-.05.9,4.18,4.18,0,0,1-1.94,3.27,3.6,3.6,0,0,1-1.83.48,5.12,5.12,0,0,1-2-.44" transform="translate(-3.57 -2.31)" fill="none" stroke="#61efff" stroke-miterlimit="10" stroke-width="0.5"/>
      <path d="M74,60.12l-2.21-1.28a1,1,0,0,1,1-1.71l1.23.71" transform="translate(-3.57 -2.31)" fill="none" stroke="#61efff" stroke-miterlimit="10" stroke-width="0.5"/>
      <path d="M81.76,55.66l.13.08a2.17,2.17,0,0,0,3.64-2.11V43a10.4,10.4,0,0,0-4.62-8l-4.54-2.62A1,1,0,0,1,76,31a1,1,0,0,1,1.34-.36l4.54,2.62A12.23,12.23,0,0,1,87.51,43V53.63a4.55,4.55,0,0,1-2,4.18,3.66,3.66,0,0,1-1.82.47,5.06,5.06,0,0,1-2-.43" transform="translate(-3.57 -2.31)" fill="none" stroke="#61efff" stroke-miterlimit="10" stroke-width="0.5"/>
      <path d="M79.79,56.8l-2.22-1.28a1,1,0,0,1,1-1.71l1.23.71" transform="translate(-3.57 -2.31)" fill="none" stroke="#61efff" stroke-miterlimit="10" stroke-width="0.5"/>
    </g>
  </g>
  <g>
    <g>
      <path d="M41.51,60.11a8.09,8.09,0,0,1,3.38,6.46c0,2.49-1.51,3.63-3.38,2.55l-3.34-1.93,3-1.72a1,1,0,0,0-1-1.71l-3.34,1.93a5.41,5.41,0,0,1-.69.33l-2.89-1.67h0a4.63,4.63,0,0,1-.06-.77v-.15l2.22-1.27a1,1,0,0,0,.36-1.35,1,1,0,0,0-1.35-.36l-1.23.71V55.31Z" transform="translate(-3.57 -2.31)" fill="none" stroke="#61efff" stroke-miterlimit="10" stroke-width="0.5"/>
      <path d="M42.72,41a1,1,0,0,1-.36,1.35l-4.54,2.62a10.4,10.4,0,0,0-4.63,8V63.58a4.63,4.63,0,0,0,.06.77h0a2.25,2.25,0,0,0,1,1.7,2.26,2.26,0,0,0,1.94,0,5.41,5.41,0,0,0,.69-.33l3.34-1.93a1,1,0,0,1,1,1.71L37.82,67.4a5.67,5.67,0,0,1-2.78.83,3.69,3.69,0,0,1-1.83-.47,4.2,4.2,0,0,1-1.94-3.28,6.43,6.43,0,0,1-.05-.9V52.93a12.22,12.22,0,0,1,5.61-9.72l4.54-2.62A1,1,0,0,1,42.72,41Z" transform="translate(-3.57 -2.31)" fill="none" stroke="#61efff" stroke-miterlimit="10" stroke-width="0.5"/>
      <path d="M33.25,64.35,36.14,66a2.26,2.26,0,0,1-1.94,0A2.25,2.25,0,0,1,33.25,64.35Z" transform="translate(-3.57 -2.31)" fill="none" stroke="#61efff" stroke-miterlimit="10" stroke-width="0.5"/>
      <path d="M35.77,60.81a1,1,0,0,1-.36,1.35l-2.22,1.27V61.16l1.23-.71A1,1,0,0,1,35.77,60.81Z" transform="translate(-3.57 -2.31)" fill="none" stroke="#61efff" stroke-miterlimit="10" stroke-width="0.5"/>
      <path d="M31.27,64.48a5.08,5.08,0,0,1-2,.44,3.63,3.63,0,0,1-1.83-.48,4.18,4.18,0,0,1-1.93-3.28,6.33,6.33,0,0,1-.06-.89V49.62a12.25,12.25,0,0,1,5.62-9.73l4.53-2.62a1,1,0,1,1,1,1.71L32.07,41.6a10.42,10.42,0,0,0-4.62,8V60.27a4.55,4.55,0,0,0,.05.76h0a2.31,2.31,0,0,0,.95,1.7,2.29,2.29,0,0,0,1.95,0,4.29,4.29,0,0,0,.69-.33l.13-.07v1.28A6.43,6.43,0,0,0,31.27,64.48Z" transform="translate(-3.57 -2.31)" fill="none" stroke="#61efff" stroke-miterlimit="10" stroke-width="0.5"/>
      <path d="M31.23,34.32a1,1,0,0,1-.36,1.34l-4.54,2.62a10.41,10.41,0,0,0-4.63,8V57a4.72,4.72,0,0,0,.06.77,2.21,2.21,0,0,0,.95,1.69,2.26,2.26,0,0,0,1.94,0h0a5.41,5.41,0,0,0,.69-.33l.13-.08v1.29a6.33,6.33,0,0,0,.06.89,5.12,5.12,0,0,1-2,.44,3.6,3.6,0,0,1-1.83-.48,4.18,4.18,0,0,1-1.94-3.27,8.72,8.72,0,0,1-.05-.9V46.3a12.24,12.24,0,0,1,5.61-9.73L29.88,34A1,1,0,0,1,31.23,34.32Z" transform="translate(-3.57 -2.31)" fill="none" stroke="#61efff" stroke-miterlimit="10" stroke-width="0.5"/>
      <path d="M31.22,54.17V62.3l-.13.07a4.29,4.29,0,0,1-.69.33L27.5,61h0a4.55,4.55,0,0,1-.05-.76v-.15l2.21-1.28a1,1,0,1,0-1-1.71l-1.23.71V52Z" transform="translate(-3.57 -2.31)" fill="none" stroke="#61efff" stroke-miterlimit="10" stroke-width="0.5"/>
      <path d="M27.5,61l2.9,1.67a2.29,2.29,0,0,1-1.95,0A2.31,2.31,0,0,1,27.5,61Z" transform="translate(-3.57 -2.31)" fill="none" stroke="#61efff" stroke-miterlimit="10" stroke-width="0.5"/>
      <path d="M30,57.49a1,1,0,0,1-.37,1.35l-2.21,1.28V57.84l1.23-.71A1,1,0,0,1,30,57.49Z" transform="translate(-3.57 -2.31)" fill="none" stroke="#61efff" stroke-miterlimit="10" stroke-width="0.5"/>
      <path d="M25.47,50.85V59l-.13.08a5.41,5.41,0,0,1-.69.33h0l-2.89-1.67A4.72,4.72,0,0,1,21.7,57V56.8l2.22-1.28a1,1,0,1,0-1-1.71l-1.23.71V48.68Z" transform="translate(-3.57 -2.31)" fill="none" stroke="#61efff" stroke-miterlimit="10" stroke-width="0.5"/>
      <path d="M21.76,57.72l2.89,1.67a2.26,2.26,0,0,1-1.94,0A2.21,2.21,0,0,1,21.76,57.72Z" transform="translate(-3.57 -2.31)" fill="none" stroke="#61efff" stroke-miterlimit="10" stroke-width="0.5"/>
      <path d="M24.28,54.17a1,1,0,0,1-.36,1.35L21.7,56.8V54.52l1.23-.71A1,1,0,0,1,24.28,54.17Z" transform="translate(-3.57 -2.31)" fill="none" stroke="#61efff" stroke-miterlimit="10" stroke-width="0.5"/>
      <path d="M19.73,55.66v.18l-.09-.13Z" transform="translate(-3.57 -2.31)" fill="none" stroke="#61efff" stroke-miterlimit="10" stroke-width="0.5"/>
      <path d="M19.73,48.24v7.42l-.09.05a8.58,8.58,0,0,1-1.48-4.57C18.16,49.54,18.79,48.49,19.73,48.24Z" transform="translate(-3.57 -2.31)" fill="none" stroke="#61efff" stroke-miterlimit="10" stroke-width="0.5"/>
      <path d="M19.73,55.84V57a8.72,8.72,0,0,0,.05.9,5.06,5.06,0,0,1-2,.43A3.66,3.66,0,0,1,16,57.81a4.55,4.55,0,0,1-2-4.18V43a12.23,12.23,0,0,1,5.62-9.72l4.54-2.62a1,1,0,0,1,1.35.36,1,1,0,0,1-.37,1.35L20.59,35A10.39,10.39,0,0,0,16,43V53.63a2.74,2.74,0,0,0,1,2.47,2.76,2.76,0,0,0,2.64-.36l0,0Z" transform="translate(-3.57 -2.31)" fill="none" stroke="#61efff" stroke-miterlimit="10" stroke-width="0.5"/>
    </g>
    <g>
      <path d="M38.17,67.19l3.34,1.93c1.87,1.08,3.38-.06,3.38-2.55a8.09,8.09,0,0,0-3.38-6.46l-8.32-4.8" transform="translate(-3.57 -2.31)" fill="none" stroke="#61efff" stroke-miterlimit="10" stroke-width="0.5"/>
      <line x1="27.65" y1="51.86" x2="23.88" y2="49.68" fill="none" stroke="#61efff" stroke-miterlimit="10" stroke-width="0.5"/>
      <line x1="21.9" y1="48.54" x2="18.13" y2="46.36" fill="none" stroke="#61efff" stroke-miterlimit="10" stroke-width="0.5"/>
      <path d="M19.73,48.24c-.94.25-1.57,1.3-1.57,2.9a8.5,8.5,0,0,0,1.48,4.57l.09.13" transform="translate(-3.57 -2.31)" fill="none" stroke="#61efff" stroke-miterlimit="10" stroke-width="0.5"/>
      <line x1="18.19" y1="55.4" x2="21.08" y2="57.08" fill="none" stroke="#61efff" stroke-miterlimit="10" stroke-width="0.5"/>
      <line x1="23.93" y1="58.72" x2="26.83" y2="60.39" fill="none" stroke="#61efff" stroke-miterlimit="10" stroke-width="0.5"/>
      <line x1="29.68" y1="62.04" x2="32.57" y2="63.71" fill="none" stroke="#61efff" stroke-miterlimit="10" stroke-width="0.5"/>
      <path d="M31.27,64.48a4.2,4.2,0,0,0,1.94,3.28,3.69,3.69,0,0,0,1.83.47,5.67,5.67,0,0,0,2.78-.83l3.33-1.93a1,1,0,0,0-1-1.71l-3.34,1.93a5.41,5.41,0,0,1-.69.33,2.26,2.26,0,0,1-1.94,0,2.25,2.25,0,0,1-1-1.7h0a4.63,4.63,0,0,1-.06-.77V52.93a10.4,10.4,0,0,1,4.63-8l4.54-2.62A1,1,0,0,0,42.72,41a1,1,0,0,0-1.35-.36l-4.54,2.62a12.22,12.22,0,0,0-5.61,9.72V63.58A6.43,6.43,0,0,0,31.27,64.48Z" transform="translate(-3.57 -2.31)" fill="none" stroke="#61efff" stroke-miterlimit="10" stroke-width="0.5"/>
      <path d="M31.22,62.3l-.13.07a4.29,4.29,0,0,1-.69.33,2.29,2.29,0,0,1-1.95,0A2.31,2.31,0,0,1,27.5,61h0a4.55,4.55,0,0,1-.05-.76V49.62a10.42,10.42,0,0,1,4.62-8L36.61,39a1,1,0,1,0-1-1.71l-4.53,2.62a12.25,12.25,0,0,0-5.62,9.73V60.27a6.33,6.33,0,0,0,.06.89,4.2,4.2,0,0,0,1.93,3.28,3.63,3.63,0,0,0,1.83.48,5.08,5.08,0,0,0,2-.44" transform="translate(-3.57 -2.31)" fill="none" stroke="#61efff" stroke-miterlimit="10" stroke-width="0.5"/>
      <path d="M33.19,63.43l2.22-1.27a1,1,0,0,0,.36-1.35,1,1,0,0,0-1.35-.36l-1.23.71" transform="translate(-3.57 -2.31)" fill="none" stroke="#61efff" stroke-miterlimit="10" stroke-width="0.5"/>
      <path d="M25.47,59l-.13.08a5.41,5.41,0,0,1-.69.33h0a2.26,2.26,0,0,1-1.94,0,2.21,2.21,0,0,1-.95-1.69A4.72,4.72,0,0,1,21.7,57V46.3a10.41,10.41,0,0,1,4.63-8l4.54-2.62a1,1,0,0,0-1-1.71l-4.54,2.62a12.24,12.24,0,0,0-5.61,9.73V57a8.72,8.72,0,0,0,.05.9,4.18,4.18,0,0,0,1.94,3.27,3.6,3.6,0,0,0,1.83.48,5.12,5.12,0,0,0,2-.44" transform="translate(-3.57 -2.31)" fill="none" stroke="#61efff" stroke-miterlimit="10" stroke-width="0.5"/>
      <path d="M27.45,60.12l2.21-1.28a1,1,0,1,0-1-1.71l-1.23.71" transform="translate(-3.57 -2.31)" fill="none" stroke="#61efff" stroke-miterlimit="10" stroke-width="0.5"/>
      <path d="M19.73,55.66l-.09.05,0,0A2.76,2.76,0,0,1,17,56.1a2.74,2.74,0,0,1-1-2.47V43a10.39,10.39,0,0,1,4.63-8l4.53-2.62A1,1,0,0,0,25.49,31a1,1,0,0,0-1.35-.36L19.6,33.26A12.23,12.23,0,0,0,14,43V53.63a4.55,4.55,0,0,0,2,4.18,3.66,3.66,0,0,0,1.82.47,5.06,5.06,0,0,0,2-.43" transform="translate(-3.57 -2.31)" fill="none" stroke="#61efff" stroke-miterlimit="10" stroke-width="0.5"/>
      <path d="M21.7,56.8l2.22-1.28a1,1,0,1,0-1-1.71l-1.23.71" transform="translate(-3.57 -2.31)" fill="none" stroke="#61efff" stroke-miterlimit="10" stroke-width="0.5"/>
    </g>
  </g>
</svg>
