<?xml version="1.0" encoding="utf-8"?>
<!-- Generator: Adobe Illustrator 24.1.0, SVG Export Plug-In . SVG Version: 6.00 Build 0)  -->
<svg version="1.1" id="Слой_1" xmlns="http://www.w3.org/2000/svg" xmlns:xlink="http://www.w3.org/1999/xlink" x="0px" y="0px"
	 viewBox="0 0 128.9 42" style="enable-background:new 0 0 128.9 42;" xml:space="preserve">
<style type="text/css">
	.st0{fill-rule:evenodd;clip-rule:evenodd;fill:#626262;}
</style>
<g id="页面-1">
	<g id="_x34_kmiles-ERP_x2F_English_xFF08_banner1_xFF09_" transform="translate(-1050.000000, -5983.000000)">
		<g id="编组-53" transform="translate(550.000000, 5983.000000)">
			<g id="spn">
				<g id="编组-102" transform="translate(500.000000, 0.000000)">
					<g id="编组" transform="translate(86.000000, 35.000000)">
						<g transform="translate(14.000000, 25.000000)">
							<g id="Clip-2">
							</g>
							<path id="Fill-1" class="st0" d="M-46-25.6c-4.4,3.2-10.8,4.8-16.3,4.8c-7.7,0-14.7-2.8-20-7.4c-0.4-0.4,0-0.9,0.5-0.6
								c5.7,3.2,12.7,5.1,20,5.1c4.9,0,10.3-1,15.2-3C-45.8-26.9-45.2-26.1-46-25.6"/>
						</g>
						<path id="Fill-3" class="st0" d="M-31.1-2.7c-0.5-0.7-3.4-0.3-4.7-0.2c-0.4,0-0.5-0.3-0.1-0.5c2.3-1.6,6.1-1.2,6.6-0.6
							s-0.1,4.4-2.3,6.3C-32,2.5-32.3,2.4-32.2,2C-31.7,0.7-30.6-2.1-31.1-2.7"/>
						<path id="Fill-5" class="st0" d="M-35.7-17v-1.8c0-0.3,0.2-0.5,0.4-0.5h7.7c0.3,0,0.5,0.2,0.5,0.5v1.5c0,0.3-0.2,0.6-0.6,1.1
							l-4,5.9c1.5,0,3,0.2,4.4,1c0.3,0.2,0.4,0.4,0.4,0.7v1.9c0,0.3-0.3,0.6-0.6,0.4c-2.4-1.3-5.5-1.4-8.1,0
							c-0.3,0.2-0.5-0.2-0.5-0.4v-1.8c0-0.3,0-0.8,0.3-1.2l4.6-6.9h-4C-35.5-16.5-35.7-16.7-35.7-17"/>
						<path id="Fill-7" class="st0" d="M-63.5-5.4h-2.3c-0.2,0-0.4-0.2-0.4-0.4v-12.7c0-0.3,0.2-0.5,0.5-0.5h2.1
							c0.2,0,0.4,0.2,0.4,0.4v1.7l0,0c0.5-1.6,1.6-2.4,3-2.4s2.3,0.7,3,2.4c0.5-1.6,1.8-2.4,3.2-2.4c1,0,2,0.4,2.6,1.4
							c0.7,1.1,0.6,2.6,0.6,4v8c0,0.3-0.2,0.5-0.4,0.5h-2.3c-0.2,0-0.4-0.2-0.4-0.5v-6.8c0-0.5,0-1.9-0.1-2.4
							c-0.2-0.9-0.7-1.1-1.4-1.1c-0.5,0-1.1,0.4-1.4,1c-0.2,0.6-0.2,1.7-0.2,2.4V-6c0,0.3-0.2,0.5-0.4,0.5h-2.3
							c-0.2,0-0.4-0.2-0.4-0.5v-6.8c0-1.4,0.2-3.5-1.4-3.5c-1.6,0-1.6,2-1.6,3.5V-6C-63.1-5.6-63.3-5.4-63.5-5.4"/>
						<path id="Fill-9" class="st0" d="M-20-16.7c-1.7,0-1.9,2.5-1.9,4s0,4.8,1.8,4.8s1.9-2.6,1.9-4.2c0-1.1,0-2.3-0.4-3.3
							C-18.7-16.4-19.2-16.7-20-16.7 M-20-19.2c3.5,0,5.4,3.1,5.4,7c0,3.8-2.1,6.8-5.4,6.8c-3.5,0-5.4-3.1-5.4-7
							C-25.4-16.2-23.5-19.2-20-19.2"/>
						<path id="Fill-11" class="st0" d="M-9.6-5.4h-2.2c-0.2,0-0.4-0.2-0.4-0.5v-12.7c0-0.2,0.2-0.4,0.4-0.4h2.1
							c0.2,0,0.4,0.2,0.4,0.4v1.9l0,0c0.6-1.7,1.5-2.6,3.1-2.6c1,0,2,0.4,2.6,1.5c0.6,1,0.6,2.7,0.6,4v8c0,0.2-0.2,0.4-0.4,0.4h-2.3
							c-0.2,0-0.4-0.2-0.4-0.4v-6.9c0-1.4,0.2-3.4-1.4-3.4c-0.5,0-1.1,0.4-1.3,1c-0.3,0.8-0.4,1.6-0.4,2.4v6.9
							C-9.2-5.6-9.4-5.4-9.6-5.4"/>
						<path id="Fill-13" class="st0" d="M-38.9-5.6c-0.2,0.1-0.4,0.2-0.6,0.1c-0.8-0.7-0.9-1-1.4-1.6c-1.3,1.4-2.3,1.8-4,1.8
							c-2,0-3.6-1.3-3.6-3.8c0-2,1.1-3.3,2.6-4c1.3-0.6,3.1-0.7,4.6-0.8v-0.3c0-0.6,0-1.3-0.3-1.8c-0.3-0.5-0.9-0.6-1.4-0.6
							c-0.9,0-1.7,0.5-1.9,1.5c0,0.2-0.2,0.4-0.4,0.5l-2.3-0.3c-0.2,0-0.4-0.2-0.4-0.5c0.5-2.9,3.1-3.7,5.4-3.7
							c1.2,0,2.7,0.3,3.7,1.2c1.2,1.1,1.1,2.6,1.1,4.2v3.8c0,1.1,0.5,1.6,0.9,2.3c0.2,0.2,0.2,0.5,0,0.6C-37.6-6.8-38.4-6-38.9-5.6
							L-38.9-5.6z M-41.4-11.5c0,0.9,0,1.7-0.5,2.6c-0.4,0.7-1,1.1-1.7,1.1c-0.9,0-1.5-0.7-1.5-1.8c0-2.1,1.8-2.5,3.6-2.5v0.6H-41.4
							z"/>
						<path id="Fill-15" class="st0" d="M-69.8-5.6c-0.2,0.1-0.4,0.2-0.6,0.1c-0.8-0.7-0.9-1-1.4-1.6c-1.3,1.4-2.3,1.8-4,1.8
							c-2,0-3.6-1.3-3.6-3.8c0-2,1.1-3.3,2.6-4c1.3-0.6,3.1-0.7,4.6-0.8v-0.3c0-0.6,0-1.3-0.3-1.8c-0.3-0.5-0.9-0.6-1.4-0.6
							c-0.9,0-1.7,0.5-1.9,1.5c0,0.2-0.2,0.4-0.4,0.5l-2.3-0.3c-0.2,0-0.4-0.2-0.4-0.5c0.5-2.9,3.1-3.7,5.4-3.7
							c1.2,0,2.7,0.3,3.7,1.2c1.2,1.1,1.1,2.6,1.1,4.2v3.8c0,1.1,0.5,1.6,0.9,2.3c0.2,0.2,0.2,0.5,0,0.6C-68.4-6.8-69.3-6-69.8-5.6
							L-69.8-5.6z M-72.2-11.5c0,0.9,0,1.7-0.5,2.6c-0.4,0.7-1,1.1-1.7,1.1c-0.9,0-1.5-0.7-1.5-1.8c0-2.1,1.8-2.5,3.6-2.5
							L-72.2-11.5L-72.2-11.5z"/>
						<path id="Fill-17" class="st0" d="M16.3-15.7c-0.7,0.8-1,1.9-1,3.3s0.3,2.5,0.9,3.4C17-8.1,18-7.6,19.4-7.6
							c1.3,0,2.4-0.5,3.1-1.4c0.6-0.8,1-1.9,1-3.2v-0.2c0-1.4-0.4-2.5-1.1-3.3c-0.7-0.9-1.7-1.3-2.9-1.3
							C18.1-17.1,17-16.6,16.3-15.7 M25.5-22.6v15.7c0,0.2-0.2,0.4-0.5,0.4h-1c-0.3,0-0.5-0.2-0.5-0.4v-1.5
							c-0.9,1.5-2.4,2.3-4.4,2.3c-1.9,0-3.5-0.6-4.5-1.9c-1-1.1-1.5-2.6-1.5-4.4c0-1.7,0.5-3.2,1.5-4.3c1.1-1.3,2.5-1.9,4.4-1.9
							s3.4,0.8,4.4,2.5v-6.6c0-0.2,0.2-0.4,0.5-0.4h1C25.3-23.1,25.5-22.9,25.5-22.6"/>
						<path id="Fill-33" class="st0" d="M9.7-11.4c0,1-0.5,1.8-1.3,2.6C7.5-8,6.5-7.6,5.3-7.6C4.6-7.6,4-7.8,3.5-8.2
							C3-8.6,2.8-9,2.8-9.6c0-1.8,1.4-2.7,4.1-2.8h2.8V-11.4z M10.6-17.8c-0.9-0.9-2.1-1.4-3.9-1.4c-0.5,0-1,0-1.5,0.1l0,0
							C4-19,2.8-18.4,1.9-17.9c-0.2,0.1-0.2,0.3-0.1,0.5l0.4,0.7c0.1,0.2,0.3,0.3,0.5,0.2c0.8-0.5,1.9-0.8,2.9-1.1
							c0.3-0.1,0.6-0.1,1-0.1c2.1,0,3.2,1,3.2,3.1v0.6H6.9c-1.8,0-3.3,0.3-4.3,1c-1.2,0.8-1.8,2-1.8,3.4c0,1,0.4,1.8,1.1,2.5
							c0.7,0.6,1.7,0.9,2.9,0.9C5.9-6.2,7-6.5,7.9-7c0.8-0.4,1.4-1,1.9-1.7V-7c0,0.3,0.2,0.5,0.5,0.5h0.8c0.3,0,0.5-0.2,0.5-0.5
							v-7.5C11.7-15.9,11.3-17,10.6-17.8L10.6-17.8z"/>
						<path id="Fill-35" class="st0" d="M27.1-8.4c0-0.3,0.3-0.5,0.5-0.3c1,0.6,2,0.8,3.1,0.8c1.7,0,2.9-0.6,2.9-1.7
							c0-0.5-0.2-0.9-0.6-1.2c-0.4-0.3-1.5-0.7-2.6-1.1c-1.4-0.5-2.3-1.1-2.7-1.6c-0.4-0.5-0.6-1.2-0.6-2c0-1.1,0.5-2.1,1.4-2.7
							c0.9-0.7,2.1-1,3.5-1c1,0,1.9,0.3,2.7,0.6c0.1,0.1,0.2,0.2,0.2,0.3v1.3c0,0.3-0.3,0.4-0.5,0.3c-0.8-0.4-1.7-0.7-2.7-0.7
							c-0.7,0-1.5,0.2-1.9,0.5c-0.5,0.3-0.8,0.8-0.8,1.3c0,0.5,0.2,0.9,0.5,1.2s1.3,0.6,2.4,1.1c1.4,0.5,2.4,1.1,2.8,1.6
							c0.5,0.5,0.7,1.2,0.7,2.1c0,1.1-0.5,2-1.4,2.7c-0.9,0.6-2.2,1-3.7,1c-1.2,0-2.3-0.2-3.2-0.6c-0.1-0.1-0.2-0.2-0.2-0.3v-1.6
							H27.1z"/>
					</g>
				</g>
			</g>
		</g>
	</g>
</g>
</svg>
