<svg id="a0b8defd-125e-491c-b3a2-b3e9c0aca100" data-name="Слой 1" xmlns="http://www.w3.org/2000/svg" viewBox="0 0 97.84 98.39">
  <g id="bc0332bf-ee63-4d89-8dfb-f2e16b3d3c7c" data-name="server">
    <g>
      <path d="M42.85,79.78v7L22.35,98.67v-7ZM25.92,94.3a2,2,0,0,0,.92-1.59c0-.58-.41-.82-.92-.53A2.06,2.06,0,0,0,25,93.77C25,94.36,25.42,94.59,25.92,94.3Z" transform="translate(-1.35 -0.71)" fill="none" stroke="#61efff" stroke-miterlimit="10" stroke-width="0.5"/>
      <path d="M42.85,70.14V77.2L22.35,89V82ZM25.92,84.61A2,2,0,0,0,26.84,83c0-.58-.41-.82-.92-.53A2.06,2.06,0,0,0,25,84.08C25,84.67,25.42,84.9,25.92,84.61Z" transform="translate(-1.35 -0.71)" fill="none" stroke="#61efff" stroke-miterlimit="10" stroke-width="0.5"/>
      <path d="M42.85,60.5v7.06L22.35,79.39v-7ZM25.92,74.92a2,2,0,0,0,.92-1.59c0-.58-.41-.82-.92-.53A2.06,2.06,0,0,0,25,74.39C25,75,25.42,75.21,25.92,74.92Z" transform="translate(-1.35 -0.71)" fill="none" stroke="#61efff" stroke-miterlimit="10" stroke-width="0.5"/>
      <path d="M42.85,60.5,22.35,72.34,1.85,60.5l20.5-11.83Zm-20.5,4.13L29.5,60.5l-7.15-4.12L15.21,60.5Z" transform="translate(-1.35 -0.71)" fill="none" stroke="#61efff" stroke-miterlimit="10" stroke-width="0.5"/>
      <polygon points="41.5 69.43 21 81.27 0.5 69.43 2.74 68.14 21 78.68 39.26 68.14 41.5 69.43" fill="none" stroke="#61efff" stroke-miterlimit="10" stroke-width="0.5"/>
      <polygon points="41.5 79.07 21 90.91 0.5 79.07 2.74 77.78 21 88.32 39.26 77.78 39.26 77.78 41.5 79.07" fill="none" stroke="#61efff" stroke-miterlimit="10" stroke-width="0.5"/>
      <polygon points="28.15 59.79 21 63.92 21 55.66 28.15 59.79" fill="none" stroke="#61efff" stroke-miterlimit="10" stroke-width="0.5"/>
      <path d="M26.84,73.33a2,2,0,0,1-.92,1.59c-.5.29-.91.06-.91-.53a2.06,2.06,0,0,1,.91-1.59C26.43,72.51,26.84,72.75,26.84,73.33Z" transform="translate(-1.35 -0.71)" fill="none" stroke="#61efff" stroke-miterlimit="10" stroke-width="0.5"/>
      <path d="M26.84,83a2,2,0,0,1-.92,1.59c-.5.29-.91.06-.91-.53a2.06,2.06,0,0,1,.91-1.59C26.43,82.2,26.84,82.44,26.84,83Z" transform="translate(-1.35 -0.71)" fill="none" stroke="#61efff" stroke-miterlimit="10" stroke-width="0.5"/>
      <path d="M26.84,92.71a2,2,0,0,1-.92,1.59c-.5.29-.91.06-.91-.53a2.06,2.06,0,0,1,.91-1.59C26.43,91.89,26.84,92.13,26.84,92.71Z" transform="translate(-1.35 -0.71)" fill="none" stroke="#61efff" stroke-miterlimit="10" stroke-width="0.5"/>
      <polygon points="21 90.91 21 97.96 0.5 86.12 0.5 79.07 21 90.91" fill="none" stroke="#61efff" stroke-miterlimit="10" stroke-width="0.5"/>
      <polygon points="21 81.27 21 88.32 0.5 76.48 0.5 69.43 21 81.27" fill="none" stroke="#61efff" stroke-miterlimit="10" stroke-width="0.5"/>
      <polygon points="21 71.63 21 78.68 0.5 66.85 0.5 59.79 21 71.63" fill="none" stroke="#61efff" stroke-miterlimit="10" stroke-width="0.5"/>
      <polygon points="21 55.66 21 63.92 13.85 59.79 21 55.66" fill="none" stroke="#61efff" stroke-miterlimit="10" stroke-width="0.5"/>
    </g>
    <g>
      <polygon points="21 71.63 0.5 59.79 21 47.96 41.5 59.79 21 71.63" fill="none" stroke="#61efff" stroke-miterlimit="10" stroke-width="0.5"/>
      <polygon points="21 63.92 13.85 59.79 21 55.66 28.15 59.79 21 63.92" fill="none" stroke="#61efff" stroke-miterlimit="10" stroke-width="0.5"/>
      <polyline points="41.5 59.79 41.5 66.85 21 78.68 0.5 66.85 0.5 59.79" fill="none" stroke="#61efff" stroke-miterlimit="10" stroke-width="0.5"/>
      <polyline points="39.26 68.14 41.5 69.43 21 81.27 0.5 69.43 2.74 68.14" fill="none" stroke="#61efff" stroke-miterlimit="10" stroke-width="0.5"/>
      <polyline points="41.5 69.43 41.5 76.48 21 88.32 0.5 76.48 0.5 69.43" fill="none" stroke="#61efff" stroke-miterlimit="10" stroke-width="0.5"/>
      <polyline points="39.26 77.78 41.5 79.07 21 90.91 0.5 79.07 2.74 77.78" fill="none" stroke="#61efff" stroke-miterlimit="10" stroke-width="0.5"/>
      <polyline points="41.5 79.07 41.5 86.12 21 97.96 0.5 86.12 0.5 79.07" fill="none" stroke="#61efff" stroke-miterlimit="10" stroke-width="0.5"/>
      <line x1="21" y1="55.67" x2="21" y2="63.92" fill="none" stroke="#61efff" stroke-miterlimit="10" stroke-width="0.5"/>
      <line x1="21" y1="71.63" x2="21" y2="78.68" fill="none" stroke="#61efff" stroke-miterlimit="10" stroke-width="0.5"/>
      <line x1="21" y1="81.27" x2="21" y2="88.32" fill="none" stroke="#61efff" stroke-miterlimit="10" stroke-width="0.5"/>
      <line x1="21" y1="90.91" x2="21" y2="97.96" fill="none" stroke="#61efff" stroke-miterlimit="10" stroke-width="0.5"/>
      <path d="M26.84,73.33a2,2,0,0,1-.92,1.59c-.5.29-.91.06-.91-.53a2.06,2.06,0,0,1,.91-1.59C26.43,72.51,26.84,72.75,26.84,73.33Z" transform="translate(-1.35 -0.71)" fill="none" stroke="#61efff" stroke-miterlimit="10" stroke-width="0.5"/>
      <path d="M26.84,83a2,2,0,0,1-.92,1.59c-.5.29-.91.06-.91-.53a2.06,2.06,0,0,1,.91-1.59C26.43,82.2,26.84,82.44,26.84,83Z" transform="translate(-1.35 -0.71)" fill="none" stroke="#61efff" stroke-miterlimit="10" stroke-width="0.5"/>
      <path d="M26.84,92.71a2,2,0,0,1-.92,1.59c-.5.29-.91.06-.91-.53a2.06,2.06,0,0,1,.91-1.59C26.43,91.89,26.84,92.13,26.84,92.71Z" transform="translate(-1.35 -0.71)" fill="none" stroke="#61efff" stroke-miterlimit="10" stroke-width="0.5"/>
    </g>
  </g>
  <g>
    <polyline points="48.12 55.59 49.79 54.63 49.79 59.03" fill="none" stroke="#61efff" stroke-miterlimit="10" stroke-width="0.5"/>
    <polyline points="73.36 41.02 75.03 40.06 75.03 44.46" fill="none" stroke="#61efff" stroke-miterlimit="10" stroke-width="0.5"/>
    <polyline points="81.73 36.18 83.4 35.22 83.4 39.62" fill="none" stroke="#61efff" stroke-miterlimit="10" stroke-width="0.5"/>
    <path d="M56.74,54.31c0-1.22-.86-1.71-1.91-1.1a4.21,4.21,0,0,0-1.9,3.3c0,1.21.85,1.71,1.9,1.1A4.23,4.23,0,0,0,56.74,54.31Z" transform="translate(-1.35 -0.71)" fill="none" stroke="#61efff" stroke-miterlimit="10" stroke-width="0.5"/>
    <path d="M62,51.28c0-1.22-.85-1.71-1.9-1.1a4.22,4.22,0,0,0-1.91,3.3c0,1.21.86,1.71,1.91,1.1A4.22,4.22,0,0,0,62,51.28Z" transform="translate(-1.35 -0.71)" fill="none" stroke="#61efff" stroke-miterlimit="10" stroke-width="0.5"/>
    <path d="M73.71,44.51c0-1.21-.86-1.71-1.91-1.1a4.22,4.22,0,0,0-1.9,3.3c0,1.22.85,1.71,1.9,1.1A4.22,4.22,0,0,0,73.71,44.51Z" transform="translate(-1.35 -0.71)" fill="none" stroke="#61efff" stroke-miterlimit="10" stroke-width="0.5"/>
    <path d="M82.09,39.67c0-1.22-.85-1.71-1.9-1.1a4.22,4.22,0,0,0-1.91,3.3c0,1.21.86,1.71,1.91,1.1A4.22,4.22,0,0,0,82.09,39.67Z" transform="translate(-1.35 -0.71)" fill="none" stroke="#61efff" stroke-miterlimit="10" stroke-width="0.5"/>
    <path d="M96,31.64c0-1.22-.86-1.71-1.91-1.1a4.19,4.19,0,0,0-1.9,3.3c0,1.21.85,1.7,1.9,1.1A4.23,4.23,0,0,0,96,31.64Z" transform="translate(-1.35 -0.71)" fill="none" stroke="#61efff" stroke-miterlimit="10" stroke-width="0.5"/>
    <polyline points="48.12 72.38 49.79 71.42 49.79 75.82" fill="none" stroke="#61efff" stroke-miterlimit="10" stroke-width="0.5"/>
    <polyline points="65.14 62.55 66.81 61.59 66.81 65.99" fill="none" stroke="#61efff" stroke-miterlimit="10" stroke-width="0.5"/>
    <polyline points="73.36 57.81 75.03 56.84 75.03 61.24" fill="none" stroke="#61efff" stroke-miterlimit="10" stroke-width="0.5"/>
    <polyline points="81.73 52.97 83.4 52.01 83.4 56.41" fill="none" stroke="#61efff" stroke-miterlimit="10" stroke-width="0.5"/>
    <polyline points="91.08 47.58 92.75 46.61 92.75 51.01" fill="none" stroke="#61efff" stroke-miterlimit="10" stroke-width="0.5"/>
    <path d="M64.66,66.52c0-1.21-.85-1.7-1.91-1.1a4.22,4.22,0,0,0-1.9,3.3c0,1.22.85,1.71,1.9,1.1A4.19,4.19,0,0,0,64.66,66.52Z" transform="translate(-1.35 -0.71)" fill="none" stroke="#61efff" stroke-miterlimit="10" stroke-width="0.5"/>
    <path d="M82.09,56.46c0-1.22-.85-1.71-1.9-1.1a4.2,4.2,0,0,0-1.91,3.3c0,1.21.86,1.7,1.91,1.1A4.22,4.22,0,0,0,82.09,56.46Z" transform="translate(-1.35 -0.71)" fill="none" stroke="#61efff" stroke-miterlimit="10" stroke-width="0.5"/>
    <polyline points="61.7 55.93 63.37 54.97 63.37 59.37" fill="none" stroke="#61efff" stroke-miterlimit="10" stroke-width="0.5"/>
    <polyline points="65.14 53.94 66.81 52.98 66.81 57.38" fill="none" stroke="#61efff" stroke-miterlimit="10" stroke-width="0.5"/>
    <polyline points="73.36 49.2 75.03 48.24 75.03 52.64" fill="none" stroke="#61efff" stroke-miterlimit="10" stroke-width="0.5"/>
    <polyline points="76.79 47.22 78.46 46.26 78.46 50.66" fill="none" stroke="#61efff" stroke-miterlimit="10" stroke-width="0.5"/>
    <path d="M62,59.46c0-1.21-.85-1.71-1.9-1.1a4.22,4.22,0,0,0-1.91,3.3c0,1.21.86,1.71,1.91,1.1A4.22,4.22,0,0,0,62,59.46Z" transform="translate(-1.35 -0.71)" fill="none" stroke="#61efff" stroke-miterlimit="10" stroke-width="0.5"/>
    <path d="M96,39.82c0-1.22-.86-1.71-1.91-1.1A4.21,4.21,0,0,0,92.2,42c0,1.21.85,1.7,1.9,1.1A4.23,4.23,0,0,0,96,39.82Z" transform="translate(-1.35 -0.71)" fill="none" stroke="#61efff" stroke-miterlimit="10" stroke-width="0.5"/>
    <polyline points="61.7 72.93 63.37 71.97 63.37 76.37" fill="none" stroke="#61efff" stroke-miterlimit="10" stroke-width="0.5"/>
    <polyline points="73.36 66.2 75.03 65.24 75.03 69.64" fill="none" stroke="#61efff" stroke-miterlimit="10" stroke-width="0.5"/>
    <polyline points="81.73 61.37 83.4 60.4 83.4 64.8" fill="none" stroke="#61efff" stroke-miterlimit="10" stroke-width="0.5"/>
    <ellipse cx="60.08" cy="77.56" rx="2.69" ry="1.56" transform="translate(-38.48 90.1) rotate(-60)" fill="none" stroke="#61efff" stroke-miterlimit="10" stroke-width="0.5"/>
    <path d="M82.09,64.85c0-1.21-.85-1.71-1.9-1.1a4.23,4.23,0,0,0-1.91,3.3c0,1.22.86,1.71,1.91,1.1A4.21,4.21,0,0,0,82.09,64.85Z" transform="translate(-1.35 -0.71)" fill="none" stroke="#61efff" stroke-miterlimit="10" stroke-width="0.5"/>
    <path d="M90.37,60.07c0-1.22-.85-1.71-1.9-1.1a4.22,4.22,0,0,0-1.91,3.3c0,1.21.86,1.71,1.91,1.1A4.22,4.22,0,0,0,90.37,60.07Z" transform="translate(-1.35 -0.71)" fill="none" stroke="#61efff" stroke-miterlimit="10" stroke-width="0.5"/>
    <line x1="61.89" y1="50" x2="66.95" y2="47.09" fill="none" stroke="#61efff" stroke-miterlimit="10" stroke-width="0.5"/>
    <line x1="84.62" y1="36.88" x2="89.45" y2="34.1" fill="none" stroke="#61efff" stroke-miterlimit="10" stroke-width="0.5"/>
    <line x1="51.53" y1="72.77" x2="57.86" y2="69.12" fill="none" stroke="#61efff" stroke-miterlimit="10" stroke-width="0.5"/>
    <line x1="68.75" y1="62.83" x2="73.84" y2="59.89" fill="none" stroke="#61efff" stroke-miterlimit="10" stroke-width="0.5"/>
    <line x1="84.91" y1="53.5" x2="91.02" y2="49.97" fill="none" stroke="#61efff" stroke-miterlimit="10" stroke-width="0.5"/>
    <line x1="94.33" y1="48.06" x2="97.72" y2="46.11" fill="none" stroke="#61efff" stroke-miterlimit="10" stroke-width="0.5"/>
    <line x1="46.98" y1="66.79" x2="55.22" y2="62.03" fill="none" stroke="#61efff" stroke-miterlimit="10" stroke-width="0.5"/>
    <line x1="68.22" y1="54.53" x2="73.37" y2="51.56" fill="none" stroke="#61efff" stroke-miterlimit="10" stroke-width="0.5"/>
    <line x1="81.26" y1="47" x2="89.59" y2="42.19" fill="none" stroke="#61efff" stroke-miterlimit="10" stroke-width="0.5"/>
    <line x1="46.98" y1="83.79" x2="54.62" y2="79.38" fill="none" stroke="#61efff" stroke-miterlimit="10" stroke-width="0.5"/>
    <line x1="65.41" y1="73.15" x2="72.9" y2="68.83" fill="none" stroke="#61efff" stroke-miterlimit="10" stroke-width="0.5"/>
    <line x1="90.69" y1="58.56" x2="97.72" y2="54.5" fill="none" stroke="#61efff" stroke-miterlimit="10" stroke-width="0.5"/>
  </g>
  <g>
    <g>
      <path d="M29.24,28.12a11.19,11.19,0,0,0-.1,1.52c0,2.38.85,4,2.23,4.77l5.83,3.14a4.35,4.35,0,0,1-2-3.1A8.4,8.4,0,0,1,35,32.8a16.14,16.14,0,0,1,7.3-12.64c.26-.15.53-.28.79-.4.57-5.51,4.39-11.72,9-14.4a9.79,9.79,0,0,1,2.71-1.09,5.23,5.23,0,0,1,3.52.34L52.57,1.5c-1.64-.88-3.87-.71-6.32.71-4.64,2.67-8.47,8.89-9,14.39a8.55,8.55,0,0,0-.79.41,14.68,14.68,0,0,0-4.9,5A16.24,16.24,0,0,0,29.24,28.12Z" transform="translate(-1.35 -0.71)" fill="none" stroke="#61efff" stroke-miterlimit="10" stroke-width="0.5"/>
      <path d="M35,32.8a8.4,8.4,0,0,0,.16,1.65,4.35,4.35,0,0,0,2,3.1l0,0a4,4,0,0,0,2.32.41,6.58,6.58,0,0,0,2-.59c.24-.12.48-.24.72-.38L60.86,26.3A13.8,13.8,0,0,0,67.1,15.48c0-3.85-2.61-5.49-5.9-3.79h0v-.08c0-.33,0-.66,0-1,0-3-1.06-5-2.78-6l-.09,0a5.23,5.23,0,0,0-3.52-.34,9.79,9.79,0,0,0-2.71,1.09c-4.64,2.68-8.46,8.89-9,14.4-.26.12-.53.25-.79.4A16.14,16.14,0,0,0,35,32.8Z" transform="translate(-1.35 -0.71)" fill="none" stroke="#61efff" stroke-miterlimit="10" stroke-width="0.5"/>
    </g>
    <g>
      <path d="M58.36,4.61l.09,0c1.72.92,2.78,3,2.78,6,0,.33,0,.66,0,1v.08h0c3.29-1.7,5.9-.06,5.9,3.79A13.8,13.8,0,0,1,60.86,26.3s-19,11-19.27,11.09a6.58,6.58,0,0,1-2,.59,4,4,0,0,1-2.32-.41l0,0" transform="translate(-1.35 -0.71)" fill="none" stroke="#61efff" stroke-miterlimit="10" stroke-width="0.5"/>
      <path d="M58.36,4.61a5.23,5.23,0,0,0-3.52-.34,9.79,9.79,0,0,0-2.71,1.09c-4.64,2.68-8.46,8.89-9,14.4-.26.12-.53.25-.79.4A16.14,16.14,0,0,0,35,32.8a8.4,8.4,0,0,0,.16,1.65,4.35,4.35,0,0,0,2,3.1l-5.83-3.14C30,33.68,29.14,32,29.14,29.64a11.19,11.19,0,0,1,.1-1.52A16.24,16.24,0,0,1,31.53,22a14.68,14.68,0,0,1,4.9-5,8.55,8.55,0,0,1,.79-.41c.56-5.5,4.39-11.72,9-14.39C48.7.79,50.93.62,52.57,1.5Z" transform="translate(-1.35 -0.71)" fill="none" stroke="#61efff" stroke-miterlimit="10" stroke-width="0.5"/>
    </g>
  </g>
</svg>
