<?xml version="1.0" encoding="utf-8"?>
<!-- Generator: Adobe Illustrator 24.1.0, SVG Export Plug-In . SVG Version: 6.00 Build 0)  -->
<svg version="1.1" id="Слой_1" xmlns="http://www.w3.org/2000/svg" xmlns:xlink="http://www.w3.org/1999/xlink" x="0px" y="0px"
	 viewBox="0 0 144.2 43" style="enable-background:new 0 0 144.2 43;" xml:space="preserve">
<style type="text/css">
	.st0{clip-path:url(#SVGID_2_);}
	.st1{fill:#3C8BD9;}
	.st2{clip-path:url(#SVGID_4_);}
	.st3{fill:#FABC04;}
	.st4{clip-path:url(#SVGID_6_);}
	.st5{fill:#34A852;}
	.st6{clip-path:url(#SVGID_8_);}
	.st7{clip-path:url(#SVGID_10_);}
	.st8{fill:#E1C025;}
	.st9{fill:#757575;}
</style>
<g>
	<g>
		<defs>
			<rect id="SVGID_1_" x="5" y="7.1" width="28.1" height="35"/>
		</defs>
		<clipPath id="SVGID_2_">
			<use xlink:href="#SVGID_1_"  style="overflow:visible;"/>
		</clipPath>
		<g class="st0">
			<path class="st1" d="M14.6,10.3c0.2-0.7,0.7-1.4,1.2-1.9c1.8-1.8,4.8-1.8,6.6,0.1c0.3,0.3,0.5,0.6,0.7,1c1.1,2,2.3,4,3.5,6
				l5.8,10.1c1.2,2.2,0.4,5.1-1.8,6.3c-2.2,1.2-5.1,0.4-6.3-1.8l0,0l-5.1-8.8c0-0.1-0.1-0.1-0.1-0.2c-0.2-0.2-0.3-0.3-0.4-0.5L15,14
				c-0.4-0.7-0.6-1.6-0.6-2.5C14.4,11.1,14.5,10.7,14.6,10.3"/>
		</g>
	</g>
</g>
<g>
	<g>
		<defs>
			<rect id="SVGID_3_" x="5" y="7.1" width="28.1" height="35"/>
		</defs>
		<clipPath id="SVGID_4_">
			<use xlink:href="#SVGID_3_"  style="overflow:visible;"/>
		</clipPath>
		<g class="st2">
			<path class="st3" d="M14.6,10.3c-0.1,0.4-0.2,0.8-0.2,1.2c0,0.9,0.2,1.8,0.7,2.6l3.7,6.4c0.1,0.2,0.2,0.4,0.3,0.6l-2,3.5
				l-2.8,4.9c-0.1,0-0.1,0-0.1,0c0-0.1,0-0.2,0-0.3c0.5-1.6,0.1-3.3-1.1-4.4c-0.7-0.7-1.6-1.2-2.6-1.4c-1.3-0.2-2.6,0.2-3.6,1
				c-0.2,0.1-0.3,0.4-0.5,0.5H6.3L7.9,22L14.6,10.3C14.6,10.4,14.6,10.4,14.6,10.3"/>
		</g>
	</g>
</g>
<g>
	<g>
		<defs>
			<rect id="SVGID_5_" x="5" y="7.1" width="28.1" height="35"/>
		</defs>
		<clipPath id="SVGID_6_">
			<use xlink:href="#SVGID_5_"  style="overflow:visible;"/>
		</clipPath>
		<g class="st4">
			<path class="st5" d="M6.3,24.8L7,24.2c2-1.6,4.9-1.2,6.5,0.8c0.4,0.6,0.7,1.2,0.9,1.9c0.1,0.8,0.1,1.6-0.2,2.4c0,0.1,0,0.1,0,0.2
				c-0.1,0.2-0.2,0.4-0.3,0.6c-0.9,1.6-2.6,2.5-4.4,2.3c-2.2-0.2-4-1.8-4.2-4c-0.2-1,0.1-2.1,0.6-3C6,25.2,6.1,25,6.3,24.8
				C6.3,24.9,6.2,24.8,6.3,24.8"/>
		</g>
	</g>
</g>
<g>
	<g>
		<defs>
			<rect id="SVGID_7_" x="5" y="7.1" width="28.1" height="35"/>
		</defs>
		<clipPath id="SVGID_8_">
			<use xlink:href="#SVGID_7_"  style="overflow:visible;"/>
		</clipPath>
		<g class="st6">
			<path class="st3" d="M6.3,24.8c-0.1,0-0.1,0.1-0.1,0.1S6.2,24.8,6.3,24.8L6.3,24.8"/>
		</g>
	</g>
</g>
<g>
	<g>
		<defs>
			<rect id="SVGID_9_" x="5" y="7.1" width="28.1" height="35"/>
		</defs>
		<clipPath id="SVGID_10_">
			<use xlink:href="#SVGID_9_"  style="overflow:visible;"/>
		</clipPath>
		<g class="st7">
			<path class="st8" d="M14.1,29.6c-0.1-0.1,0-0.1,0-0.2h0.1L14.1,29.6"/>
		</g>
	</g>
</g>
<path class="st9" d="M45,12.6c-4.6,0-8.3,3.6-8.4,8.2c0,4.6,3.8,8.3,8.4,8.2l0,0c2.2,0.1,4.2-0.8,5.7-2.3c1.3-1.4,2-3.3,1.9-5.2
	c0-0.5-0.1-1-0.2-1.5H45v2.2h5.4c-0.1,1.1-0.5,2.1-1.2,2.8c-1.1,1.1-2.6,1.7-4.2,1.7c-3.3-0.1-5.8-2.9-5.7-6.2
	c0.1-3.1,2.6-5.6,5.7-5.7c1.5,0,2.9,0.6,4,1.6l1.6-1.6C49.1,13.4,47.1,12.6,45,12.6z M58.7,18.4c-2.9,0-5.4,2.3-5.4,5.3
	s2.3,5.4,5.3,5.4c2.9,0,5.4-2.3,5.4-5.3v-0.1c0.1-2.9-2.2-5.3-5.1-5.3C58.8,18.4,58.8,18.4,58.7,18.4 M58.7,27c-1.7-0.1-3-1.5-3-3.2
	c0,0,0,0,0-0.1c-0.3-1.6,0.8-3.2,2.4-3.5c1.6-0.3,3.2,0.8,3.5,2.4c0.1,0.4,0.1,0.7,0,1.1C61.8,25.5,60.5,26.9,58.7,27L58.7,27
	 M70.1,18.4c-2.9,0-5.2,2.3-5.3,5.1c0,0.1,0,0.1,0,0.2c0,2.9,2.4,5.2,5.3,5.2s5.2-2.4,5.2-5.3C75.3,20.7,72.9,18.4,70.1,18.4
	 M70.1,27c-1.7-0.1-3-1.5-3-3.2c0,0,0,0,0-0.1c-0.3-1.6,0.8-3.2,2.4-3.5s3.2,0.8,3.5,2.4c0.1,0.4,0.1,0.7,0,1.1
	c0.1,1.7-1.1,3.1-2.8,3.2C70.2,27,70.1,27,70.1,27 M81.4,18.4c-2.9,0.2-5.1,2.7-5,5.6c0.2,2.7,2.3,4.8,5,5c1.1,0,2.1-0.4,2.8-1.2
	h0.1v0.8c0,2-1,3.1-2.8,3.1c-1.2,0-2.2-0.8-2.6-1.9l-2,0.8c0.8,1.9,2.6,3.1,4.7,3.1c2.7,0,5-1.6,5-5.5v-9.5h-2.2v0.8h-0.1
	C83.5,18.9,82.5,18.4,81.4,18.4 M81.6,26.9c-1.7,0-3-1.4-2.9-3.1v-0.1c-0.1-1.7,1.2-3.1,2.9-3.2l0,0c1.7,0.1,2.9,1.5,2.8,3.2l0,0
	c0.2,1.6-1,3-2.6,3.2C81.7,26.9,81.7,26.9,81.6,26.9 M88.1,13.2h2.3v15.6h-2.3C88.2,28.8,88.2,13.2,88.1,13.2z M96.6,18.4
	c-2.8,0-5.1,2.3-5.1,5.1c0,0.1,0,0.2,0,0.2c-0.1,2.9,2.2,5.3,5.1,5.3c0.1,0,0.1,0,0.2,0c1.8,0,3.5-0.9,4.4-2.3l-1.8-1.2
	C99,26.5,98,27,96.9,27c-1.1,0.1-2.2-0.6-2.6-1.6l7.2-3l-0.2-0.6C100.6,19.8,98.7,18.5,96.6,18.4 M93.9,23.6c-0.1-1.6,1.1-3,2.8-3.1
	l0,0c0.8-0.1,1.6,0.4,2,1.1L93.9,23.6L93.9,23.6z M105.5,28.6l5.3-14.2h2.1l5.3,14.2h-2l-1.4-3.9h-6l-1.4,3.9H105.5z M109.5,23.1
	h4.7l-2.3-6.4h-0.1L109.5,23.1L109.5,23.1z M120.1,27.4c-0.9-1-1.4-2.3-1.3-3.7c0-1.3,0.5-2.7,1.3-3.7s2-1.5,3.3-1.5
	c0.7,0,1.3,0.1,1.9,0.5c0.6,0.3,1,0.7,1.4,1.2h0.1l-0.1-1.3v-4.5h1.8v14.2h-1.7v-1.3h-0.1c-0.3,0.5-0.8,0.9-1.4,1.2
	c-0.6,0.3-1.3,0.5-1.9,0.5C122.1,28.9,120.9,28.4,120.1,27.4 M125.9,26.3c0.6-0.7,0.9-1.6,0.9-2.5s-0.3-1.8-0.9-2.5
	c-1.1-1.2-3-1.3-4.2-0.2c-0.1,0.1-0.1,0.1-0.2,0.2c-0.6,0.7-0.9,1.6-0.9,2.5s0.3,1.8,0.9,2.5c0.5,0.6,1.3,1,2.2,1
	C124.5,27.3,125.3,27,125.9,26.3 M136.9,28c-2,1.5-4.8,1.2-6.3-0.8c-0.3-0.3-0.5-0.7-0.6-1.1l1.6-0.7c0.2,0.6,0.6,1,1.1,1.4
	c0.4,0.3,1,0.5,1.5,0.5s1-0.1,1.5-0.4c0.3-0.2,0.6-0.5,0.6-0.9c0-0.6-0.5-1.1-1.4-1.4l-1.7-0.4c-1.9-0.5-2.8-1.4-2.8-2.8
	c0-0.9,0.4-1.7,1.1-2.1c0.8-0.6,1.8-0.8,2.8-0.8c0.8,0,1.6,0.2,2.4,0.6c0.7,0.4,1.2,1,1.5,1.7l-1.6,0.7c-0.2-0.4-0.5-0.8-0.9-1
	c-0.4-0.3-0.9-0.4-1.4-0.4s-0.9,0.1-1.3,0.4c-0.3,0.2-0.6,0.5-0.6,0.9c0,0.6,0.5,1,1.6,1.2l1.4,0.4c2,0.5,2.9,1.5,2.9,2.9
	C138.1,26.7,137.6,27.5,136.9,28"/>
</svg>
