<svg id="a560a7b8-e4cd-4a4a-bd9d-a5ac3b387d5b" data-name="Слой 1" xmlns="http://www.w3.org/2000/svg" viewBox="0 0 84.72 93.76">
  <g>
    <g>
      <path d="M48.5,3.55l3.49-2a.57.57,0,0,1,.56.05L96.7,27.07a2.07,2.07,0,0,1,.86,1.64V66.79a.76.76,0,0,1-.3.69l-3.49,2a.79.79,0,0,0,.27-.68V30.75a2.07,2.07,0,0,0-.86-1.65L49,3.61A.58.58,0,0,0,48.5,3.55Z" transform="translate(-13.09 -1.23)" fill="none" stroke="#61efff" stroke-miterlimit="10" stroke-width="0.5"/>
      <path d="M93.77,69.5l0,0a.57.57,0,0,1-.56,0L49,44a2.07,2.07,0,0,1-.86-1.64V4.27a.77.77,0,0,1,.3-.7h0a.58.58,0,0,1,.53.06L93.18,29.1A2.07,2.07,0,0,1,94,30.75V68.82A.79.79,0,0,1,93.77,69.5ZM87.23,43.55c2.23-1.29,2.23-5.46,0-9.31a11.47,11.47,0,0,0-4.13-4.31,4,4,0,0,0-3.93-.35,3.8,3.8,0,0,0-1.66,3.17v0a11.2,11.2,0,0,0,1.66,6.12C81.39,42.75,85,44.83,87.23,43.55ZM74.87,31.76a12.6,12.6,0,0,0-5.7-9.88,5.62,5.62,0,0,0-2-.74,2.89,2.89,0,0,0-3,1.31,5.07,5.07,0,0,0-.67,2.72,12.6,12.6,0,0,0,5.7,9.88C72.32,36.87,74.87,35.39,74.87,31.76Z" transform="translate(-13.09 -1.23)" fill="none" stroke="#61efff" stroke-miterlimit="10" stroke-width="0.5"/>
      <path d="M87.23,34.24c2.23,3.85,2.23,8,0,9.31s-5.84-.8-8.06-4.66a11.2,11.2,0,0,1-1.66-6.12l5.69,3.79-.1-6.63A11.47,11.47,0,0,1,87.23,34.24Z" transform="translate(-13.09 -1.23)" fill="none" stroke="#61efff" stroke-miterlimit="10" stroke-width="0.5"/>
      <path d="M79.17,29.58a4,4,0,0,1,3.93.35l.1,6.63-5.69-3.79v0A3.8,3.8,0,0,1,79.17,29.58Z" transform="translate(-13.09 -1.23)" fill="none" stroke="#61efff" stroke-miterlimit="10" stroke-width="0.5"/>
      <path d="M67.12,21.14l2,7.33-5.7-3.3a5.07,5.07,0,0,1,.67-2.72A2.89,2.89,0,0,1,67.12,21.14Z" transform="translate(-13.09 -1.23)" fill="none" stroke="#61efff" stroke-miterlimit="10" stroke-width="0.5"/>
      <path d="M69.17,35.05a12.6,12.6,0,0,1-5.7-9.88l5.7,3.3-2-7.33a5.62,5.62,0,0,1,2,.74,12.6,12.6,0,0,1,5.7,9.88C74.87,35.39,72.32,36.87,69.17,35.05Z" transform="translate(-13.09 -1.23)" fill="none" stroke="#61efff" stroke-miterlimit="10" stroke-width="0.5"/>
    </g>
    <g>
      <path d="M48.47,3.57a.77.77,0,0,0-.3.7V42.34A2.07,2.07,0,0,0,49,44L93.18,69.47a.57.57,0,0,0,.56,0" transform="translate(-13.09 -1.23)" fill="none" stroke="#61efff" stroke-linecap="round" stroke-linejoin="round" stroke-width="0.5"/>
      <path d="M93.77,69.5a.79.79,0,0,0,.27-.68V30.75a2.07,2.07,0,0,0-.86-1.65L49,3.61a.58.58,0,0,0-.53-.06" transform="translate(-13.09 -1.23)" fill="none" stroke="#61efff" stroke-linecap="round" stroke-linejoin="round" stroke-width="0.5"/>
      <path d="M77.51,32.75a3.8,3.8,0,0,1,1.66-3.17,4,4,0,0,1,3.93.35,11.47,11.47,0,0,1,4.13,4.31c2.23,3.85,2.23,8,0,9.31s-5.84-.8-8.06-4.66a11.2,11.2,0,0,1-1.66-6.12Z" transform="translate(-13.09 -1.23)" fill="none" stroke="#61efff" stroke-linecap="round" stroke-linejoin="round" stroke-width="0.5"/>
      <path d="M63.47,25.17a5.07,5.07,0,0,1,.67-2.72,2.89,2.89,0,0,1,3-1.31,5.62,5.62,0,0,1,2,.74,12.6,12.6,0,0,1,5.7,9.88c0,3.63-2.55,5.11-5.7,3.29A12.6,12.6,0,0,1,63.47,25.17Z" transform="translate(-13.09 -1.23)" fill="none" stroke="#61efff" stroke-linecap="round" stroke-linejoin="round" stroke-width="0.5"/>
      <polyline points="70.02 28.7 70.11 35.34 64.42 31.54 64.42 31.52" fill="none" stroke="#61efff" stroke-linecap="round" stroke-linejoin="round" stroke-width="0.5"/>
      <polyline points="54.03 19.91 56.08 27.24 50.38 23.95" fill="none" stroke="#61efff" stroke-linecap="round" stroke-linejoin="round" stroke-width="0.5"/>
      <path d="M56.18,40.86c1.34.77.94-3.59,3-2.42,1.69,1,2.28,4.62,3.58,5.37,2.91,1.68,2.7-6.28,5.67-4.57,1.38.8,2,2.83,2.62,4.88s1.27,4.09,2.71,4.92c1.16.67,1.5-1.91,2.71-1.22,2.19,1.27,2.7,5.26,4.64,6.39,2.21,1.27,2.5-2.69,4.69-1.42,1.58.91,2.7,3.9,3.33,7.9" transform="translate(-13.09 -1.23)" fill="none" stroke="#61efff" stroke-linecap="round" stroke-linejoin="round" stroke-width="0.5"/>
      <path d="M48.47,3.57h0l3.49-2a.57.57,0,0,1,.56.05L96.7,27.07a2.07,2.07,0,0,1,.86,1.64V66.79a.76.76,0,0,1-.3.69l-3.52,2" transform="translate(-13.09 -1.23)" fill="none" stroke="#61efff" stroke-linecap="round" stroke-linejoin="round" stroke-width="0.5"/>
      <line x1="40" y1="15.97" x2="45.56" y2="19.18" fill="none" stroke="#61efff" stroke-linecap="round" stroke-linejoin="round" stroke-width="0.5"/>
      <line x1="40" y1="19.22" x2="45.56" y2="22.43" fill="none" stroke="#61efff" stroke-linecap="round" stroke-linejoin="round" stroke-width="0.5"/>
      <line x1="40" y1="22.47" x2="45.56" y2="25.68" fill="none" stroke="#61efff" stroke-linecap="round" stroke-linejoin="round" stroke-width="0.5"/>
    </g>
  </g>
  <g>
    <g>
      <polygon points="65.68 82.76 65.68 87.11 62.55 87.78 60.8 89.53 60.8 87.64 60.25 85.73 62.55 83.43 65.68 82.76" fill="none" stroke="#61efff" stroke-miterlimit="10" stroke-width="0.5"/>
      <path d="M78.77,81.24V84l-3.13.67L73.34,87l.56,1.91-4.13,1.37L67.2,89H62.6L60,90.24,55.9,88.87,56.46,87l-2.3-2.3L51,84V81.24l3.14-.67,2.3-2.3-.56-1.9L60,75l2.58,1.23h4.6L69.77,75l4.13,1.38-.56,1.9,2.3,2.3Zm-9.53,3.55a2.71,2.71,0,0,0,1.41-2.18c0-1.83-2.57-3.32-5.75-3.32s-5.75,1.49-5.75,3.32a2.72,2.72,0,0,0,1.4,2.18,8.85,8.85,0,0,0,8.69,0Z" transform="translate(-13.09 -1.23)" fill="none" stroke="#61efff" stroke-miterlimit="10" stroke-width="0.5"/>
      <polygon points="61.1 89.53 61.1 91.99 56.98 93.36 56.98 89.01 61.1 87.64 61.1 89.53" fill="none" stroke="#61efff" stroke-miterlimit="10" stroke-width="0.5"/>
      <path d="M70.65,82.61a2.71,2.71,0,0,1-1.41,2.18,8.78,8.78,0,0,0-8.69,0,2.72,2.72,0,0,1-1.4-2.18c0-1.83,2.57-3.32,5.75-3.32S70.65,80.78,70.65,82.61Z" transform="translate(-13.09 -1.23)" fill="none" stroke="#61efff" stroke-miterlimit="10" stroke-width="0.5"/>
      <polygon points="56.69 89.01 56.69 93.36 54.11 92.13 49.51 92.13 46.93 93.36 46.93 89.01 49.51 87.78 54.11 87.78 56.69 89.01" fill="none" stroke="#61efff" stroke-miterlimit="10" stroke-width="0.5"/>
      <polygon points="47.23 89.01 47.23 93.36 43.1 91.99 43.1 87.64 47.23 89.01" fill="none" stroke="#61efff" stroke-miterlimit="10" stroke-width="0.5"/>
      <polygon points="43.37 85.73 42.81 87.64 42.81 89.53 41.07 87.78 37.93 87.11 37.93 82.76 41.07 83.43 43.37 85.73" fill="none" stroke="#61efff" stroke-miterlimit="10" stroke-width="0.5"/>
    </g>
    <g>
      <line x1="38.07" y1="82.76" x2="38.07" y2="87.11" fill="none" stroke="#61efff" stroke-linecap="round" stroke-linejoin="round" stroke-width="0.5"/>
      <polyline points="65.82 87.11 62.68 87.78 60.94 89.53" fill="none" stroke="#61efff" stroke-linecap="round" stroke-linejoin="round" stroke-width="0.5"/>
      <path d="M69.38,84.79a8.78,8.78,0,0,0-8.69,0" transform="translate(-13.09 -1.23)" fill="none" stroke="#61efff" stroke-linecap="round" stroke-linejoin="round" stroke-width="0.5"/>
      <polygon points="42.95 87.64 43.5 85.73 41.2 83.43 38.07 82.76 38.07 80.01 41.2 79.34 43.51 77.04 42.95 75.14 47.07 73.76 49.64 74.99 54.24 74.99 56.82 73.76 60.94 75.14 60.38 77.04 62.68 79.34 65.82 80.01 65.82 82.76 62.68 83.43 60.38 85.73 60.94 87.64 56.82 89.01 54.24 87.78 49.64 87.78 47.07 89.01 42.95 87.64" fill="none" stroke="#61efff" stroke-linecap="round" stroke-linejoin="round" stroke-width="0.5"/>
      <path d="M69.38,84.79a2.73,2.73,0,0,0,1.41-2.18c0-1.83-2.58-3.32-5.76-3.32s-5.75,1.49-5.75,3.32a2.71,2.71,0,0,0,1.41,2.18,8.85,8.85,0,0,0,8.69,0Z" transform="translate(-13.09 -1.23)" fill="none" stroke="#61efff" stroke-linecap="round" stroke-linejoin="round" stroke-width="0.5"/>
      <polyline points="42.95 87.64 42.95 91.99 47.07 93.36 49.64 92.13 54.24 92.13 56.82 93.36 60.94 91.99 60.94 87.64" fill="none" stroke="#61efff" stroke-linecap="round" stroke-linejoin="round" stroke-width="0.5"/>
      <line x1="47.07" y1="93.36" x2="47.07" y2="89.01" fill="none" stroke="#61efff" stroke-linecap="round" stroke-linejoin="round" stroke-width="0.5"/>
      <line x1="56.82" y1="93.36" x2="56.82" y2="89.01" fill="none" stroke="#61efff" stroke-linecap="round" stroke-linejoin="round" stroke-width="0.5"/>
      <polyline points="38.07 87.11 41.2 87.78 42.95 89.53" fill="none" stroke="#61efff" stroke-linecap="round" stroke-linejoin="round" stroke-width="0.5"/>
      <line x1="65.82" y1="87.11" x2="65.82" y2="82.76" fill="none" stroke="#61efff" stroke-linecap="round" stroke-linejoin="round" stroke-width="0.5"/>
    </g>
  </g>
  <g>
    <g>
      <path d="M54.12,63a14.93,14.93,0,0,1-4.34,12.79c-.25.21-.49.4-.73.57a4.31,4.31,0,0,1-3.87.82c-1.33-.45-2.37-1.79-2.79-3.9a14.92,14.92,0,0,1,4.35-12.79c1.59-1.4,3.2-1.83,4.52-1.42l.07,0a4,4,0,0,1,2.23,2.16A7.34,7.34,0,0,1,54.12,63Zm-5.23,8.34a6.24,6.24,0,0,0,1.82-5.35c-.35-1.77-1.73-2.24-3.09-1a6.28,6.28,0,0,0-1.82,5.35C46.16,72,47.54,72.47,48.89,71.29Z" transform="translate(-13.09 -1.23)" fill="none" stroke="#61efff" stroke-miterlimit="10" stroke-width="0.5"/>
      <path d="M51.81,50.23a21.94,21.94,0,0,1,1.75,11A4,4,0,0,0,51.33,59l-1.71-.58h0C37.11,52,33.69,66.87,35.69,75.05a4,4,0,0,1-2.34,4.66c-6.29,2.6-10.51-.18-12.86-2.73l-.16-.17a4.47,4.47,0,0,0-.45-.42c-3.83-3.17-6.54-10.78-6.54-16.13h0c0-5.89,1.06-10.57,3.74-13.86,7.62-5.53,15.23,2.38,18.42,4.71S47.49,59.5,51.81,50.23Z" transform="translate(-13.09 -1.23)" fill="none" stroke="#61efff" stroke-miterlimit="10" stroke-width="0.5"/>
      <path d="M50.71,65.94a6.24,6.24,0,0,1-1.82,5.35c-1.35,1.18-2.73.72-3.09-1.05a6.28,6.28,0,0,1,1.82-5.35C49,63.7,50.36,64.17,50.71,65.94Z" transform="translate(-13.09 -1.23)" fill="none" stroke="#61efff" stroke-miterlimit="10" stroke-width="0.5"/>
      <path d="M32.6,40.86c11.59,0,16.86,4.52,19.21,9.37-4.32,9.27-13.14,3.2-16.31.87S24.7,40.86,17.08,46.39C20,42.79,24.94,40.86,32.6,40.86Z" transform="translate(-13.09 -1.23)" fill="none" stroke="#61efff" stroke-miterlimit="10" stroke-width="0.5"/>
      <path d="M49.62,58.46l1.64.56c-1.32-.41-2.93,0-4.52,1.42a14.92,14.92,0,0,0-4.35,12.79c.42,2.11,1.46,3.45,2.79,3.9L41.76,76c-1.33-.46-2.37-1.79-2.79-3.9a14.94,14.94,0,0,1,4.35-12.8c1.62-1.41,3.25-1.84,4.59-1.39l1.71.58Z" transform="translate(-13.09 -1.23)" fill="none" stroke="#61efff" stroke-miterlimit="10" stroke-width="0.5"/>
      <path d="M47.93,57.89h0c-1.34-.45-3,0-4.59,1.39A14.94,14.94,0,0,0,39,72.07c.42,2.11,1.46,3.44,2.79,3.9l3.42,1.16a4.31,4.31,0,0,0,3.87-.82h0C45.34,81.72,40.57,82,38.82,81.9a27.4,27.4,0,0,0,.38,2.79c.24,1.56-.67,3.17-2.73,4.36-6.34,3.65-17,.63-16.09-4.46l.16-.42c.26-.57.49-1,.69-1.44A5.33,5.33,0,0,0,20.49,77c2.34,2.56,6.57,5.33,12.86,2.73a4,4,0,0,0,2.34-4.66c-2-8.18,1.42-23,13.93-16.59Z" transform="translate(-13.09 -1.23)" fill="none" stroke="#61efff" stroke-miterlimit="10" stroke-width="0.5"/>
    </g>
    <g>
      <path d="M20.49,77a5.33,5.33,0,0,1,.74,5.75c-.2.41-.43.87-.69,1.44l-.16.42c-1,5.09,9.75,8.11,16.09,4.46,2.06-1.19,3-2.8,2.73-4.36a27.4,27.4,0,0,1-.38-2.79c1.75.1,6.52-.18,10.23-5.59" transform="translate(-13.09 -1.23)" fill="none" stroke="#61efff" stroke-linecap="round" stroke-linejoin="round" stroke-width="0.5"/>
      <path d="M53.56,61.2a22.06,22.06,0,0,0-1.75-11c-2.35-4.85-7.62-9.37-19.21-9.37-7.66,0-12.57,1.93-15.52,5.53-2.68,3.29-3.73,8-3.74,13.86h0c0,5.35,2.71,13,6.54,16.13a4.47,4.47,0,0,1,.45.42" transform="translate(-13.09 -1.23)" fill="none" stroke="#61efff" stroke-linecap="round" stroke-linejoin="round" stroke-width="0.5"/>
      <path d="M51.33,59a3.94,3.94,0,0,1,2.23,2.16A7.34,7.34,0,0,1,54.12,63a14.93,14.93,0,0,1-4.34,12.79c-.25.21-.49.4-.73.57a4.34,4.34,0,0,1-3.87.82c-1.33-.45-2.37-1.79-2.79-3.9a14.92,14.92,0,0,1,4.35-12.79c1.59-1.4,3.2-1.83,4.52-1.42" transform="translate(-13.09 -1.23)" fill="none" stroke="#61efff" stroke-linecap="round" stroke-linejoin="round" stroke-width="0.5"/>
      <path d="M50.71,65.94a6.24,6.24,0,0,1-1.82,5.35c-1.35,1.18-2.73.72-3.09-1.05a6.28,6.28,0,0,1,1.82-5.35C49,63.7,50.36,64.17,50.71,65.94Z" transform="translate(-13.09 -1.23)" fill="none" stroke="#61efff" stroke-linecap="round" stroke-linejoin="round" stroke-width="0.5"/>
      <line x1="36.53" y1="57.24" x2="38.24" y2="57.82" fill="none" stroke="#61efff" stroke-linecap="round" stroke-linejoin="round" stroke-width="0.5"/>
      <line x1="34.84" y1="56.66" x2="36.53" y2="57.23" fill="none" stroke="#61efff" stroke-linecap="round" stroke-linejoin="round" stroke-width="0.5"/>
      <path d="M47.93,57.89h0c-1.34-.45-3,0-4.59,1.39A14.94,14.94,0,0,0,39,72.07c.42,2.11,1.46,3.44,2.79,3.9l3.42,1.16" transform="translate(-13.09 -1.23)" fill="none" stroke="#61efff" stroke-linecap="round" stroke-linejoin="round" stroke-width="0.5"/>
      <path d="M17.08,46.39c7.62-5.53,15.23,2.38,18.42,4.71s12,8.4,16.31-.87" transform="translate(-13.09 -1.23)" fill="none" stroke="#61efff" stroke-linecap="round" stroke-linejoin="round" stroke-width="0.5"/>
      <path d="M20.33,76.81l.16.17c2.35,2.55,6.57,5.33,12.86,2.73a4,4,0,0,0,2.34-4.66c-2-8.18,1.42-23,13.93-16.59h0" transform="translate(-13.09 -1.23)" fill="none" stroke="#61efff" stroke-linecap="round" stroke-linejoin="round" stroke-width="0.5"/>
    </g>
  </g>
</svg>
