<svg id="a5e10a40-cf4d-47de-8a9c-bd9bfb272498" data-name="Слой 1" xmlns="http://www.w3.org/2000/svg" viewBox="0 0 695.94 568.28">
  <path d="M422.5,151.34c-.39-.49-.71-1.34-1.49-.46a17.54,17.54,0,0,0-1.08,1.62c-.47-.76-1.3-1.25-.88-2.07.78-1.51-.06-2.23-1.07-3.13a36.86,36.86,0,0,1-12.45-26A31.87,31.87,0,0,1,408,105.81a2.51,2.51,0,0,0,.34-2.08c-3.76,1.56-5.93,4.78-8.55,8a6.58,6.58,0,0,1,.23-4.44c.73-.09,1.42-.23,1.35-1.22,1.88-.9,2.45-3,4-4.26.16.73.15,1.69,1.36,1,.39-.29.41-.59,0-.91V102c1.7.13,3.42-.54,4-1.73,1.52-3.31,3.85-6.06,6-9a22.72,22.72,0,0,0,3.65-5.77,1.21,1.21,0,0,0,.38-1.39c1.17,0,.34-.81.51-1.22.63.16.9,0,.62-.66.14.27.34.34.57.14.05,0,.07-.22,0-.25-.25-.18-.41,0-.56.18l-.6.64c-.17.41-.34.82-.5,1.24a1,1,0,0,0-.39,1.36l0,0-1.91-.38a.4.4,0,0,0-.09-.49c2.63-5.36,6.45-9.44,12.34-11.28-2,2.87-6.34,3.46-7.58,7.69a11.69,11.69,0,0,0,1.09-.75c5.16-4.77,11.43-6.69,18.26-6.55,3.95.08,8,.12,11.84,1.5.59.21,1.39.86,2.15-.2-2-1.77-5.12-.84-6.85-2.94a1.19,1.19,0,0,1,1.46-.44,75.24,75.24,0,0,1,8.61,3c1.63.77,3.91.79,4.69,3-1,.79-1.51-.22-2.16-.56-2.14-1.12-3.48-1.53-5.36-1.32l7.19,3.31,1.3.48a1.09,1.09,0,0,0,1.37.48l-.08-.07c0,.85.81.89,1.2,1.35l1.1.87c.36.29.46.58,0,.84-1.92-.67-3.79-1.5-5.75-2-3.23-.8-6.35-.64-8.84,2a2.72,2.72,0,0,1-1.92.84,2.12,2.12,0,0,1,.56-1.48l-.1.08c.57-.52,1.15-1,1.69-1.55.34-.34.21-.66-.16-.91h0c2.15.27,4.16-.54,6.3-.88-4.4-1.42-8.71-3.13-13.75-2.56.88-1.2,2-.27,2.56-1.22a27.1,27.1,0,0,0-13,.13,23.64,23.64,0,0,0-10,5.28c-.41.36-1.25.8-.44,1.58l.06-.08c-.79-.33-.64.23-.63.65l.09.72c-5.59,4.36-8.89,10.61-13.22,15.88.53,1,1.93-.25,2.15,1.15-1,1.18-2.89.58-3.9,1.73s-1.16,2.67-1.83,4a6,6,0,0,0-.46,2.28c-.13,1.54,0,3.22-.61,4.58-1,2.24-.18,4.09.49,6.11.63-1.18,2.4-1.84,1.72-3.4a2.23,2.23,0,0,1,.81-2.82c1.78-1.67,3.67-3.21,5.53-4.8.37-.32.77-.62,1.26-.18-.05.09-.14.18-.13.25a2.81,2.81,0,0,0,.16.49c.69.06,1.21.41.86,1.11s-.41,1.52-1.28,1.85c-.31.12-.72.71-.3.84,2.21.67.61,1.07,0,1.75-2.21,2.44-5.15,4.08-7.19,6.68-1.45,1.83-2.41,3.83-1.89,6.27,1.22,5.76,4.25,10.62,7.77,15.18a17.46,17.46,0,0,0,4.53,4.21,12,12,0,0,0,2.61-6.12c.29-1.69-2.14-1.49-2.55-2.87l.68-.73a1.31,1.31,0,0,0,.28.09c2.9.1,2.89.1,3.51,2.89.17.74.57,1.25,1.44,1s1.52-.48,1.92.62c.24.68.78.76,1.41.4a1.23,1.23,0,0,1,1.73.18l.07.1c.49.89-.45,1.36-.93,1.93a1.67,1.67,0,0,1-1.59.52c-.75-.09-1.58.19-1.64.91-.16,1.89-2,3.1-2,5.18,2,.33,3.68,1.59,5.51,2.43,5.81,2.67,18.42,4.48,25.55,0,0,.07-.09.14-.07.2a.21.21,0,0,0,.15.14,7,7,0,0,0,3-1.06c2.28-1.09,4.52-2.26,6.78-3.4a3.58,3.58,0,0,1,.26.29c-2.64,3.26-6.44,4.55-10.2,5.86-6.52,2.25-13.2,2.3-19.94,1.09,0,2.57,0,2.57,2,3.4a5.73,5.73,0,0,1,.81.33c.72.42,2.1.67,1.63,1.66-.53,1.16-1.48,0-2.18-.29-2.65-1.21-5.29-2.47-7.92-3.73-.53-.25-1.43-.62-1.42-.92,0-2.81-3-2.81-4-4.54C424.46,151.56,423.41,151.66,422.5,151.34Zm-8.09-37.2c.6.32,1.08.43.92-.54.15.29.36.33.59.1.05,0,.08-.23.05-.25-.28-.17-.45,0-.57.23l-.93.45.31.61c.07-.06.2-.13.19-.17A.53.53,0,0,0,414.41,114.14ZM435.3,157a2.61,2.61,0,0,0-.51-.59c-1-.65-5-1.23-4.92-.84.24,2,2.24,2.1,3.52,3,.85.51,2.07-.47,1.93-1.57ZM423,149.75c.88-1.93,2-3.35,1.5-5.28-.51,1.61-2.92,2.65-1.48,5.28Z" transform="translate(-0.28 0.07)" fill="#fff"/>
  <path d="M450.08,165.88c1.6-.43,3.22-.82,4.8-1.31.84-.25,2-.21,1.56-1.81-.21-.72.7-.8,1.27-.76,5.54.41,7.33-3.9,9.59-7.61a.66.66,0,0,0,0-.78c-.6-1-.55-1,.35-1.41,1.23-.59,1.29-1.72,1.34-2.87,0-.88-.54-.87-1.15-.85v-1.21a1,1,0,0,0,.61-.76c1.3.4,1.18-.51,1.19-1.29a28,28,0,0,0-3.22-13.74,6.25,6.25,0,0,1-1-3.54v0a3.13,3.13,0,0,1,2.5,2.17c1.87,4.28,3.37,8.66,3.41,13.41q.42.48.63-.12a.51.51,0,0,1,.4-.4,1.47,1.47,0,0,1,1.47.87,29.34,29.34,0,0,0-1.69,2.72c-.62,1.27-1,2.45,0,3.93a7.61,7.61,0,0,1,.87,4,2.85,2.85,0,0,0,2.64,2.94c1.62.35,3.21.75,4.85,1a51.47,51.47,0,0,1,8.35,1.5c1.64.49,3.2-.69,4.73.27a8.52,8.52,0,0,0,4.47,1.07,8.21,8.21,0,0,1,4.36,1.46c1.33.88,1.87,2.21.82,3.3-1.4,1.45-1.23,3.6-2.84,5-1.41,1.24-2.29,3.11-3.55,4.6a45.38,45.38,0,0,0-3.66,4.94c-2.08,3.28-4.85,6-6.9,9.36-.94,1.53-2.21,3.63-4.72,3.87-.95.1-1.24,1.62-1.71,3.85a5.59,5.59,0,0,1-2,3.08,2.2,2.2,0,0,1-2.69.47c0-.85.59-1.6.45-2.49-.09-.55.25-1,.88-.72.44.17.65.18.81-.33a13.51,13.51,0,0,1,2.72-5.38c-1.6-.11-3.09.55-3.1-1.45,0-.33-1.72-.92-3.06-.28.57-2.16,2.06-3.3,3.26-4.63l.92.16c.25.51.34.11.47-.08l-.06.07c.77-.18.71-1.59,1.84-1.25a1.66,1.66,0,0,1,.16,1.91c-1.14,1.73.68,1.93,1.38,2.59.95.91,1.56,0,2.09-.71,1.71-2.27,3.3-4.62,5.11-6.8,2.28-2.75,4.13-5.84,6.93-8.22,1.22-1,3-2.44,1.92-4.73-1,.1-1.91,1.78-2.75.58s-1.47-.45-2,0a11.37,11.37,0,0,0-1.46,2.18l-.45.77a1.65,1.65,0,0,0-1.09,1.42c-.12.58.38.41.69.44.16.91-.83,1.8-1.06,1.54-1.49-1.73-1.86.18-2.23.74a41.67,41.67,0,0,1-5.13,6.27c-.51-.7-.17-1.22.33-1.75a10.85,10.85,0,0,0,2.11-3.35c1-1.3,2-2.59,2.9-3.93a.71.71,0,0,0,0-1,.74.74,0,0,0-.27-.16c-.59-.3-1-.63-1.16.34h0c-.69-1.24.32-2,.86-2.86.12-.2.39-.46.68-.15,1.2,1.28,1.49,0,2.11-.67s.39-1.76,1-2.38c1-1,1.2-3.1,3.49-2.26.67.24,1-1.18,1.94-1a.91.91,0,0,1,.93.55c.17.43-.09.57-.34.67A1.32,1.32,0,0,0,496,166c-.07.54,0,1,.71.8.53-.16.93-.2.94.54,0,.47-.58,1.21.5,1.22.63,0,1.41-.27,1.36-.84-.14-1.61.88-2.17,2.56-2.63-2-1.4-3.24-2.39-5.55-2.2s-5-.72-7.47-1c-4.24-.55-8.43-1.41-12.65-2.08-4-.63-4.69-1.26-5.27-5.23a10.69,10.69,0,0,0-.42-1.36c-1.63,1.45-1.86,3.58-3.53,4.85a24.85,24.85,0,0,0-4.24,4.15A3.63,3.63,0,0,0,465,163.7c1.45.45,1.62,1.48.83,2.45s-.78,2.36-1.08,3.56h-1c.62-1.86-.57-3.42-.89-5.12-.2-1-1.46-1.42-2.63-.68-2.08,1.33-4.9,1.46-6.27,3.93-.24.42-.78.43-1.25,0a2.84,2.84,0,0,0-2.22-.53,21.63,21.63,0,0,1-6.26-.57v.15a3.56,3.56,0,0,1,2.9-.73A6,6,0,0,0,450.08,165.88Z" transform="translate(-0.28 0.07)" fill="#fff"/>
  <path d="M419,36.12c1-.11,1.56-1,2.33-1.38s1.59.8,2.62.59a18.32,18.32,0,0,1,2.86-.35c1.21,0,2.14.1,2.35-1.69.19-1.59,1.65-2.24,3.33-1.79v1c-.07.06-.17.11-.21.19a.26.26,0,0,0,.07.22A12.61,12.61,0,0,0,439,34.28h-.09c.65.92,1.76.72,2.62,1A104.78,104.78,0,0,0,453.41,38c.65.11.89,0,.84-.66l.05-.61c2.54.41,2.54.41,2.14,3.34l-2.18.16a103.22,103.22,0,0,0-18.32-3.83,12.13,12.13,0,0,0-2.33-.17c-.88.05-1.05.73-1.14,1.44a1,1,0,0,0,.91,1.24,36.65,36.65,0,0,1,5.58,1.8c-2,1.12-4.11.78-6.11.37-2.75-.57-2.75-.69-4.19,2.22a100.58,100.58,0,0,0,12.47,3c1.81.29,3.53,1,5.48.83.9-.07,1.55,1.24,1.64,2.48.31,4.17.72,8.33.7,12.51V63c0,.64-.15,1.58.88,1.45.7-.09.65-.89.51-1.45a5.9,5.9,0,0,1,.55-4.52h.94c.31.49,0,1.18.69,1.79.74-1.42,1.76-2.36,1.88-4.3.2-3.49.2-7,.42-10.47,0-.37.34-.41.61-.47.06.94-.26,2,.43,3a7,7,0,0,0,.07-3.35c.2-.69-.19-1.49.76-2.11,0,3.15.15,6.32-.05,9.46-.12,1.82.93,3.85-.75,5.5-.33.32.26.62.39.93.88,2.06.43,2.91-1.71,3.07a2.34,2.34,0,0,0-1.83.67,31.26,31.26,0,0,0-4.43,6.16l8.33,1.83,1.27.54c.92.17.81-1,1.64-1.22-.19,1.31.61,1.83,1.61,2.34a109.31,109.31,0,0,1,9.73,5.34,63,63,0,0,1,12.68,10.75c1.25,1.37,1.43,1.38,2.69,0l9.33-10.46c.16-.18.53-.17.78-.24.64.67.1,1.14-.25,1.53-2.37,2.72-4.8,5.39-7.17,8.11-.9,1-1.72,2.12-2.54,3.21a1.16,1.16,0,0,0,.11,1.59c.43.5,1,.83,1.49.32.79-.82,1.78-.65,2.72-.82v.77L488,93.6A33.68,33.68,0,0,1,493.47,106l-1,.12a.84.84,0,0,1-.18-.23c-3.55-10.52-10.38-18.73-19-25.27a53.09,53.09,0,0,0-24.72-10.7c-7.08-1-13.95-.65-20.5,2.57a35.59,35.59,0,0,0-7.74,5.67l-.43-.47c.87-1.8,2.53-2.87,4-4a20.75,20.75,0,0,0,3.43-3.39l.77.5a41.05,41.05,0,0,1,12.24-2.6c2.15.54,2.24.5,2.67-1.09l1.46.15c1.91.22,2.62-.3,2.86-2.12a5.71,5.71,0,0,0,.1-1.75c-.52-2.77.3-5.58-.23-8.36a7.75,7.75,0,0,1,.09-2.63c.44-2.63-.06-3.54-2.74-3.85a94,94,0,0,1-14.74-3.39,6.5,6.5,0,0,0-3.78.18c-.44-.71-1.13-.42-1.74-.43,0-1.75,1.47-2.67,2.24-4a8.15,8.15,0,0,1,1.75-2,1.76,1.76,0,0,0,.58-2.09c-.29-.92-1.21-.63-1.76-.54-1.93.34-3.9,0-5.81.59A10.58,10.58,0,0,1,419,37Z" transform="translate(-0.28 0.07)" fill="#fff"/>
  <path d="M490.17,131.33c-.07,2.1,1.09,3.18,3,3.62h-.08c-.23.68.24.64.66.66l-.07-.07c0,.44.07.8.66.66l-.08-.07c-.16.6.22.66.66.66v-.08c.25,1.52,1.69,1.92,2.62,2.79s2.14,1.86,3.22,2.78l.63.74,2.15,2c.61.55,1.18,1.1,1.54-.26.13-.48.62-.36.9,0,.71.9,1.15,1.93.35,2.92-1.05,1.3-1.15,2.86-1.49,4.36a1.19,1.19,0,0,0-.53,0c-.32-.49,0-1.19-.53-1.65-3.81,1.37-5.4,5.18-8.41,7.71.38-1.14-1.6-1.44-.66-2.7.25-.35-.08-.66-.4-1-3.7-3.39-7.38-6.81-11.1-10.18-.57-.52-1-1.26-2.24-.82-.82.31,0-.55-.1-.86-.23-1-.62-.75-1-.1h0c-.21-.34-.39-.81-.12-1a1.82,1.82,0,0,0,.38-2.53,1.63,1.63,0,0,0-.17-.2c-.94-1.14-1.57.54-2.44.48-.58-.06-1.17-.11-1.41-.78a43.17,43.17,0,0,1,5.29-6.89c.58,1.57,1.44,1.78,2.52.64.39-.42,1-.65,1-1.33,2.21-1.7,4.32-3.47,4.89-6.58a9.48,9.48,0,0,0-4.82,6.63c-.66-.25-1.13.18-1.6.48a1.17,1.17,0,0,1-1.57-.16,1.3,1.3,0,0,1,.48-1.55,5.9,5.9,0,0,0,1-1.06c1.28-1.7,3.3-3.27,3.63-5.14a66.46,66.46,0,0,0,1.34-7,24.48,24.48,0,0,0-.94-7.8c-1.65-6.23-5.34-11.26-9.42-16.06h0c-1.28-1.79-3.2-3-4.28-5l.17-1.53c.23,0,.57.13.59-.21,0-.52-.34-.4-.65-.32l.07.08c.19-.59-.35-.69-.65-1l.27-1c2,.28,3.36,1.75,4.53,3,3.89,4.12,8,8.21,10,13.69-.21.15-.48.52-.65.16-.76-1.6-2.28-2.59-3.2-4.05-.3-.24-.32-1.07-.86-.66s-.09.83.43,1c.43.87.84,1.75,1.31,2.61,2.9,5.34,5.81,10.67,5,17.11a1.24,1.24,0,0,0,.88,1.53l.19,0a15,15,0,0,0-.05-4.18A38.39,38.39,0,0,0,487.43,102a1.19,1.19,0,0,1,.31-1.67.57.57,0,0,1,.13-.08c1.45,1,1.74,2.76,2.37,4.24a34.87,34.87,0,0,1,2.62,9.83c0,.46-.25,1.37.73,1.18.8-.15.58-.91.46-1.44a4.84,4.84,0,0,1-.21-2h1c.06.71.13,1.42.19,2.13v1.52c.55,1.68-.23,3.48.47,5.15h-1.74c-.4-.52-1-1-1.22,0-.62,2.65-1.89,5-2.74,7.61-.22.66-.59,1.3.39,1.65A12.4,12.4,0,0,0,490.17,131.33ZM479.91,91.08l-.67-.61c-.22-.41-.39-.9-1-.92a.47.47,0,0,0-.23.37,1,1,0,0,0,1,.87.54.54,0,0,0,.43.63h.1a.57.57,0,0,0,.53.61h0c.24.59.4,1.27,1.29,1.08-.29.4,0,.64.25.9s.5,1.09.88.77c.63-.52-.09-.85-.5-1.13-.07-.38-.23-.64-.68-.5.17-.76-.4-1.12-.85-1.54Zm1,45.08c2.68-.85,4.11-.43,5.73,1.87a3.2,3.2,0,0,0,.85.79,36.12,36.12,0,0,1,6.15,5.36c1.34,1.42,2.76,2.75,4.21,4.06.4.35.92,1,1.52.65a5.24,5.24,0,0,0,2.31-2.58c.39-.95-.8-1.39-1.55-1.78a4,4,0,0,1-1.32-1.12,51,51,0,0,0-5.63-5.85c-1.72-1.56-3.64-3-4.81-5.07-.45-.81-1.41-.84-1.69-.31-1.07,1.95-2.9,2.4-4.77,2.94-.38.12-.65.69-1,1Zm4.5,2.65c-.61.93-1.06,1.55-1.44,2.22a1.3,1.3,0,0,0,.23,1.82,141.8,141.8,0,0,1,10.65,10c.8.87,1.54.57,2.16-.28s.87-1.67-.17-2.51a22.65,22.65,0,0,1-3.64-3.35A70,70,0,0,0,485.41,138.81Zm-1.29-.58c-1.37-.43-2.33-.63-2.88.44-.11.21.35,1,.68,1.1,1.13.36,1.39-.67,2.19-1.57Zm-5.92-48.8c-.75-1.53-1.78-1.83-2.72-3,.23,1.81,1.11,2.3,2.71,3Zm16,29c-.13-.28-.36-.41-.63-.26a.53.53,0,0,0-.2.45.41.41,0,0,0,.49.31.35.35,0,0,0,.13-.05c.09-.07.11-.32.18-.48Z" transform="translate(-0.28 0.07)" fill="#fff"/>
  <path d="M582.65,123.12c-5.45,0-10.9.11-16.35,0-10.19-.26-20.38.19-30.58,0-3.2-.07-6.41,0-9.61.09-2,.07-3.84-.61-5.75-.93a1.15,1.15,0,0,1-1.08-1.16c-.1-1.07-.2-2.14-.21-3.21a63.49,63.49,0,0,0,0-7.3c-.21-1.65.18-1.92,1.7-1.85,6.12.25,12.24-.07,18.35.08,6.43.17,12.85-.19,19.28.15,4.56.23,9.14,0,13.7-.08,8.59-.08,17.17-.19,25.75-.25,3.75,0,4.72,1,4.74,4.9,0,2.63,0,5.27.12,7.9.06,1.4-.46,1.88-1.85,1.86H582.67Zm-22.54-12.77H522.85c-1.4,0-2.21.52-2.12,2.09.12,2.24.22,4.48.18,6.72,0,1.36.61,1.6,1.77,1.64,3.51.12,7,0,10.51.11,9,.16,17.9-.07,26.85,0,7,0,14.08.13,21.11.1,5.57,0,11.13-.18,16.7-.24,1.19,0,1.84-.36,1.8-1.67-.06-2,0-4.12-.07-6.17-.15-2.47-.31-2.58-2.84-2.58Z" transform="translate(-0.28 0.07)" fill="#fff"/>
  <path d="M484.26,29c-1,.1-1.9-.72-2.9-.14l-.16-.75a6.41,6.41,0,0,1,1.66-2.26l1,.19c-.2.67,0,1.46.7.94,1.63-1.3,3.08-.48,4.56,0a68.64,68.64,0,0,1,15.48,7.47c.87.57,1.61,1.69,2.94,1h-.08c-.22,1.61,1.31,2.11,2.13,2.71a61.24,61.24,0,0,1,12.33,12,54.06,54.06,0,0,1,10.21,20.92,40.19,40.19,0,0,1,.21,14.26,7,7,0,0,1-.74,1.57,5.29,5.29,0,0,1-.22-3.87c.73-2.92.26-6-.31-9-1.94-10.17-6.85-18.75-13.73-26.41a138.64,138.64,0,0,0-10.88-10.25c-2-1.79-4.58-2.95-7-4.26A77.47,77.47,0,0,0,487.7,28a4.27,4.27,0,0,0-1.7-.26c-.8.07-.81.67-.59,1.3Z" transform="translate(-0.28 0.07)" fill="#fff"/>
  <path d="M486.84,164.81a1.28,1.28,0,0,1,.21,1.8l0,0c-.56.6-1.2,0-1.72-.4-.15-.12-.28-.4-.41-.39-1.11.07-1.31-1.26-2.34-1.43-2.35-.38-4.13.25-5.25,2.43l-.15-.92c-.08-.27-.15-.7-.46-.63-.75.16-.45.92-.66,1.4l.06-.07c-.44,0-.94,0-1.09.53a.59.59,0,0,0,.32.77l.15,0c0,.42.09.83.13,1.25-.36,1.35-.35,2.33,1.56,2a16.5,16.5,0,0,1,2.63,0,8.8,8.8,0,0,1,2.51,0c.76.22.61,1.51.86,2.35.36,1.23,1.09,0,1.62.19-.48,2.3-.7,2.58-2.63,2.43s-3.66-.37-5.42.41c-.16-.23-.29-.49-.47-.7a.54.54,0,0,0-.75-.15h0a.49.49,0,0,0-.24.66s0,0,0,0a1,1,0,0,0,.71.33,3,3,0,0,0,.81-.26c-.7,2-1.38,2.47-2.69,1.57s-2.45-1.94-4.19-.56c-.31.25-1.59-1-2.68-.91v-.56c.67-.14,1.4-.18,1.47-1.11.79.16,1.36-.39,2-.63.09.38.18.76.29,1.13.21.79.86.74,1.38.54s.23-.83.15-1.24-.57-.69-.53-1c.15-1-1.07-2.36,1-3,.56-.18.66-2.09.76-3.23a11.33,11.33,0,0,1,1.21-3.84c.25-.54.44-.66,1-.61,2.57.24,5.15.06,7.71.48,1.06.18,2.13.16,2.94,1v.2Z" transform="translate(-0.28 0.07)" fill="#fff"/>
  <path d="M467.3,40.74l2.31,1.8.05,1.26c-.6,1-.57,1.74.63,2.31a69,69,0,0,1,7.31,3.75,194.47,194.47,0,0,1,17.81,12.32,6,6,0,0,1,2.18,2.49c-1.17.59-1.82-.32-2.47-.85-3-2.48-6.23-4.73-9.4-7a182.58,182.58,0,0,0-16.17-10,7.84,7.84,0,0,0-1.42-.38c0,1.86-1.15,3.21-1.54,4.87a2,2,0,0,1-.86,1.15.93.93,0,0,1-1.09.06.63.63,0,0,1-.25-.86.76.76,0,0,1,.11-.14,4.76,4.76,0,0,0,1.13-2.64c.51-2.32.43-2.69-1.89-3.39-1-.31-2-1.35-3.31-.63-.33.17-1-.53-.33-1.18.95-.25.8-1,.68-1.65,1.52.59,2.33-.91,3.55-1.22C465.35,42.81,466.31,41.12,467.3,40.74ZM466,43.34c-.11-.69-.48-.76-.89-.7s-.57.23-.51.57a.74.74,0,0,0,.87.5C465.82,43.65,466,43.53,466,43.34Z" transform="translate(-0.28 0.07)" fill="#fff"/>
  <path d="M627.13,167.58c-.81,2-1.52,2.61-2.84,2a6.27,6.27,0,0,0-3.83-.14c-.49.07-1.52.85-2,0-1-2-1.69-1.25-2.45,1a8.8,8.8,0,0,1-.46-3.53c0-2,.47-2.35,2.42-2,1,.17,1.7.66,1.47,1.73a6,6,0,0,0,.27,2.39c1.2-.69,1.09-2,1.63-3,.35-.62.67-1.25,1.51-1.11.68.11.89.64,1,1.26s.24,1.35,1,1.62c.17-.09.45-.17.47-.28.43-2.63.44-2.65,2.53-1.14.6.44.5-.09.61-.36s.26-.79.78-.63a.79.79,0,0,1,.48,1c-.42,2.06,1,2.3,2.49,2.51.2-1-.65-.71-1-.94-.71-.45-1.28-1-1-1.9s1.13-1.46,1.81-1.13c1.7.81,3.27,0,4.89,0,.39,0,.84,0,1,.46.18.63-.28.73-.78.93-1.54.61.06.48.19.59.4.31.91.83.25,1a3.2,3.2,0,0,0-2.13,1.66c-.28.49-.79-.13-1-.57-.39-.85.41-1.73-.11-2.72l-2.24.13c.61.46,1.09.75,1.5,1.13.61.56.44,1.24.13,1.89s-.79,1.05-1.38.85C630.49,169.53,628,170.55,627.13,167.58Z" transform="translate(-0.28 0.07)" fill="#fff"/>
  <path d="M523,90c.68-1.18,2.34-1.66,2.64-3.73-2.17,1.17-3.35,3.19-5.59,3.26l-.47-.6a16.15,16.15,0,0,1,4-3.78c2.82-2.29,2.84-2.27.24-4.36.5-.1,1.09.4,1.48-.24a1.41,1.41,0,0,0-.53-.44c-.76-.32-1,0-.87.75-1.23,0-2.37,0-2.84,1.52-.14.44-.81.72-1.24,1.07l-.39-1.25c1.09-3.57,1.27-3.74,5-3.39,1.16.11,2.31.16,3.47.16v1.12c-.28.2-.9.19-.81.6.15.68.86.62,1.42.7a.83.83,0,0,0,.87.64c.72,1,1.27,1.7.41,3.09-1.09,1.78-1,4.16-2.34,5.9a.24.24,0,0,0-.19-.28.14.14,0,0,0-.09,0c-.13-.56,0-1.65-1-.78-.64.54-1.48.18-2,.77A1.13,1.13,0,0,1,523,90Z" transform="translate(-0.28 0.07)" fill="#fff"/>
  <path d="M502.57,69.62c1.19.33,1.86,1.32,2.75,2.06,1.86,1.55,2.6,4.46,5.58,4.61.28,0,.39.1.24.35-1,1.59.5,2.41,1.24,3.17a5.38,5.38,0,0,1,1.41,5.37,107,107,0,0,0-1.59,11.28c-.67,5.15-1.39,10.3-2,15.46-.09.67,0,1.37-.75,1.87-.57-.22-.39-.74-.34-1.13.76-6,1.48-12,2.34-18,.46-3.18.86-6.36,1.22-9.55a5.45,5.45,0,0,0-1.35-4.55c-2.39-2.82-4.56-5.83-7.32-8.34-.71-.65-1.77-1.38-1.34-2.7Z" transform="translate(-0.28 0.07)" fill="#fff"/>
  <path d="M514.06,50.88c.46-.86,1,.08,1.44,0v-.06a1.15,1.15,0,0,0,1.1,1.2h.13l-.06-.07c.56.85.48,2.17,1.84,2.43l-.07-.08.15,1.19a.69.69,0,0,0-.66.41c-1.11.11-1.61,1-2.27,1.72-2.16,2.23-4.29,4.49-6.59,6.9-1.18-1.39-1.51-2.48-.68-4a38.79,38.79,0,0,0,2.37-5.65,1.85,1.85,0,0,1,2-1.54c1.82,0,1.84-.3,1.39-2.43Zm-1.12,6.85c-.26.11-.44.33-.21.55s.44,0,.55-.25a.86.86,0,0,0,.66-.66.8.8,0,0,0,.52-.84c0-.12-.24-.31-.33-.3-.45.07-.51.41-.48.8A.75.75,0,0,0,512.94,57.73ZM510,61.24a.61.61,0,0,0-.67.3.27.27,0,0,0,.07.38l.1,0a.7.7,0,0,0,.86-.43l.59-.59c.31-.35.78-.81.2-1.14-.32-.18-.5.4-.52.78a.85.85,0,0,0-.63.66Zm5.33-6.47a.8.8,0,0,0-.54.85c0,.12.26.31.36.29.46-.09.51-.44.44-.83.3,0,.66-.28.53-.49-.32-.53-.59-.18-.79.22Z" transform="translate(-0.28 0.07)" fill="#fff"/>
  <path d="M529.33,82a.83.83,0,0,1-.87-.64c0-.55,0-1.08-.61-1.3V79c.27-.93,1.33-1.93-.37-2.62-.36-.15-.32-.61,0-1,.58-.62.63-1-.33-1.45s-1.33-1.2-.45-2.29c.54-.67.62-1.4-.75-1.76-1-.26-1.31-1.39-.9-2.61.55-1.64.48-1.7-1.24-2.38a1.17,1.17,0,0,1-.8-.73c-.36-1.21-1.55-2-1.55-3.42.5-1.36-1.18-1.86-1.2-3,.08-1.43-.17-1.88-1.87-3.43l.07.08c.16-.62-.8-1.24,0-1.85h0C525.47,61.11,529.59,70.75,529.33,82Z" transform="translate(-0.28 0.07)" fill="#fff"/>
  <path d="M447.52,34a18,18,0,0,1,10.34-5.5c.77,1.07,1.79.46,2.68.33s1.7-.49,2.56,0c-.73.71-.18,1.4,0,2.13.77,3.68-.68,6.12-4.67,7.75.17-1.48,1.42-2.14,2.13-3a4.46,4.46,0,0,0,.93-2.58c1-1.48.25-2.45-1-3.62-.36,1.17.35,1.91.26,2.73-1.15-.08-1.24,1-1.8,1.61s-.63,1.5-1.66,1.85V34.57c0-.69,1-1.31.07-2.07s-1.62-.29-2.27.32-1.46.5-1.64-.12c-.42-1.49-1.07-.63-1.61-.27a12,12,0,0,1-3.81,2Zm8.36-2.89a1,1,0,0,0,1,.36c.53-.05,1-.28.81-.89s-.65-.35-1-.22-.73.29-.81.75Z" transform="translate(-0.28 0.07)" fill="#fff"/>
  <path d="M419,36.12v1c-2.62.76-5.23,1.56-7.85,2.28a3.34,3.34,0,0,0-2.75,3.21c-.59,5.53-1.37,11-2.06,16.54a6,6,0,0,1-.56,2.54c-1-.28-.72-1.09-.66-1.69q1-9.31,2.14-18.63c.13-1,.33-2.21,1.58-2.6C412.22,37.73,415.41,36.16,419,36.12Z" transform="translate(-0.28 0.07)" fill="#fff"/>
  <path d="M505.7,142.65c-.15-4.44.69-8.73,1.12-13.06.4-4,.44-4.06-3.63-5.3-1.4-.43-2.72-1.08-4.08-1.61a1.29,1.29,0,0,1-1-1.12c2,0,3.63,1.14,5.37,1.81.82.31,1.6.68,2.43,1,1.34.46,1.68-.05,1.89-1.27.19-1-.37-2.36.93-3.2a2.93,2.93,0,0,1,.16,2.58c-.56,1.91-.05,3.23,1.85,4a1.09,1.09,0,0,1,.39.38v.3c-.86.56-1.64-.39-2.74-.06C507.57,132.17,507.35,137.56,505.7,142.65Z" transform="translate(-0.28 0.07)" fill="#fff"/>
  <path d="M548.64,133.11a3.78,3.78,0,0,1-1.34.08c-2.39-.82-5,.36-7.32-.73a.57.57,0,0,0-.54,0c-.93.87-2.25,1-2.82.12a7.05,7.05,0,0,1-.5-3.6c0-1,1.8-1.59,2.81-1a1.37,1.37,0,0,1,.3.45c-1.67,1.15.67,1.75.38,2.76-.18.62.08,1,1,.83.68-.12,1.1-.18,1.12-.93a11.85,11.85,0,0,1,0-1.46,1.7,1.7,0,0,1,2.19-1.71,6.75,6.75,0,0,0,3.34-.08c1.43-.32,2.16.72,1.67,2.14-.19.55-.58,1-.81,1.56S549,132.29,548.64,133.11Zm-5-1.4c.58-.24.49-.76.49-1.21s.11-1.1-.49-1.17-.9.57-.89,1.16.19,1.1.88,1.22Zm2,0c1.37-1,1.35-1.05,1.74-2.41-1.35.2-2.23.68-1.78,2.44Zm-8.16-.86c-.19.07-.63.18-.62.24a.67.67,0,0,0,.67.67h0c.29,0,.5-.12.51-.46s-.34-.33-.67-.42Z" transform="translate(-0.28 0.07)" fill="#fff"/>
  <path d="M424.35,44.87c.61,0,1.3-.28,1.74.43-1.66.4-1,1.79-.93,2.65a86.67,86.67,0,0,1,.29,11.73c0,2,1.29,2.61,2.48,3.37a9.4,9.4,0,0,0,2.8.82l12.34,3.2c-.43,1.59-.52,1.63-2.67,1.09.4-.59.13-.83-.46-1-2.91-.7-5.81-1.43-8.71-2.15-1-.23-1.91-.39-2.85-.66-.7-.21-1.58-.31-1.53-1.4,0-.45-.34-.9-.62-.87-2.65.29-1.85-1.69-1.87-2.93C424.3,54.41,424.34,49.64,424.35,44.87Z" transform="translate(-0.28 0.07)" fill="#fff"/>
  <path d="M586.22,146.5c.37.79,1.59.1,1.85,1.07-.11.14-.22.42-.33.42-3.48,0-3.2,0-3.19-2.84a6.18,6.18,0,0,0-.2-1.14c-3.2-.24-.9,3.17-2.66,3.84-.87-.66-.5-1.62-.58-2.45s-.26-1.57-1.34-1.47-1.73.37-1.81,1.5c-.06.81.27,1.72-.69,2.53-1.31-1.31.34-3.72-1.79-4.71,4.14-.91,8.26-.06,12.36-.29.13,1.16-.7,1-1.1,1.33s-.39.21-.09.54C587.62,145.9,587.6,145.92,586.22,146.5Z" transform="translate(-0.28 0.07)" fill="#fff"/>
  <path d="M422.5,151.34c.87.32,2,.22,2.45,1.26-1.09-.13-1.22.81-1.52,1.47-1.09,2.39-2.13,4.81-3.17,7.23-.19.46-.33.91-1,1.11-.21-.81.27-1.49.45-2.17.47-1.8-.1-2.41-1.9-2.12-.72.11-1.47.35-2.18-.57a1.73,1.73,0,0,1,0-2.28,20.51,20.51,0,0,0,2-3.13c1.59.92,2.42,1.93,1.37,3.63-.24.4-.35.95.34,1.15s.82-.34,1-.77C421.1,154.55,421.8,152.94,422.5,151.34Z" transform="translate(-0.28 0.07)" fill="#fff"/>
  <path d="M445.67,32.22A30.12,30.12,0,0,1,462,24.29a39.18,39.18,0,0,1,8.16-.7c.6,0,1.57-.26,1.54.75,0,.73-.87.56-1.4.6-1.95.14-3.9.22-5.85.38A34.48,34.48,0,0,0,450.67,30c-1.52.83-3,1.8-4.44,2.71Z" transform="translate(-0.28 0.07)" fill="#fff"/>
  <path d="M401.91,92c-.43-2.57,1.56-20.08,2.8-23.31a10,10,0,0,1,0,4.55c-.28,2.41-.62,4.82-1,7.23a2,2,0,0,0,1.44,2.43l.07,0a14.81,14.81,0,0,1,4.69,2.45,9,9,0,0,1-4.78-1.29c-1.4-.62-1.75-.18-1.89,1.06-.21,1.93-.41,3.87-.64,5.8C402.57,91.43,402.6,92,401.91,92Z" transform="translate(-0.28 0.07)" fill="#fff"/>
  <path d="M557,127.57c.46-1.36,1.31-1.86,2.69-1.24a1.27,1.27,0,0,1,.88,1.58,1.48,1.48,0,0,1-.12.29c-.31.8-1.71,1.46-.37,2.59.28.23-.27.58-.68.58a10.23,10.23,0,0,1-1.75,0c-.48-.07-1-.31-1.14.38-.17,1.12-.83.8-1.61.85-3.43.19-3.84-.13-3.52-3.24.07-.6.09-1.24.82-1.34s1,.37,1.21,1c.09.37.07.79.53,1.08,1-.35.45-2.85,2.43-1.83.58.59-.34,1.56.73,2.23.51-1,2.17-1.25,1.9-2.89C558.22,127.24,557.61,128.1,557,127.57Z" transform="translate(-0.28 0.07)" fill="#fff"/>
  <path d="M598.09,168.43c-1,1.34-1.21,1.43-1.64.64-1-1.79-1.27-.63-1.7.28-.1.21-.28.25-.82,0-.52-1-.16-2.4-.21-3.69a.89.89,0,0,1,.79-1h.11c1-.1,2.09-.26,2.76.53s.92,1,1.66.12a2.72,2.72,0,0,1,3-.5c.4.11.72.36.68.81a.6.6,0,0,1-.79.58,7,7,0,0,0-1.44-.12c-.75.07-.86.66-.85,1.28a1.28,1.28,0,0,0,1,1.28c.59.17.74-.3.56-.63-.51-.95.19-1,.74-1a1,1,0,0,1,1.06.81,1.82,1.82,0,0,1-1.15,2.29,2,2,0,0,1-.6.09C600.17,170.22,599.7,170,598.09,168.43Z" transform="translate(-0.28 0.07)" fill="#fff"/>
  <path d="M567.15,153.08c-.58,2.12-1,2.38-2.66,1.87-1.92-.57-2.15-.59-3.6-.09.08-1.46.83-2.63,1.16-3.89a1,1,0,0,1,1.11-.77,1.07,1.07,0,0,1,1,.86c.32.89.34,1.93,1.18,2.62.79-.57.36-1.41.47-2.1s0-1.28.81-1.33a1.15,1.15,0,0,1,1.29,1,.87.87,0,0,1,0,.23c0,.34.1.67.17,1,1.18-.51.75-2.57,2.21-2.15s.48,1.83.56,2.79c0,.6.46,1.75-.83,1.65C568.93,154.68,567.22,155.49,567.15,153.08Z" transform="translate(-0.28 0.07)" fill="#fff"/>
  <path d="M608.81,184.45a5.29,5.29,0,0,1-.35-2.94c0-2,.15-2.09,1.85-2s1.93.24,1.89,2.07a4.26,4.26,0,0,0,.48,2.1c1.2-.77,1-2.23,1.66-3.2.29-.41.51-.85,1-.9a1.27,1.27,0,0,1,1.31.95c.39,1,.82,2,1.11,3,.22.78-.38,1.22-1,.81-1.14-.82-2-.6-3.22-.06-.56.26-1.93.67-2.35-.19C610.15,181.75,609.58,183.5,608.81,184.45Z" transform="translate(-0.28 0.07)" fill="#fff"/>
  <path d="M485.87,22.18c.36.19.75.39.87-.21.51-2.64,1-5.28,1.57-8.33-2.76,1.52-5.4,2.68-7.18,4.88-.55.68-.71,1.16-1.7,1.27-2.49.28-2.82.89-2.22,3.48a.9.9,0,0,1-.92.49,8.52,8.52,0,0,1-.17-3.18,1.61,1.61,0,0,1,.83-1.44c3.44-1.76,6.27-4.45,9.66-6.26,1.42-.76,2.15-.45,2.33.86.21,1.5-1.34,9.49-2.23,11.32-1-.57-.77-1.73-1.3-2.45Z" transform="translate(-0.28 0.07)" fill="#fff"/>
  <path d="M444.33,166.81v-.15a1.8,1.8,0,0,1-1.86.58,50.68,50.68,0,0,1-16.15-4.74,3.61,3.61,0,0,1-1.87-1.66c.68-.92,1.29-.22,1.82,0a51.54,51.54,0,0,0,15.87,4.72A2.27,2.27,0,0,1,444.33,166.81Z" transform="translate(-0.28 0.07)" fill="#fff"/>
  <path d="M580.46,182.18c-.09,2.62-1.26,3.41-3.51,2.15-.92-.51-1.39-.55-2.11.2s-1.49.23-2.16-.12-.8-1-.13-1.61c.3-.29,0-.67-.21-1a1.36,1.36,0,0,1,.07-1.92l.18-.14a1.82,1.82,0,0,1,2.19-.1c.81.68,1.18.86,2.27.18C579,178.6,580.55,179.81,580.46,182.18Zm-5.56-.72c.08.31.27.52.57.39s.27-.43.07-.67c-.5-.43-1.15-.55-1.51,0C573.87,181.39,574.58,181.36,574.9,181.46Zm3.32-.7c-.72,0-1.17.37-1.19,1,0,.83.26,1.6,1.21,1.68s1.1-.73,1.16-1.37a1.24,1.24,0,0,0-1.18-1.26Zm-5,1.54c-.41-.13-.49.2-.65.41a10.6,10.6,0,0,0,1,.54c.36.15.48-.14.64-.36Z" transform="translate(-0.28 0.07)" fill="#fff"/>
  <path d="M560.22,140.63c-1.08.19-2.16-1.08-3.25,0a.54.54,0,0,1-.55,0c-1.19-1.23-2.9-.69-4.33-1.23s-1.49-1.07-.7-2c.57-.67.7-2.13,2-1.74s.13,1.76.7,2.53c.89-.09.51-.87.66-1.35a1.58,1.58,0,0,1,1.71-1.29,16.86,16.86,0,0,0,4.2.07c.92-.1,1.53.79,1.13,1.87-.28.73-.61,1.45-1.53,1.59-.89-.81,1-1.4,0-2.37-1.51.3-2.42,1-1.88,2.86a3.11,3.11,0,0,1,1.94-.54.65.65,0,0,0,.46.74Zm-3.71-1.07c.86-1.45,1-2.21.36-2.69-.18-.14-.71-.15-.79,0a2,2,0,0,0,.18,2.61A.57.57,0,0,0,556.51,139.56Z" transform="translate(-0.28 0.07)" fill="#fff"/>
  <path d="M560.81,180.24a1.77,1.77,0,0,1,2.48-.36,1.87,1.87,0,0,1,.46.51c.46.91.13,3.45-.63,3.87a2.32,2.32,0,0,1-3.16-.5c-.51-.59-1-.89-1.54.05s-1.74.65-2.67.68a1,1,0,0,1-1.1-.89.67.67,0,0,1,0-.2v-.58c0-1.12-.64-2.52.64-3.2a2.43,2.43,0,0,1,3.19.7c1,1.37,1.53-1.12,2.34-.1,0,.74-.08,1.48-.06,2.22a1,1,0,0,0,.92,1.07h.16c.78,0,.88-.64,1-1.17C563.16,180.72,561.84,180.6,560.81,180.24Zm-3.1,1.95c-.1-.68-.21-1.45-1.1-1.43s-.69.77-.79,1.32,0,1.2.78,1.22,1-.49,1.11-1.11Z" transform="translate(-0.28 0.07)" fill="#fff"/>
  <path d="M552.41,144.2c-1.24-.41-1.85-.1-1.88.92s.54,1.53,1.68,1.37c1.43-.21,2.57-.62,2.88-2.28.09-.5.31-1.18,1.08-1.21s1.06.66,1.26,1.33a5.91,5.91,0,0,0,.58,1.34c.31.5.85,1,.36,1.55s-1,0-1.41-.36a1.46,1.46,0,0,0-2.05.14.18.18,0,0,1,0,.07c-1,1-2.33.92-3.57.88-1.5-.06-2.33-1.5-2-3.24a2.35,2.35,0,0,1,2.59-2.08,1.86,1.86,0,0,1,.41.08c.56.16,1.17.45,1,1.19S552.54,144.24,552.41,144.2Z" transform="translate(-0.28 0.07)" fill="#fff"/>
  <path d="M567,160.93c-.82.08-.74.75-1.08,1a2.52,2.52,0,0,1-2.73.5c-1-.34-.79-1.23-.83-2,0-1-.48-2.38.63-2.92a2.72,2.72,0,0,1,3.21.71c.79,1,1,.54,1.63-.09a2,2,0,0,1,2.62-.52.93.93,0,0,1,.5,1c-.11.52-.53.48-.88.29-1.11-.62-1.69-.16-1.73.95s.41,2,1.77,1.26c.47-.24.77-.12.89.3a.87.87,0,0,1-.53,1.17A2.84,2.84,0,0,1,567,160.93Zm-3.65-1c0,.69-.11,1.48.94,1.41.7,0,1-.58,1-1.18a1.25,1.25,0,0,0-1-1.49,1.53,1.53,0,0,0-.37,0c-.92,0-.53.84-.61,1.29Z" transform="translate(-0.28 0.07)" fill="#fff"/>
  <path d="M597.87,154.29c.38-1,.75-2,1.16-3,.23-.55.6-1.07,1.29-1s.92.62,1,1.24a2.09,2.09,0,0,0,1,1.7c.22-.57.39-1.14.65-1.66a2,2,0,0,1,2.48-1.35,1.88,1.88,0,0,1,.59.28c.4.2,1,.46.76,1.06s-.73.51-1.2.29c-1-.44-1.64-.13-1.56.9.07.86.48,1.8,1.73,1.29.49-.2,1-.4,1,.39a.91.91,0,0,1-.81,1h0a8.77,8.77,0,0,1-1.45,0c-.87.16-1-2-2.27-.63-1,1-1.22-1-2.21-.58-.5.21-1.15.11-1.55.64Z" transform="translate(-0.28 0.07)" fill="#fff"/>
  <path d="M470.75,174.36c-.67.24-1.24.79-2,.63a12.16,12.16,0,0,1-2-5.12c.83-.85,1.21.62,2.09,0,0-1.59.85-3.3.18-5.14a1,1,0,0,1,.39-1.28,1.79,1.79,0,0,1,1.9.32,1,1,0,0,1,.47,1.34,1.88,1.88,0,0,1-.12.18C469,168.08,470.34,171.26,470.75,174.36Z" transform="translate(-0.28 0.07)" fill="#fff"/>
  <path d="M502.41,39.15c-.11.84-.65.55-1,.32-1.91-1.15-3.77-2.38-5.7-3.49-1.34-.78-.57-2.45-1.62-3.42a29.09,29.09,0,0,1,10.53,6c-.76.8-1.21,0-1.73,0l-.69-.38-1.08-.75c-.24-.13-.55-.37-.74-.09s.14.42.4.5c.09.53.56.62.93.84Z" transform="translate(-0.28 0.07)" fill="#fff"/>
  <path d="M572.51,168.72c-.68,1.62-1.87,1.49-2.93.86a2.71,2.71,0,0,1-1-3.13c.26-1.14,1-2.09,2.29-1.7,2,.6,4-.88,6.22.5-2.35.68-1,3.05-2.21,4.26-1-.56-.64-1.4-.68-2.12-.07-1.26-.35-2.14-1.91-1.38a2.14,2.14,0,0,1-1.12.09c-1.18-.18-1.64.28-1.42,1.46s.77,1.51,1.84.85C571.8,168.26,572.1,168.33,572.51,168.72Z" transform="translate(-0.28 0.07)" fill="#fff"/>
  <path d="M582.22,179.67c.93.5.59,1.35.54,2.07-.08,1.1.49,1.55,1.46,1.82,1.2.33,1.45-.47,1.89-1.28.52-1,.38-2.62,1.87-2.65,1.67,0,.86,1.93,1.71,2.68a1.7,1.7,0,0,1,.47,1c.08.64-.14,1.32-.92.85a2.25,2.25,0,0,0-3.11.26c-.7.64-1.84.51-2.8.46a1.74,1.74,0,0,1-1.85-1.62v-.19A6.11,6.11,0,0,1,582.22,179.67Z" transform="translate(-0.28 0.07)" fill="#fff"/>
  <path d="M490.77,91.91v-.77c5.55-3.19,11.13-6.34,16.49-9.87.22-.14.56-.12,1,.44A100.22,100.22,0,0,1,490.77,91.91Z" transform="translate(-0.28 0.07)" fill="#fff"/>
  <path d="M463.1,28.81c-.86-.49-1.69-.13-2.56,0s-1.91.74-2.68-.33c.25-1.17,1.37-1,2.08-1.12,4.75-1,9.52-1.86,14.38-.68a5.23,5.23,0,0,1,0,.56h-8.4c1.83.94,3.84.11,5.64,1a27.86,27.86,0,0,1-4.08.26C466,28.54,464.56,28.69,463.1,28.81Z" transform="translate(-0.28 0.07)" fill="#fff"/>
  <path d="M557.16,176.2c0-.49.06-1,.07-1.46.08-3,.08-3,3.21-2.31,0,1.25-1.34.39-1.76,1,.15.94,1.52.19,1.65,1.16-.29.73-1.33.11-1.65,1,.17,1,1.72,0,1.87,1.12-.22.59-.76.49-1.22.5-1.26,0-2.44-.37-3.8,0-1.66.46-2.45-.47-2.5-2.24a18,18,0,0,1,.1-2.32.48.48,0,0,1,.56-.38.23.23,0,0,1,.11,0,.63.63,0,0,1,.38.35,4.14,4.14,0,0,1,.12.86C554.53,175.93,554.53,175.93,557.16,176.2Z" transform="translate(-0.28 0.07)" fill="#fff"/>
  <path d="M567.41,131.38c-1.79-.72-2.49-1.81-1.89-2.79.47-.78,1.44-.75,3,.08-.26.7-1,.36-1.47.7,1.36,1,2.55,1.25,3.51-.51.27-.5.63-1.14,1.33-.82a1.17,1.17,0,0,1,.58,1.5,3.3,3.3,0,0,0,0,1.4c.22,1.7-.27,2-1.82,1.34-.73-.33-1.45-.65-2.06.22-.17.23-.35.56-.59.62-.85.21-2,.41-2.26-.58C565.31,131.16,566.94,132.35,567.41,131.38Z" transform="translate(-0.28 0.07)" fill="#fff"/>
  <path d="M503.71,53.16c-2-1.58-3.88-3.21-5.89-4.73a28.24,28.24,0,0,0-7.33-4.15,10.7,10.7,0,0,1-1.57-1c3.52-.55,11.32,4.5,15.07,9.49A4.39,4.39,0,0,1,503.71,53.16Z" transform="translate(-0.28 0.07)" fill="#fff"/>
  <path d="M523.8,100.88c-1.32,1.6-3.49,2.28-4.72,3.71s-2.84,1.07-4.32,1.91c0-1.79,1.26-2.08,1.93-2.77,1.41-1.46,3.16-2.59,4.6-4,.93-.93,1.63-.43,2.46-.07Z" transform="translate(-0.28 0.07)" fill="#fff"/>
  <path d="M537,158.71c-.39,0-.81.08-.83-.48a.93.93,0,0,1,.84-1,38.71,38.71,0,0,0,5.49.11c.67-.06.9.72.61,1.33-.59,1.17-.89,2.52-2.06,3.7-.72-1.18-.19-2,.18-2.78.18-.38.23-.78-.21-1a2.31,2.31,0,0,0-1-.19c-.37,1-1.85,1.68-1.26,2.9s0,1.29-.9,1.23a2.13,2.13,0,0,1-1.77-.57c0-1.22,1.47-1.6,1.81-2.66S537.56,158.5,537,158.71Z" transform="translate(-0.28 0.07)" fill="#fff"/>
  <path d="M589.74,132c-1.24-.41-.2,1.64-1.69,1.1-.25-1.29.54-3-.55-4.38-2.06.5-1,1.58-.38,2.46-.59.58-1.18.38-1.75.34s-1.25.14-1.46-.61c-.16-.56.32-.86.67-1.2a2.51,2.51,0,0,0,1-1.7c-.43-.55-1.15.1-1.6-.37,1.23-1.83,1.91-2,3.17-.57l2.58,5Z" transform="translate(-0.28 0.07)" fill="#fff"/>
  <path d="M494.91,106.68c1.42-.49,3,.35,4.36-.5h.07a1.78,1.78,0,0,0,2.35,0c.19.3.37.3.55,0l1.41.49c1.1-.39,1.42-1.65,2.41-2.16a2.33,2.33,0,0,1,2.75-.39l-4.3,3.91c-.3.27-.66.55-1,.22-1.5-1.45-3.23-.76-4.89-.55a6.1,6.1,0,0,1-3.7-.41C494.91,107.05,494.91,106.87,494.91,106.68Z" transform="translate(-0.28 0.07)" fill="#fff"/>
  <path d="M606.19,132.81c-1.09.39-2.2.86-2.88-.65-.48-1.07-.92-.79-1.3.06-.17.37-.3.71-.93.7-.85-1.38-.26-2.94-.28-4.43,0-.19.35-.47.59-.54a4.75,4.75,0,0,1,2.55.38c1.19.31.87,1.24.71,2.14s-.16,1.91,1.3,1.24Z" transform="translate(-0.28 0.07)" fill="#fff"/>
  <path d="M576.74,140.42c-.94-1.6.23-3.47-1.34-4.74h7.82c.21,1.28-1.31,1-1.26,1.94a20.06,20.06,0,0,1-.07,2,.66.66,0,0,1-.61.7h-.13c-.19,0-.47-.38-.51-.62a5.94,5.94,0,0,1,0-1.46c.09-1.33-.6-1.62-1.79-1.59s-1.53.6-1.44,1.66A1.9,1.9,0,0,1,576.74,140.42Z" transform="translate(-0.28 0.07)" fill="#fff"/>
  <path d="M523.8,100.88V99.63a12.42,12.42,0,0,1,.86-1c.3-.29.49-.6.06-.84-.14-.09-.49.18-.74.29l-.56-.49c1.64-2.06,2-4.79,3.75-6.82a.24.24,0,0,1,.28.19.14.14,0,0,1,0,.09c-.08,2.36-1.73,4.16-2.69,6.86,2.75-2.14,3.48-5,5.44-7.2C529.93,93.69,527.34,97.81,523.8,100.88Z" transform="translate(-0.28 0.07)" fill="#fff"/>
  <path d="M569.35,136a29.47,29.47,0,0,1-.5,3.24c-.27,1-.84,1.68-1.73.4-.27-.38-.51-.51-.85-.07-1.22,1.62-1.51.42-1.72-.62s-.87-2-.54-3.12c1.19-.37.73.83,1.29,1.3.64-.61,1-2.59,2.45-.79C568.24,136.91,568.41,135.38,569.35,136Z" transform="translate(-0.28 0.07)" fill="#fff"/>
  <path d="M418.23,85.81c-1,1.9-2.53,3.33-4.05,5.16-.51-1.38.92-1.85.72-2.81-.47-.66-1.58-.51-2.09-1.39,2.55,0,2.53,0,3.52-2.58.89-2.35,1.73-4.73,3.62-6.52l.43.47c-.12.82-.86,1.26-1.18,1.94-.82,1.79-2.21,3.4-1.8,5.58l-.28-.08c-.06,0-.12.06-.18.09l.41,0a.29.29,0,0,1,.29-.27h.06Z" transform="translate(-0.28 0.07)" fill="#fff"/>
  <path d="M582,158c1,.28,1.8-.73,2.8-.61.68.08,1.51.15,1.44,1.07-.07,1.12-1.12.17-1.6.54,0,.76.64.62,1,.81.64.33,1.24.65.9,1.54a1.92,1.92,0,0,1-1.63,1.42c-1.2.18-1.86-1-3-.92a.81.81,0,0,1,.33-1h1.49c.25.56.7.76,1,.24.14-.21-.41-.53-.79-.63s-.87-.63-1.45-.53C581.75,159.44,582,158.65,582,158Z" transform="translate(-0.28 0.07)" fill="#fff"/>
  <path d="M607,184.41c-2-1.52-2-1.52-3.29.16-1-1.34-.66-2.85-.54-4.2s1.5-.88,2.37-.9,1.89.31,1.68,1.47A25.17,25.17,0,0,0,607,184.41Z" transform="translate(-0.28 0.07)" fill="#fff"/>
  <path d="M457.05,171.81c.64-.55,1.36,0,2-.16.38.68,1.23,1.09,1.13,2-.91.15-1.66,1-2.82.13-.38-.3-1.58,1.29-2.81.72-.41-.19-1.35.24-.93-.84.27-.7-.82-1.83.56-2.11a15.72,15.72,0,0,0,2.44-.67C456.78,171.17,456.3,171.74,457.05,171.81Z" transform="translate(-0.28 0.07)" fill="#fff"/>
  <path d="M647.32,170c-1.77-1.84-1.77-1.84-3.31,0-.57-.94-.28-1.93-.3-2.83,0-2.11,1.14-2.89,3.14-2.15.39.14.83.41.75.77C647.3,167.1,648.09,168.56,647.32,170Z" transform="translate(-0.28 0.07)" fill="#fff"/>
  <path d="M597.87,154.29l.63.65c-.31.81-1,.32-1.49.37-3.63.41-3.67.35-3.59-3.11,0-1.95.43-2.27,2.51-2,.37.05.81,0,.88.53s-.25.69-.67.73c-1.56.15-.82.44-.06.78a.78.78,0,0,1,.49.91C596.41,154.21,596.41,154.21,597.87,154.29Z" transform="translate(-0.28 0.07)" fill="#fff"/>
  <path d="M594.82,184.63c-1.86-1.6-1.86-1.6-3.27-.16-1-1.31-.59-2.8-.44-4.15.13-1.17,1.29-.9,2.13-.86s1.82.16,1.79,1.39S594.91,183.13,594.82,184.63Z" transform="translate(-0.28 0.07)" fill="#fff"/>
  <path d="M599.32,130.88c.09.29.16.58.22.87.07.51,0,1-.57,1.16s-.56-.36-.73-.71c-.48-.9-1-1.26-1.41.05-.12.38-.23.75-.73.66s-.53-.51-.55-.89v-1.74c.05-2.33,1.35-3.07,3.36-1.92C599.18,128.52,599.32,129.34,599.32,130.88Z" transform="translate(-0.28 0.07)" fill="#fff"/>
  <path d="M592.87,147.86C591,146,591,146,589.54,148a8.36,8.36,0,0,1-.37-2.81c-.12-1.27-.2-2.33,1.63-2.28s2.31.29,2.34,2.38A5.31,5.31,0,0,1,592.87,147.86Z" transform="translate(-0.28 0.07)" fill="#fff"/>
  <path d="M481.2,28.14l.16.75A108.16,108.16,0,0,1,472,40.24,94.84,94.84,0,0,1,481.2,28.14Z" transform="translate(-0.28 0.07)" fill="#fff"/>
  <path d="M592.63,164.88c-.13.83-.46,1-.84,1.11s-1-.06-.56.55c.24.36,1.32.2.72,1.09-.32.47-1.17,0-1.48.67.45.72,1.58.07,2,1.14a3.35,3.35,0,0,1-3.07.31c-.38-.11-.73-4.06-.35-4.48C590.07,164.14,591.29,164.7,592.63,164.88Z" transform="translate(-0.28 0.07)" fill="#fff"/>
  <path d="M410.2,149.62a10.62,10.62,0,0,1-5.46-5c-.72-1.43-2.92-2.17-2.22-4.88C405.27,143.24,407.73,146.43,410.2,149.62Z" transform="translate(-0.28 0.07)" fill="#fff"/>
  <path d="M569.74,146.32c0,1.78-1.22,1.7-2.44,1.61s-1.22-1-1.22-1.93v-1.17c0-.94-.27-2,1.38-2,1.37.07,2.31.31,2.14,2a7.82,7.82,0,0,0,.13,1.45Z" transform="translate(-0.28 0.07)" fill="#fff"/>
  <path d="M546.29,146.68c-.25.76-.61,1.27-1.44.6-.58-.47-.83-1.28-1.59-1.56-.53.48-.21,1.39-1.06,1.75-.83-1.35-.26-2.82-.24-4.21,0-.67.84-.82,1.35-.35a9.29,9.29,0,0,1,1.23,1.63c.51-.1.28-.55.37-.83s.09-.61.47-.6a.54.54,0,0,1,.59.47v0a11.66,11.66,0,0,0,.37,3.17Z" transform="translate(-0.28 0.07)" fill="#fff"/>
  <path d="M577.26,175.69c0,1.2-.44,1.81-1.72,1.74a2.56,2.56,0,0,1-2.64-2.19,2.25,2.25,0,0,1,1.29-2.85c1.52-.72,2.13-.37,2.42,1.47C576.72,174.52,577.46,175,577.26,175.69ZM575,173.18c-.84.17-1,.84-.94,1.67s.55,1.36,1.3,1.25c1.17-.17.36-1.39.87-2.08.37-.49-.53-.76-1.23-.84Z" transform="translate(-0.28 0.07)" fill="#fff"/>
  <path d="M474.32,27.22a5.23,5.23,0,0,0,0-.56,5.18,5.18,0,0,0,1.09-.3c.69-.38.72-.85,0-1.22a4,4,0,0,0-.83-.18c-.8-.2-2.31.45-2.2-.77.08-.92,1.62-.32,2.51-.43a11.06,11.06,0,0,1,1.41,0,.9.9,0,0,0,.92-.49c.82.06,1.11-.68,1.64-1.06.95-.69,2-.69,3.62.13-2.35,0-3.27,1.16-4.3,2.46s-1.78,2.8-3.31,3.59a.46.46,0,0,0-.48,0Z" transform="translate(-0.28 0.07)" fill="#fff"/>
  <path d="M562.93,169.61c-1.89-2.13-1.89-2.13-3.12-.11-.66-.77-.38-1.68-.39-2.5,0-2.24,1-2.9,3-2.15.53.19.93.55.72,1C562.66,167,563.35,168.15,562.93,169.61Z" transform="translate(-0.28 0.07)" fill="#fff"/>
  <path d="M587.41,154.39c-.61-.06-1.29,1.11-1.74.2-1.26-2.51-1.5,0-2.26.42a4.62,4.62,0,0,1-.69-2.66c-.12-1.17,0-2.15,1.52-2.21s2.26.37,2.41,2c.07.73-.22,1.58.74,2l.1.13Zm-2.22-2.58c-.17-.09-.34-.25-.5-.26s-.33.16-.49.25c.16.09.33.25.5.25S585,151.81,585.19,151.81Z" transform="translate(-0.28 0.07)" fill="#fff"/>
  <path d="M558,150.38c.43.56-1.66,1.06.08,1.88,1.09.51.63,1.94-.12,2.8s-1.4.38-2.14,0c-1-.52-.25-1.41-.45-2.11C554.64,150.5,555.32,149.49,558,150.38Z" transform="translate(-0.28 0.07)" fill="#fff"/>
  <path d="M607.9,150.35c1.31.27.89,1.85,2.13,1.74.82-.28.23-1.54,1.3-1.85,1,1.68.82,3.35.21,5.23-1.79-2-1.79-2-3.55-.17A9.05,9.05,0,0,1,607.9,150.35Z" transform="translate(-0.28 0.07)" fill="#fff"/>
  <path d="M551.5,167c0-2.16.17-2.34,1.94-2.3s2.5.71,2.48,2.13a2.69,2.69,0,0,1-2.5,3C551.92,169.84,551.48,169.18,551.5,167Zm1.48-1.21a3.23,3.23,0,0,0-.3,1.81c0,.55.17,1,.78,1a1.08,1.08,0,0,0,1-.92C554.7,166.57,554.34,165.89,553,165.74Z" transform="translate(-0.28 0.07)" fill="#fff"/>
  <path d="M397.81,119.28c.46.17,1.25-.23,1.28.69a4.63,4.63,0,0,1,0,1.74c-1.25,3,.36,5.06,2.32,7a6.82,6.82,0,0,1,2,2.77c-3.47-1.66-6-6-5.55-9.55.11-.92.71-1.86,0-2.79Z" transform="translate(-0.28 0.07)" fill="#fff"/>
  <path d="M569.74,146.32h0c.79.68.88,0,1.12-.54.47-1,.43-2.57,1.86-2.63s.92,1.69,1.58,2.47a1.78,1.78,0,0,1,.32,2.1c-1.07-.44-2.12-1.37-3.47-.37C570.32,148,570.48,146.32,569.74,146.32Z" transform="translate(-0.28 0.07)" fill="#fff"/>
  <path d="M598.49,174.58c-.07,2.08-.78,2.92-2.4,2.84a2.32,2.32,0,0,1-2.41-2.24,2,2,0,0,1,0-.42,2.46,2.46,0,0,1,2.16-2.71,2.35,2.35,0,0,1,.53,0C597.85,172.14,598.54,173,598.49,174.58Zm-1.29.07a1,1,0,0,0-.68-1.24,1.12,1.12,0,0,0-.32,0c-.9-.08-1.17.62-1.15,1.32s.3,1.36,1.18,1.35.93-.56,1-1.39Z" transform="translate(-0.28 0.07)" fill="#fff"/>
  <path d="M577.18,160.21c.17.93.21,1.82-.73,2.33a1.82,1.82,0,0,1-2.8-1.66v-1.46c0-1,0-2,1.39-2s2.17.72,2.18,2.29C577.21,159.81,577.19,160.05,577.18,160.21Zm-1.55-1.12-.38-.36c0,.08-.14.16-.13.22s.08.42.18.46.34-.1.33-.32Z" transform="translate(-0.28 0.07)" fill="#fff"/>
  <path d="M597.81,184.48a8.67,8.67,0,0,1,1.47-4.34,1,1,0,0,1,1.34-.46,1,1,0,0,1,.5.56,18.1,18.1,0,0,1,1.27,3.25c.18.67-.35,1.29-1,.76C600.22,183.26,599.14,183.64,597.81,184.48Z" transform="translate(-0.28 0.07)" fill="#fff"/>
  <path d="M553.65,184.15c-.87.75-1.64.19-2.38.22s-1-.43-1-1.12c0-.88-.06-1.76-.07-2.64s.26-1.41,1.18-1.24c.65.13,2-.32,1.7.78-.2.87,1.15,3-1.73,2.45C552,183.67,553.27,183.09,553.65,184.15Z" transform="translate(-0.28 0.07)" fill="#fff"/>
  <path d="M602.7,146.63a1.17,1.17,0,0,0-.87-.93c-.89-.41-1.64-1.12-1.2-2a2.36,2.36,0,0,1,2.78-1c.55.13,1.21.49.94,1.2a2.73,2.73,0,0,0,.06,1.91,1.81,1.81,0,0,1-.53,2.12,2.74,2.74,0,0,1-2.52,0,.83.83,0,0,1-.62-1,.78.78,0,0,1,0-.14c.26-.66.77-.33,1.21-.21A5.49,5.49,0,0,0,602.7,146.63Z" transform="translate(-0.28 0.07)" fill="#fff"/>
  <path d="M641.41,164.72c.67.23,2,.29.37,1.55,1,.79,0,2,.53,2.79.35.52.42.88-.2,1.09a2.11,2.11,0,0,1-2.84-.91,2.17,2.17,0,0,1-.23-1.09,11.85,11.85,0,0,1,0-1.46C639.06,165.1,639.46,164.72,641.41,164.72Z" transform="translate(-0.28 0.07)" fill="#fff"/>
  <path d="M586.49,166.55c.64-.31.18-1.43,1.13-1.49.53.32.43.86.37,1.27-.18,1.11.79,2.68-.39,3.23-1.35.62-1.43-1.47-2.44-1.94-.53.52.36,1.84-.67,1.8s-.48-1.25-.6-1.92c-.16-.91-.58-2.15.59-2.57S585.85,166,586.49,166.55Z" transform="translate(-0.28 0.07)" fill="#fff"/>
  <path d="M536.12,146.59c2-.55,2.06-.55.38-2.48a.68.68,0,0,1-.1-1l0,0a1.92,1.92,0,0,1,2.09-.65,1.29,1.29,0,0,1,1,1.5v0a7.44,7.44,0,0,0,0,2c.13.76.18,1.75-.82,1.89s-2.47.5-2.56-1.36Z" transform="translate(-0.28 0.07)" fill="#fff"/>
  <path d="M589.7,132c1.31-.48,1-1.92,1.59-2.81.36-.52.66-.94,1.33-.86a1.11,1.11,0,0,1,1,.89c.21.64.49,1.26.75,1.88s.53,1.16.06,1.62c-.67.65-.89-.34-1.35-.5-.65-.23-1.34-.38-1.85.28-1.09,1.39-1-.44-1.48-.55Z" transform="translate(-0.28 0.07)" fill="#fff"/>
  <path d="M563.52,174.86c.08-2.39.43-2.9,2-2.81,1.78.11,2.37.8,2.26,2.67-.1,1.67-.88,2.64-2.13,2.66C564.19,177.41,563.47,176.53,563.52,174.86Zm1.22-.34c.14.62-.13,1.54.89,1.51.86,0,1-.73,1-1.48s-.28-1.36-1.16-1.29-.8.66-.73,1.26Z" transform="translate(-0.28 0.07)" fill="#fff"/>
  <path d="M595,137.81c0,1.8-1,3.15-2.26,3.19a2.62,2.62,0,0,1-2.52-2.63c0-1.78.85-2.82,2.51-2.88C594.19,135.39,595,136.19,595,137.81Zm-2.1,1.82a1.82,1.82,0,0,0,.74-1.88,1,1,0,0,0-1-1l-.17,0c-1,.07-.94.82-.92,1.49s.34,1.25,1.38,1.29Z" transform="translate(-0.28 0.07)" fill="#fff"/>
  <path d="M507.6,112.2c-2.75,3.18-7.53,6.94-9.92,7.61l9.58-8.1Z" transform="translate(-0.28 0.07)" fill="#fff"/>
  <path d="M571.93,174.64c-.32.5-.75.42-1.11.55a3.37,3.37,0,0,0-.67.44c.25.46.71.39,1,.57.58.33.54.84,0,1.06a1.73,1.73,0,0,1-2.24-1,1.46,1.46,0,0,1-.11-.41,12,12,0,0,1,0-1.47c0-2.63.16-2.71,3.15-1.9-.13,1-1.13.48-1.59.89C570.47,174.29,571.63,173.81,571.93,174.64Z" transform="translate(-0.28 0.07)" fill="#fff"/>
  <path d="M551.51,173.12c-.51.58-1.09,0-1.64.09a1.41,1.41,0,0,0-1.06,2.31,1,1,0,0,0,1,.47c.61-.07.47-.49.35-.85s-.08-.76.43-.82a1.22,1.22,0,0,1,1.1.23,2.09,2.09,0,0,1-.68,2.78,3.57,3.57,0,0,1-3.12-1.16,2.7,2.7,0,0,1,.18-3.48,2.43,2.43,0,0,1,3.39-.11C551.55,172.65,551.5,172.93,551.51,173.12Z" transform="translate(-0.28 0.07)" fill="#fff"/>
  <path d="M544.24,183.73c-1.52-1.39-1.52-1.39-3,.09-.59-.77-.28-1.66-.28-2.48,0-1.75.28-1.92,2-1.88,1.19,0,1.84.41,1.59,1.73C544.41,182,544.72,182.91,544.24,183.73Zm-1.66-3.3c-.32.1-.51.39-.37.62s.48.21.74.21.3-.2.21-.41-.22-.53-.58-.42Z" transform="translate(-0.28 0.07)" fill="#fff"/>
  <path d="M589.22,175.7c.46.77,1.8,0,2,1.17-1.79.65-2.72.63-3.22-.09a9,9,0,0,1,0-4.25,2.16,2.16,0,0,1,2.43-.38c1.19.39.19.89,0,1.44C590.11,174.46,589.69,175.47,589.22,175.7Z" transform="translate(-0.28 0.07)" fill="#fff"/>
  <path d="M587.91,136.88c.36.88,1.24.58,1.48,1.3a2.47,2.47,0,0,1-.53.49c-.67.39-1.39.73,0,1a.54.54,0,0,1,.48.59h0c0,.4-.36.4-.63.45-2.05.33-2.59-.14-2.67-2.29-.1-2.61.16-3,2-3,.57,0,1.22-.09,1.41.7C589.48,136.33,589.47,136.33,587.91,136.88Z" transform="translate(-0.28 0.07)" fill="#fff"/>
  <path d="M582.75,169.43c-.69.7-1.41.41-2.06.43-.9,0-1.18-.51-1.16-1.31a14.16,14.16,0,0,0,0-2.06c-.15-1.42.45-2,1.85-1.84.55.07,1.36-.09,1.31.73s-.89.49-1.42.55a.34.34,0,0,0-.39.38c.21.85,1.73-.1,1.6,1.06-.08.73-1,.46-1.47.69C581,169.19,582.41,168.56,582.75,169.43Z" transform="translate(-0.28 0.07)" fill="#fff"/>
  <path d="M598.12,144.54c.63.5,1.72,0,1.7,1,0,.8-.93.46-1.4.73.11,1.07,1.71.34,1.8,1.64-1.21.48-2.68.69-3.32-.47a4.43,4.43,0,0,1,0-4.21c.89-1.42,2.25-.07,3.43,0C600.16,144.57,599,144.06,598.12,144.54Z" transform="translate(-0.28 0.07)" fill="#fff"/>
  <path d="M549,181.94l-1.66.9c.28.78,1.53.32,1.71,1.42-1.12.14-2.45.75-3.07-.51a4.14,4.14,0,0,1,.08-3.91c.64-1,1.86-.4,2.89-.23-.25,1.13-1.3.42-1.62,1.13C547.41,181.64,548.5,181.1,549,181.94Z" transform="translate(-0.28 0.07)" fill="#fff"/>
  <path d="M546.76,176.55a1.46,1.46,0,0,1-1.67-.51c-.36-.32-.46-.88-1-1-.87.15,0,1.62-1.39,1.55a12.79,12.79,0,0,1-.15-3.6c0-.38.08-.79.55-.92a1,1,0,0,1,1.26.46c.3.5.54,1,.81,1.55.41-.2.34-.6.41-1s.25-.75.76-.66c.35.06.42.36.43.65C546.77,174.25,546.76,175.41,546.76,176.55Z" transform="translate(-0.28 0.07)" fill="#fff"/>
  <path d="M487.24,29.52c2.49.2,4.43,1.7,6.73,2.56-.7.88-1.18.2-1.68.19-.68,0-1.15-.59-2.18.17s-3.2-.1-4.56-1.24l.5-.42h1.05c.54,0,.48-.31.17-.62Z" transform="translate(-0.28 0.07)" fill="#fff"/>
  <path d="M578.06,155a5.75,5.75,0,0,1,.1-4.93c.39,1.18.59,2.2,1.69,2.18s.37-1.38,1.32-1.85c.43,1.53,1,3,.06,4.52-.9-.17-.56-1.64-1.69-1.61S578.76,154.48,578.06,155Z" transform="translate(-0.28 0.07)" fill="#fff"/>
  <path d="M587.41,154.39l.08-.14-.1-.13c.63-.63,1.47.7,2.09-.25-.08-.91-1-.73-1.5-1.11s-1-1-.56-1.73a2.1,2.1,0,0,1,2.37-.77c.62.1,1.09.48.92,1.22a1.71,1.71,0,0,0,0,1.33c.39.79.55,1.94-.3,2.41a2.11,2.11,0,0,1-2.91-.67Z" transform="translate(-0.28 0.07)" fill="#fff"/>
  <path d="M559.06,145c.06-2,.23-2.26,1.77-2.18,1.94.11,2.51.66,2.49,2.44s-.66,2.69-2.22,2.7C559.29,148,559,147.55,559.06,145Zm1.11.5c.18.47-.23,1.45.86,1.37a1.24,1.24,0,0,0,1.14-1.33.34.34,0,0,0,0-.1A1.33,1.33,0,0,0,561,144C560,143.89,560.31,144.81,560.17,145.52Z" transform="translate(-0.28 0.07)" fill="#fff"/>
  <path d="M599.69,177.2a8.2,8.2,0,0,1-.31-4.11,1,1,0,0,1,1-1,.55.55,0,0,1,.18,0c.74,0,1.86-.38,2.07.47s-.06,2.28-.58,2.54C601.07,175.56,600.76,176.65,599.69,177.2Z" transform="translate(-0.28 0.07)" fill="#fff"/>
  <path d="M579.66,129c-1,.09-2.42-.5-1.64,1.62.14.37-2.14.66-1.84,2.93a5.64,5.64,0,0,1-.88-4.71c.1-.88,1.05-1,1.87-1s1.56.79,2.47.53A4.42,4.42,0,0,1,579.66,129Z" transform="translate(-0.28 0.07)" fill="#fff"/>
  <path d="M574.8,140.71c-1.91-.91-3.14-2.38-4.73.29a8.5,8.5,0,0,1,1.33-4.88c.55-1,1.37-.74,1.78.12C573.74,137.44,574.1,138.74,574.8,140.71Z" transform="translate(-0.28 0.07)" fill="#fff"/>
  <path d="M450.08,165.88a6,6,0,0,1-2.85.22c.4-.41.53-.72-.15-1a31.06,31.06,0,0,1-4.05-2.2,5.84,5.84,0,0,1,3.4.7c1.41.81,2.7,1.11,3.83-.44.16-.22.5-.24.83,0C451.57,164.31,449.7,164.71,450.08,165.88Z" transform="translate(-0.28 0.07)" fill="#fff"/>
  <path d="M506.06,104.46c-1,.51-1.31,1.77-2.41,2.16.52-.55.38-.92-.29-1.21s-.95.16-1.12.72c-.18.31-.36.31-.55,0-1.32-1.27-1.86-1.27-2.35,0h-.07c.18-.72-1.07-.92-.48-1.88,1.57-.07,3.2-1,5.07-.08C504.3,104.44,505.41,103.33,506.06,104.46Z" transform="translate(-0.28 0.07)" fill="#fff"/>
  <path d="M606.19,132.81l-.24-1.1c.33-1.38.42-3.28,2.18-3.27,1.45,0,1.09,2,1.74,3,.26.4.5.94.15,1.35-.61.69-1-.07-1.4-.36C607.71,131.86,607,132.62,606.19,132.81Z" transform="translate(-0.28 0.07)" fill="#fff"/>
  <path d="M582.13,177.13c-1.77-1.79-1.77-1.79-3.49-.59a6.71,6.71,0,0,1-.23-2.56c-.12-1.3.33-2,1.78-1.95s1.9.35,1.93,2.11C582.14,175,582.13,175.81,582.13,177.13Zm-1.58-3.52a1.21,1.21,0,0,0-.38-.18c-.24,0-.31.12-.18.32s.16.13.21.11a1.72,1.72,0,0,0,.35-.25Z" transform="translate(-0.28 0.07)" fill="#fff"/>
  <path d="M493.72,120.81h1.74c-.19,1.08.54,2.47-1.12,3.07-.71.26-.76,1.1-1,1.7a19.7,19.7,0,0,1-3.21,5.77V130A23.85,23.85,0,0,0,493.72,120.81Z" transform="translate(-0.28 0.07)" fill="#fff"/>
  <path d="M536.77,184.21c-.91-1.2-.31-2.59-.38-3.89,0-.75.57-.9,1.19-.95s1.15-.42,1.6.18c.15.19.34.49-.07.7-1.53.81,1,1.09.24,1.83-.54.54-1.57.32-1.85,1.26C537.41,183.69,537.31,184.08,536.77,184.21Z" transform="translate(-0.28 0.07)" fill="#fff"/>
  <path d="M612.29,170a4.44,4.44,0,0,1-.47-2.68.92.92,0,0,0-.62-1.13c-.44-.18-1-.38-.68-1,.18-.41.61-.44,1-.46s1,0,1.46,0,1.29-.18,1.58.45c.35.79-.45.87-.91,1.16s-.37,1-.44,1.58S613.5,169.46,612.29,170Z" transform="translate(-0.28 0.07)" fill="#fff"/>
  <path d="M612.9,133.22c-.77-1.27-.89-2.72-1.9-3.71a.85.85,0,0,1-.1-1.2l.1-.1a.77.77,0,0,1,1,.17c.91.92,1.65.7,2.37-.21a.54.54,0,0,1,.78,0h0c.28.16.43.55.24.72C614.13,130,614.1,131.86,612.9,133.22Z" transform="translate(-0.28 0.07)" fill="#fff"/>
  <path d="M582.26,160.81a.81.81,0,0,0-.33,1c-1.51,1.22-3.22,1-3.56-.57a5.59,5.59,0,0,1,.21-3.5,2.53,2.53,0,0,1,.59,2.31,1.11,1.11,0,0,0,.88,1.31,1.15,1.15,0,0,0,.32,0c1,0,1-.66,1-1.42s-1-1.78.6-2c0,.69-.24,1.48.57,2Z" transform="translate(-0.28 0.07)" fill="#fff"/>
  <path d="M484.85,177.81a10.85,10.85,0,0,1-2.11,3.35c-.5.53-.84,1-.33,1.75a.16.16,0,0,1-.21,0,.11.11,0,0,1,0-.06.64.64,0,0,0-.7.64v-.15h.15l-1.23.94c-1.1-.67-.94,1-1.72.93l-.57-.51c1.39-2.42,3.75-4.09,5.08-6.56C483.59,177.31,484.21,177.39,484.85,177.81Z" transform="translate(-0.28 0.07)" fill="#fff"/>
  <path d="M520.69,93.2a15.21,15.21,0,0,0-2.18,3.66c-.29.76-.93,1.41-1.8.8s-.91-1.32-.2-2.25A5.65,5.65,0,0,1,520.69,93.2Z" transform="translate(-0.28 0.07)" fill="#fff"/>
  <path d="M537.67,175.42a.65.65,0,0,0-.55-.65c-1-.34-1.51-1-1.19-2s1.26-1.05,2.15-1c.58.07,1.3.16,1.15.94s-1,.28-1.61.56c1.1.75,2.54,1.34,1.52,3.06a1.15,1.15,0,0,1-1.42.66c-.6-.21-1.43-.1-1.65-1-.14-.53.18-.66.63-.63S537.41,175.7,537.67,175.42Z" transform="translate(-0.28 0.07)" fill="#fff"/>
  <path d="M406.66,102.87c-1.21.67-1.2-.29-1.36-1a40.21,40.21,0,0,1,5.77-7.35c-.27,1.82-1.46,3.08-2.45,4.45-.72,1-1.68,1.82-2,3.08V102a.47.47,0,0,0-.54.38.28.28,0,0,0,0,.09C406.12,102.81,406.34,102.89,406.66,102.87Z" transform="translate(-0.28 0.07)" fill="#fff"/>
  <path d="M571.41,152.81c-.08-2.33.23-2.69,2-2.62.73,0,1.47.16,1.6.94a1.81,1.81,0,0,1-.67,2.06,4.67,4.67,0,0,1-1.09.37c-.71.19-.27,1.75-1.52,1.27a.35.35,0,0,1-.18-.2A3.23,3.23,0,0,1,571.41,152.81Z" transform="translate(-0.28 0.07)" fill="#fff"/>
  <path d="M622.77,179.89,620.41,185c-.22-2.27-1.69-3.4-1.93-5.17A9.15,9.15,0,0,0,622.77,179.89Z" transform="translate(-0.28 0.07)" fill="#fff"/>
  <path d="M567.86,183.14a1.8,1.8,0,0,1-.11.56c-.7,1.35-1.89-1.12-2.59.32-.52-.26-.55-.78-.58-1.24a4.84,4.84,0,0,1,.16-1.42c.15-.67-.23-1.81,1-1.71.88.07,1.18.88,1,1.76S567.7,182.41,567.86,183.14Z" transform="translate(-0.28 0.07)" fill="#fff"/>
  <path d="M586.65,173l-1.78.54c.13,1.1,1.19.45,1.67,1.14-.42.76-1.65.13-2,.91.38,1.13,1.75,0,2.1,1.08-.06.16-.08.43-.17.46-.94.27-1.9.49-2.67-.39-.57-.68-.84-3.68-.25-4.17C584.5,171.81,585.59,172,586.65,173Z" transform="translate(-0.28 0.07)" fill="#fff"/>
  <path d="M603.33,164.66c2.52,1.16,2.52,1.16,4.71.3l-2.32,5.39C605.41,168,604.32,166.66,603.33,164.66Z" transform="translate(-0.28 0.07)" fill="#fff"/>
  <path d="M567.12,167.51c-.34.52-1.17.1-1.42.75.28.9,1.5.23,1.88,1.18-.53.65-1.25.33-1.82.25-1.37-.19-2.1-2-1.43-4,.6-1.76,1.9-.93,3.13-.8-.36,1.18-1.33.41-1.88,1.41C565.41,167.09,567,166.4,567.12,167.51Z" transform="translate(-0.28 0.07)" fill="#fff"/>
  <path d="M474.41,28.42a.46.46,0,0,1,.48,0c-1.71,3.29-4.3,5.91-6.65,8.72l-.5-.58A37.53,37.53,0,0,1,474.41,28.42Z" transform="translate(-0.28 0.07)" fill="#fff"/>
  <path d="M598.2,140.89c-1.53.07-2.54-.38-2.24-2,.19-1-1-2.62.26-2.82,1.66-.25.64,1.53.89,2.38a1.2,1.2,0,0,0,1.2,1c.48,0,1.09.1,1.05.71C599.32,141,598.58,140.81,598.2,140.89Z" transform="translate(-0.28 0.07)" fill="#fff"/>
  <path d="M401.34,106.11c.07,1-.62,1.13-1.35,1.22.1-2.82,0-5.67,1-8.41,1,1.42.34,2.93.26,4.36A6.75,6.75,0,0,0,401.34,106.11Z" transform="translate(-0.28 0.07)" fill="#fff"/>
  <path d="M557.23,157.88c1.67,0,1.07,1.84,2.1,2.22.89-.51.58-1.88,1.65-2.29a10.21,10.21,0,0,1-.93,4.14c-.49.61-1.11.53-1.43,0A7.65,7.65,0,0,1,557.23,157.88Z" transform="translate(-0.28 0.07)" fill="#fff"/>
  <path d="M437.84,33.05a11,11,0,0,1,3.69.5c1,.19,2.07.52,3-.2.12.13.23.26.36.39.77,1.2,1.69.55,2.59.22l.47.48c.49,1.16.24,1.6-1.09,1.32-2.64-.55-5.29-1-7.94-1.5H439l-1.21-.66Z" transform="translate(-0.28 0.07)" fill="#fff"/>
  <path d="M476,138.37c.24.67.83.72,1.41.78l-3.61,4.77a1.47,1.47,0,0,0-1.47-.87Z" transform="translate(-0.28 0.07)" fill="#fff"/>
  <path d="M504.28,152a1.19,1.19,0,0,1,.53,0,26.47,26.47,0,0,1-1.41,8.91A22,22,0,0,1,504.28,152Z" transform="translate(-0.28 0.07)" fill="#fff"/>
  <path d="M520,89.51a2.89,2.89,0,0,0-.85,2,1.18,1.18,0,0,1-1.08,1.27.89.89,0,0,1-.23,0,1.59,1.59,0,0,1-1.41-1.61,6,6,0,0,1,.83-3.36h1c.11.76.45,1.22,1.31,1Z" transform="translate(-0.28 0.07)" fill="#fff"/>
  <path d="M460.21,173.64c.1-.94-.75-1.35-1.13-2-.07-1.3.18-2.37,1.76-2.52l-.07-.05A10.31,10.31,0,0,0,461,172c.28.74.57,1.48,1.59,1.33l-.07-.06c-.12.12-.32.24-.35.38-.1.69-.34,1.38-1.11,1.35C460.48,174.9,460.69,174,460.21,173.64Z" transform="translate(-0.28 0.07)" fill="#fff"/>
  <path d="M536.12,146.59v-.05c-.25-.46-.55-.79-1.12-.47a4.57,4.57,0,0,1-1.25.67c-.93.14-1.82-.08-2-1.19a1.48,1.48,0,0,1,1.17-1.75,1.5,1.5,0,0,1,1.93.88,2.5,2.5,0,0,1,.07.26c.13.45,0,1,.14,1.41S535.72,146.75,536.12,146.59Z" transform="translate(-0.28 0.07)" fill="#fff"/>
  <path d="M579.66,129a5.61,5.61,0,0,0,0-.58c1.1-.89,2.22.07,3.56-.36-.15,1.29-1.71,1.29-1.42,2.52.18.75.42,1.78-.58,2.42C579.77,132,581.57,129.81,579.66,129Z" transform="translate(-0.28 0.07)" fill="#fff"/>
  <path d="M534.24,174.39c-.12,1.18-.65,1.76-1.7,1.71s-1.75-.51-1.65-1.55a1.63,1.63,0,0,1,1.67-1.59h.05a1.45,1.45,0,0,1,1.62,1.24A1.21,1.21,0,0,1,534.24,174.39Z" transform="translate(-0.28 0.07)" fill="#fff"/>
  <path d="M467.3,40.74c-1,.38-1.95,2.09-3,0a13.74,13.74,0,0,1,3.39-4.26l.5.58C467.58,38.24,466.07,39.15,467.3,40.74Z" transform="translate(-0.28 0.07)" fill="#fff"/>
  <path d="M567.86,183.14c-.16-.73-1.26-.82-1.15-1.73,1.27.31.82-1,1.27-1.4a1.15,1.15,0,0,1,1-.37.76.76,0,0,1,.7.76,14.59,14.59,0,0,1,0,2.29C569.55,184.12,569.35,184.15,567.86,183.14Z" transform="translate(-0.28 0.07)" fill="#fff"/>
  <path d="M442.7,41.29l5,1c.58.12,1.18.29,1.31,1,.09.46,0,1.21-.6,1C446.56,43.48,444.3,43.6,442.7,41.29Z" transform="translate(-0.28 0.07)" fill="#fff"/>
  <path d="M534.64,160a1.53,1.53,0,0,1-1.55,1.51,1.58,1.58,0,0,1-.38,0c-.92-.08-1.51-.56-1.36-1.52a1.67,1.67,0,0,1,1.87-1.44h0A1.46,1.46,0,0,1,534.64,160Z" transform="translate(-0.28 0.07)" fill="#fff"/>
  <path d="M451.61,49.38c-.47-1.12-2-1.9-.87-3.4.6-.79-1.06-1.14-.51-2.09.68-.34,1.39.28,2.41.06C451.81,45.81,452,47.57,451.61,49.38Z" transform="translate(-0.28 0.07)" fill="#fff"/>
  <path d="M512,46.64c-.72-1.66-2.5-2.38-3.51-3.86,2,.29,3.36,1.44,5.87,5l-.42.33c-.76-.38-1-1.5-2-1.52Z" transform="translate(-0.28 0.07)" fill="#fff"/>
  <path d="M495,115.64v-1.52c.31,0,.58.4.94-.14,1.48-2.17,1.48-2.17,4.26-2.57C499.06,113.71,497,114.58,495,115.64Z" transform="translate(-0.28 0.07)" fill="#fff"/>
  <path d="M546.29,146.68v.09c.72-.2.74-.78.8-1.38.08-.84-.24-1.77.59-2.61,1.12,1.54.58,3.09.42,4.56C547.17,147.69,547.13,146.26,546.29,146.68Z" transform="translate(-0.28 0.07)" fill="#fff"/>
  <path d="M534.94,130.5c0,.86-.21,1.56-1.24,1.54s-1.74-.37-1.8-1.44.92-1.36,1.74-1.53C534.74,128.86,534.85,129.7,534.94,130.5Z" transform="translate(-0.28 0.07)" fill="#fff"/>
  <path d="M494.91,106.68v.56a.75.75,0,0,0-.64,1c.2,1.23.37,2.47.56,3.7h-1l-1.35-5.89,1-.12A1.33,1.33,0,0,0,494.91,106.68Z" transform="translate(-0.28 0.07)" fill="#fff"/>
  <path d="M460.77,42c.12.69.27,1.4-.68,1.65,0-.33.47-.85,0-1-1.81-.47-3.2-2.38-5.39-1.57l-.41-.92,2.18-.16A11.45,11.45,0,0,1,460.77,42Z" transform="translate(-0.28 0.07)" fill="#fff"/>
  <path d="M548.06,150.91c.87.3,1.73.61,1.51,1.79a1.28,1.28,0,0,1-1.38,1.17h-.06c-1.13-.06-1.54-.71-1.44-1.76a1.23,1.23,0,0,1,1.24-1.2Z" transform="translate(-0.28 0.07)" fill="#fff"/>
  <path d="M553.3,155.19c-1.22-1.41-.4-3-1.1-4.28-.14-.25.41-.85,1-.84s.79.3.71.72C553.64,152.14,554.13,153.61,553.3,155.19Z" transform="translate(-0.28 0.07)" fill="#fff"/>
  <path d="M549.55,167.12a1.27,1.27,0,0,1-1.29,1.25h0c-1.12.06-1.57-.58-1.59-1.59a1.14,1.14,0,0,1,1.22-1.3A1.66,1.66,0,0,1,549.55,167.12Z" transform="translate(-0.28 0.07)" fill="#fff"/>
  <path d="M548.09,136.57c.81.11,1.51.29,1.55,1.11,0,1.1-.79,1.47-1.69,1.51a1.15,1.15,0,0,1-1.26-1,.81.81,0,0,1,0-.22C546.71,137,547.41,136.68,548.09,136.57Z" transform="translate(-0.28 0.07)" fill="#fff"/>
  <path d="M485.63,65.81c-.17.8-.53,1.5-1.48,1.42a1.3,1.3,0,0,1-1.25-1.35h0a1.39,1.39,0,0,1,1.35-1.41h.17C485.22,64.42,485.6,65,485.63,65.81Z" transform="translate(-0.28 0.07)" fill="#fff"/>
  <path d="M463.88,169.61h1c.47,1.59-.36,3.17,0,4.75a.43.43,0,0,1-.41,0c-.28-.93-.71-1.63-1.87-1.2l.07.06C462.54,171.86,463.85,171,463.88,169.61Z" transform="translate(-0.28 0.07)" fill="#fff"/>
  <path d="M457.94,70.73l-1.27-.54c.95-1.6.07-3.82,1.81-5.52C458.9,67,457.12,68.74,457.94,70.73Z" transform="translate(-0.28 0.07)" fill="#fff"/>
  <path d="M547.05,161.38c-1.26-1.13-1-2.2,0-3.28,1,.18,1.14,1.26,2.13,1.74Z" transform="translate(-0.28 0.07)" fill="#fff"/>
  <path d="M553.59,162.18c-1.28-1.08-.59-2.46-1.43-3.55-.35-.46.31-1.06.91-1.18s.83.39.81.89C553.82,159.62,553.69,160.9,553.59,162.18Z" transform="translate(-0.28 0.07)" fill="#fff"/>
  <path d="M495.91,136.86l-1-.2v.08c0-.46-.23-.65-.66-.66l.08.07a.6.6,0,0,0-.53-.66h-.13l.07.07a.6.6,0,0,0-.53-.66h0c-.36-1.34-2.1-1.56-2.29-3.09a22.11,22.11,0,0,1,5.37,4.65Z" transform="translate(-0.28 0.07)" fill="#fff"/>
  <path d="M518.22,87.87h-1a18,18,0,0,1,2.08-5.66l.39,1.25Z" transform="translate(-0.28 0.07)" fill="#fff"/>
  <path d="M511.77,70.22c-.43.8,1.12,2.5-.19,4.17C510.63,72.62,512.15,71.06,511.77,70.22Z" transform="translate(-0.28 0.07)" fill="#fff"/>
  <path d="M594.83,143a4.32,4.32,0,0,1,0,4.71A5.34,5.34,0,0,1,594.83,143Z" transform="translate(-0.28 0.07)" fill="#fff"/>
  <path d="M564.33,128.07c.08,1.84-.27,3.56.39,5.67C562.65,131.81,562.63,130,564.33,128.07Z" transform="translate(-0.28 0.07)" fill="#fff"/>
  <path d="M520.28,57.7c0,1.16,1.7,1.66,1.2,3l-1.29-.55h-.72c.37-1.21.21-1.38-1.06-1.14l.07.07c.56-.32-.2-1,.32-1.3s.38-.93.34-1.44Z" transform="translate(-0.28 0.07)" fill="#fff"/>
  <path d="M437.84,33.05v.6a24.61,24.61,0,0,1-5.31-1.12v-1A15.87,15.87,0,0,1,437.84,33.05Z" transform="translate(-0.28 0.07)" fill="#fff"/>
  <path d="M428.16,70.81l-.77-.5a13.51,13.51,0,0,1,2.66-4.86C430.07,67.73,428.41,69,428.16,70.81Z" transform="translate(-0.28 0.07)" fill="#fff"/>
  <path d="M464.41,174.39a.43.43,0,0,0,.41,0c1.36-.18.89,1.52,1.83,1.78v.49C464.64,177.05,464.27,176.68,464.41,174.39Z" transform="translate(-0.28 0.07)" fill="#fff"/>
  <path d="M540.64,172.15c1.21,1.38.57,2.94.47,4.45C539.48,175.33,540.41,173.69,540.64,172.15Z" transform="translate(-0.28 0.07)" fill="#fff"/>
  <path d="M557.1,169.28a1.67,1.67,0,0,1-.4-1.66c.15-.91-.57-2.59.75-2.54,1.06,0,.4,1.75.52,2.71a1.19,1.19,0,0,1-.81,1.47Z" transform="translate(-0.28 0.07)" fill="#fff"/>
  <path d="M507.41,35.52h.08c-.54-1.86,1.1-2.35,2.05-3.27C509.67,33.88,508.41,34.62,507.41,35.52Z" transform="translate(-0.28 0.07)" fill="#fff"/>
  <path d="M501.41,143l-.63-.74c0-.44-.3-1.06-.09-1.3.4-.48.82,0,1.14.33s.89,1,1.32,1.45C502.59,143.58,501.85,142.25,501.41,143Z" transform="translate(-0.28 0.07)" fill="#fff"/>
  <path d="M459.06,61.27l1.59-2a1.7,1.7,0,0,1-.08,2.4l0,0a1.1,1.1,0,0,1-1.49-.41Z" transform="translate(-0.28 0.07)" fill="#fff"/>
  <path d="M512.55,65.41a.55.55,0,0,1,.38-.69h0l.36.32a2.68,2.68,0,0,0,0,.8c.07.21.27.12.46,0,.56-.52,1.16-1,1.74-1.51.12.14.25.28.38.41-.6.69-.92,1.63-1.84,2C513.14,66.71,512.41,66.54,512.55,65.41Z" transform="translate(-0.28 0.07)" fill="#fff"/>
  <path d="M451.86,58.44h-.94c.21-1.08-.2-2.28.74-3.71A8.46,8.46,0,0,1,451.86,58.44Z" transform="translate(-0.28 0.07)" fill="#fff"/>
  <path d="M475.85,145a4.1,4.1,0,0,1-1.84,2.87C473.85,146.44,474.86,145.75,475.85,145Z" transform="translate(-0.28 0.07)" fill="#fff"/>
  <path d="M512.55,65.41c-.13,1.13.59,1.3,1.46,1.3-.55,1.24-1.48,1.66-2.39.57C510.87,66.39,511.68,65.81,512.55,65.41Z" transform="translate(-0.28 0.07)" fill="#fff"/>
  <path d="M511.86,108.32a3.53,3.53,0,0,1,2.54-2.24A3.35,3.35,0,0,1,511.86,108.32Z" transform="translate(-0.28 0.07)" fill="#fff"/>
  <path d="M486.05,30.81l-.5.42A5.62,5.62,0,0,1,482.79,30c.53-.45,1.19.26,1.57-.39l-.06-.07c-.21.45-.06.72.43.76A1.78,1.78,0,0,1,486.05,30.81Z" transform="translate(-0.28 0.07)" fill="#fff"/>
  <path d="M523,90a1.11,1.11,0,0,0,1.13.73c-.27,1.41-1.79,1.18-2.49,2.29C520.59,91,523,91.14,523,90Z" transform="translate(-0.28 0.07)" fill="#fff"/>
  <path d="M502.63,69.56a2.23,2.23,0,0,1-2.32-1.51c1.6-.63,1.89.52,2.25,1.57Z" transform="translate(-0.28 0.07)" fill="#fff"/>
  <path d="M504,52.81c.94.56,1.43,1.48,2.23,2.85a4,4,0,0,1-2.51-2.48A4,4,0,0,1,504,52.81Z" transform="translate(-0.28 0.07)" fill="#fff"/>
  <path d="M474.06,41.65c.46-1.13,1.35-.77,2.29-1C475.82,42,474.88,41.67,474.06,41.65Z" transform="translate(-0.28 0.07)" fill="#fff"/>
  <path d="M462.41,51.26c-.53.25-1.39.26-1.43-.16-.06-.71.63-.44,1.06-.25C462.18,50.91,462.27,51.11,462.41,51.26Z" transform="translate(-0.28 0.07)" fill="#fff"/>
  <path d="M518,59.74a4.41,4.41,0,0,1-1.81,2.31l-.51-.48c.62-.76,1-1.73,2-2.12Z" transform="translate(-0.28 0.07)" fill="#fff"/>
  <path d="M455.41,158.3a1.12,1.12,0,0,1-.72,1.12c-.25.11-.54-.14-.6-.44a.94.94,0,0,1,.72-1.06C455.1,157.81,455.31,158,455.41,158.3Z" transform="translate(-0.28 0.07)" fill="#fff"/>
  <path d="M483.84,26.07l-1-.19a5.65,5.65,0,0,0,.41-2.47C483.93,24.22,484.87,24.94,483.84,26.07Z" transform="translate(-0.28 0.07)" fill="#fff"/>
  <path d="M486.84,164.81l-.18-.06v-.2c1,.35,1-1.33,2.18-.89C488.41,164.7,487.58,164.68,486.84,164.81Z" transform="translate(-0.28 0.07)" fill="#fff"/>
  <path d="M469.05,60.91a3,3,0,0,1-1.66,2.67C467.41,62.51,467.86,61.81,469.05,60.91Z" transform="translate(-0.28 0.07)" fill="#fff"/>
  <path d="M499.22,65.9c.48.14.87.43.72,1a.76.76,0,0,1-.65.37c-.46-.13-.91-.41-.76-1C498.6,66,498.91,65.89,499.22,65.9Z" transform="translate(-0.28 0.07)" fill="#fff"/>
  <path d="M469.66,43.81l-.05-1.26c.42-.33.52-1.06,1.43-1A3,3,0,0,1,469.66,43.81Z" transform="translate(-0.28 0.07)" fill="#fff"/>
  <path d="M500.56,110.67c.57-.82.9-1.54,1.78-1.59.11.09.25.18.24.21A2,2,0,0,1,500.56,110.67Z" transform="translate(-0.28 0.07)" fill="#fff"/>
  <path d="M516.93,50.56a2.93,2.93,0,0,1,1.51,2h0c-.91.74-1.15-.64-1.84-.58l.06.07c-.07-.34-.15-.68-.22-1Z" transform="translate(-0.28 0.07)" fill="#fff"/>
  <path d="M519.14,56.36c0,.51.13,1-.34,1.44a3.19,3.19,0,0,0-.9-1.93.69.69,0,0,1,.66-.41C519,55.59,519.13,55.94,519.14,56.36Z" transform="translate(-0.28 0.07)" fill="#fff"/>
  <path d="M402,96.51c0,.41-.05.79-.55.84a.49.49,0,0,1-.57-.39.28.28,0,0,1,0-.09.66.66,0,0,1,.45-.82l.13,0C401.81,96,401.93,96.2,402,96.51Z" transform="translate(-0.28 0.07)" fill="#fff"/>
  <path d="M398.6,132.62a1.11,1.11,0,0,1,.73,1.36c-.05.24-.25.3-.46.15a1,1,0,0,1-.37-1.36A.78.78,0,0,1,398.6,132.62Z" transform="translate(-0.28 0.07)" fill="#fff"/>
  <path d="M456,44.68a7,7,0,0,1-.07,3.35c-.69-1.09-.37-2.1-.43-3Z" transform="translate(-0.28 0.07)" fill="#fff"/>
  <path d="M405.7,64.2c-.13.15-.29.49-.48.52-.36,0-.35-.33-.34-.59s0-.61.38-.62S405.69,63.81,405.7,64.2Z" transform="translate(-0.28 0.07)" fill="#fff"/>
  <path d="M451.94,52.31c-.09.28.15.81-.49.71-.11,0-.26-.28-.25-.41,0-.34,0-.82.41-.9S451.87,52.06,451.94,52.31Z" transform="translate(-0.28 0.07)" fill="#fff"/>
  <path d="M509.41,116.93c-.21-.17-.43-.25-.47-.39a.67.67,0,0,1,.11-.53c.15-.21.36-.17.39,0A4.22,4.22,0,0,1,509.41,116.93Z" transform="translate(-0.28 0.07)" fill="#fff"/>
  <path d="M477.16,166l.15.92a3.09,3.09,0,0,1-.9,1.32l-.54-.52.23-1-.06.07Z" transform="translate(-0.28 0.07)" fill="#fff"/>
  <path d="M512.75,28c.11.1.31.18.33.29.07.45-.26.69-.57.92-.49.36-.44-.16-.43-.34C512.08,28.45,512.41,28.22,512.75,28Z" transform="translate(-0.28 0.07)" fill="#fff"/>
  <path d="M560.22,140.63l.55-.86c.44-.15.85,0,.78.44C561.41,141.05,560.75,140.74,560.22,140.63Z" transform="translate(-0.28 0.07)" fill="#fff"/>
  <path d="M515.5,50.81c.63-.35-.43-1.18.33-1.37s.87.57,1.1,1.08l-.45.41c-.34-.07-.57-.73-1-.18Z" transform="translate(-0.28 0.07)" fill="#fff"/>
  <path d="M413,91.52l.48.23a5,5,0,0,1-.49.62s-.36-.13-.38-.22A.53.53,0,0,1,413,91.52Z" transform="translate(-0.28 0.07)" fill="#fff"/>
  <path d="M478,186.17l-.92-.16,1-1.38.57.51-.26,1,.06-.07a.32.32,0,0,1-.44.11Z" transform="translate(-0.28 0.07)" fill="#fff"/>
  <path d="M467.84,147.87v.61c-.08.51-.41.66-.87.63h-.24l-.14-.2C466.7,148.22,467.22,148,467.84,147.87Z" transform="translate(-0.28 0.07)" fill="#fff"/>
  <path d="M512,46.6c-.12.12-.32.23-.33.35,0,.32.19.77-.42.7a.52.52,0,0,1-.31-.38c0-.67.46-.25.74-.3s.24-.21.36-.33Z" transform="translate(-0.28 0.07)" fill="#fff"/>
  <path d="M485.41,22.61a1.63,1.63,0,0,1-1.1-1.69,2,2,0,0,1,1.56,1.26Z" transform="translate(-0.28 0.07)" fill="#fff"/>
  <path d="M404.47,67.63a.59.59,0,0,1-.09-.51c.06-.27.19-.52.54-.43s.5.23.39.56S405.12,67.81,404.47,67.63Z" transform="translate(-0.28 0.07)" fill="#fff"/>
  <path d="M484.26,29h1.17a2,2,0,0,1,1.42.3,2.11,2.11,0,0,1-.21.31l-2.34-.07.06.07Z" transform="translate(-0.28 0.07)" fill="#fff"/>
  <path d="M515.46,63.16c.42.07,1.13,0,1.21.22.26.65-.36,1-.82,1.3-.13-.13-.26-.27-.38-.41,0-.39.53-.76.06-1.18Z" transform="translate(-0.28 0.07)" fill="#fff"/>
  <path d="M397.81,119.28v-.09a.72.72,0,0,1-1,0,.8.8,0,0,1-.15-.21.39.39,0,0,1,.13-.55.36.36,0,0,1,.2-.06C397.58,118.35,397.81,118.74,397.81,119.28Z" transform="translate(-0.28 0.07)" fill="#fff"/>
  <path d="M472.24,169.61a1.67,1.67,0,0,1-.28.46c-.19.17-.42.11-.44-.13a.73.73,0,0,1,.27-.47C472,169.3,472.15,169.37,472.24,169.61Z" transform="translate(-0.28 0.07)" fill="#fff"/>
  <path d="M514.41,62.81l1.24-1.26.51.48-.74,1.11.07-.07a1.49,1.49,0,0,0-.55.1Z" transform="translate(-0.28 0.07)" fill="#fff"/>
  <path d="M514.41,47.81c.41.21,1,.56.58,1s-.73-.3-1-.64Z" transform="translate(-0.28 0.07)" fill="#fff"/>
  <path d="M514.15,50.81c-.19-.19-.36-.41-.2-.68,0-.06.33,0,.4,0,.34.38.18.6-.28.69Z" transform="translate(-0.28 0.07)" fill="#fff"/>
  <path d="M475.61,169.25c0-.42-.09-.83-.13-1.25a.34.34,0,0,1,.36-.32h0l.54.52Z" transform="translate(-0.28 0.07)" fill="#fff"/>
  <path d="M519.47,60.17h.72a5.06,5.06,0,0,1-.53.69.41.41,0,0,1-.58,0,.33.33,0,0,1-.11-.15C518.89,60.48,519.16,60.25,519.47,60.17Z" transform="translate(-0.28 0.07)" fill="#fff"/>
  <path d="M457.05,171.81c-.75,0-.27-.6-.4-.9C457.27,171,457.41,171.27,457.05,171.81Z" transform="translate(-0.28 0.07)" fill="#fff"/>
  <path d="M509.89,68.81c-.15.33-.27.7-.75.64-.06,0-.15-.15-.15-.22a.69.69,0,0,1,.6-.77h0Z" transform="translate(-0.28 0.07)" fill="#fff"/>
  <path d="M493.07,86.74l.34-.45c.08.14.24.29.23.42s-.2.27-.31.4Z" transform="translate(-0.28 0.07)" fill="#fff"/>
  <path d="M491.72,88.17a1.43,1.43,0,0,1,.35-.3c.19-.08.33,0,.33.26,0,.07-.12.21-.17.21A3.39,3.39,0,0,1,491.72,88.17Z" transform="translate(-0.28 0.07)" fill="#fff"/>
  <polygon points="411.29 93.12 411.33 93.39 411.44 93.15 411.29 93.12" fill="#fff"/>
  <path d="M523.93,98a.79.79,0,0,1-.55.63l-.47-.46.46-.66Z" transform="translate(-0.28 0.07)" fill="#fff"/>
  <path d="M523.41,98.66c-.19.29-.36.78-.78.39s.1-.6.31-.85Z" transform="translate(-0.28 0.07)" fill="#fff"/>
  <path d="M418.35,84.81a.4.4,0,0,1,.09.49l-.21.54-.53-.45C417.77,85,417.94,84.81,418.35,84.81Z" transform="translate(-0.28 0.07)" fill="#fff"/>
  <path d="M466.65,176.65v-.49l.59-.06v.56Z" transform="translate(-0.28 0.07)" fill="#fff"/>
  <path d="M509.61,68.41a.55.55,0,0,1,.52-.58h.08l.16.23a.76.76,0,0,1-.49.7Z" transform="translate(-0.28 0.07)" fill="#fff"/>
  <path d="M510.21,67.81c.06-.25.19-.56.46-.29s0,.47-.31.52C510.41,68.06,510.21,67.81,510.21,67.81Z" transform="translate(-0.28 0.07)" fill="#fff"/>
  <path d="M486.29,173l-.51-.38c.05,0,.14-.07.16,0a3.61,3.61,0,0,0,.35.44Z" transform="translate(-0.28 0.07)" fill="#fff"/>
  <path d="M513,64.71a.73.73,0,0,1,.62-.57l.27.26a.56.56,0,0,1-.48.63h-.05Z" transform="translate(-0.28 0.07)" fill="#fff"/>
  <path d="M513.57,64.14a1.14,1.14,0,0,1,.47-.9l.43.61a.64.64,0,0,1-.63.55Z" transform="translate(-0.28 0.07)" fill="#fff"/>
  <path d="M514,63.24l.37-.43.53.36a.58.58,0,0,1-.49.66h0Z" transform="translate(-0.28 0.07)" fill="#fff"/>
  <path d="M518.28,62.25c-.27.21-.47.74-.89.37s0-.62.31-.84Z" transform="translate(-0.28 0.07)" fill="#fff"/>
  <path d="M517.7,61.81c.12-.27.37-.56.63-.44.57.28.13.61,0,.91Z" transform="translate(-0.28 0.07)" fill="#fff"/>
  <path d="M460.84,169.09c-.23-.14-.23-.28,0-.39h.25l-.32.32Z" transform="translate(-0.28 0.07)" fill="#fff"/>
  <path d="M517.72,59.45c.16-.32.35-.57.76-.35l-.07-.07c.14.39-.09.58-.4.71Z" transform="translate(-0.28 0.07)" fill="#fff"/>
  <path d="M496.26,136.51c.16.19.47.52.44.56-.37.44-.58.1-.79-.21Z" transform="translate(-0.28 0.07)" fill="#fff"/>
  <path d="M447.72,46.32v.18s-.23.11-.31-.11a.66.66,0,0,1,.17-.16C447.65,46.2,447.67,46.29,447.72,46.32Z" transform="translate(-0.28 0.07)" fill="#fff"/>
  <path d="M444.57,33.35l.62-.67.41.56c-.08.35-.36.45-.67.5C444.8,33.61,444.69,33.48,444.57,33.35Z" transform="translate(-0.28 0.07)" fill="#fff"/>
  <path d="M446.23,32.68a.7.7,0,0,1-.63.56l-.41-.56.48-.46Z" transform="translate(-0.28 0.07)" fill="#fff"/>
  <path d="M487.24,29.52v.62c-.38,0-.63-.1-.63-.52a2.11,2.11,0,0,0,.21-.31.27.27,0,0,1,.37.07A.24.24,0,0,1,487.24,29.52Z" transform="translate(-0.28 0.07)" fill="#fff"/>
  <path d="M467,149.11a1,1,0,0,1-.81.63,3.58,3.58,0,0,0-.26-.29.75.75,0,0,1,.69-.51l.14.2Z" transform="translate(-0.28 0.07)" fill="#fff"/>
  <path d="M479.81,142.43l-.44-.4c.06,0,.16-.05.17,0s.18.29.27.44Z" transform="translate(-0.28 0.07)" fill="#fff"/>
  <path d="M482.33,19.81c-.06.06-.11.16-.17.16s-.12-.09-.18-.15.11-.16.17-.16S482.27,19.73,482.33,19.81Z" transform="translate(-0.28 0.07)" fill="#fff"/>
  <path d="M466.63,79.56c2.3-.4,3.42,1.33,4.76,2.65l.69.91-.14-.11.11-.15c.17.7.66.82,1.28.73h.06l-.27,1a.84.84,0,0,0,.64,1h0l-.07-.08a1.57,1.57,0,0,1,.06.53l-.17,1.53-4.71-4.28c.5-.26.4-.55,0-.84l-1.1-.87c.48-.21.5-.5.07-.76a12.17,12.17,0,0,0-1.27-.59l.08.07Z" transform="translate(-0.28 0.07)" fill="#fff"/>
  <path d="M420.08,138c-.56-1.08-2-1.43-2.3-3,1.61.09,2.05,1.54,3,2.29Z" transform="translate(-0.28 0.07)" fill="#fff"/>
  <path d="M452.93,82.61c-.25-.12-.52-.22-.76-.35a.58.58,0,0,1-.34-.75.76.76,0,0,1,.12-.19c.1-.14.32-.31.45-.28.55.12.39.53.26.87a.75.75,0,0,0,.17.78Z" transform="translate(-0.28 0.07)" fill="#fff"/>
  <path d="M426,82.58c.36,0,.78-.21,1,.19a1.51,1.51,0,0,1-.49.6,7.18,7.18,0,0,1-1,.5l-.09-.72a.75.75,0,0,0,.63-.65Z" transform="translate(-0.28 0.07)" fill="#fff"/>
  <path d="M417.49,108.37v.74a2.81,2.81,0,0,1-.16-.49A.73.73,0,0,1,417.49,108.37Z" transform="translate(-0.28 0.07)" fill="#fff"/>
  <path d="M467.88,147.27a2.51,2.51,0,0,1-1.86-1.7c-.42-1.08-.86-2.15-1.3-3.25,2.5.69,2.88,1.11,3.77,4.19A1,1,0,0,1,467.88,147.27Z" transform="translate(-0.28 0.07)" fill="#fff"/>
  <path d="M471.34,143.57l.63-.12Q471.76,144.05,471.34,143.57Z" transform="translate(-0.28 0.07)" fill="#fff"/>
  <path d="M454.27,37.3a11.31,11.31,0,0,1-5.91-1.7c2,.28,4.08.09,6,1.09Z" transform="translate(-0.28 0.07)" fill="#fff"/>
  <path d="M494.17,118.4c-.07.16-.09.39-.21.45a.42.42,0,0,1-.57-.13.5.5,0,0,1-.05-.13.53.53,0,0,1,.2-.45C493.81,118,494,118.12,494.17,118.4Z" transform="translate(-0.28 0.07)" fill="#fff"/>
  <path d="M466,43.34c0,.19-.23.33-.53.37s-.8,0-.87-.5.2-.52.51-.57A.72.72,0,0,1,466,43.34Z" transform="translate(-0.28 0.07)" fill="#fff"/>
  <path d="M515.61,55.08c.07.39,0,.74-.44.83a.52.52,0,0,1-.36-.29.8.8,0,0,1,.54-.85A.86.86,0,0,1,515.61,55.08Z" transform="translate(-0.28 0.07)" fill="#fff"/>
  <path d="M513.65,57c0-.39,0-.73.48-.8a.51.51,0,0,1,.33.3.8.8,0,0,1-.52.84A.74.74,0,0,1,513.65,57Z" transform="translate(-0.28 0.07)" fill="#fff"/>
  <path d="M510.65,60.58c0-.38.2-1,.52-.78.58.33.11.79-.2,1.14A2.74,2.74,0,0,1,510.65,60.58Z" transform="translate(-0.28 0.07)" fill="#fff"/>
  <path d="M510.41,61.54a.72.72,0,0,1-.86.42.27.27,0,0,1-.21-.32.21.21,0,0,1,0-.1.61.61,0,0,1,.67-.3A1.31,1.31,0,0,1,510.41,61.54Z" transform="translate(-0.28 0.07)" fill="#fff"/>
  <path d="M510,61.24a.85.85,0,0,1,.63-.66,2.74,2.74,0,0,0,.32.36l-.59.6A1.31,1.31,0,0,0,510,61.24Z" transform="translate(-0.28 0.07)" fill="#fff"/>
  <path d="M513.28,58c-.11.24-.31.47-.55.25s-.05-.44.21-.55A.76.76,0,0,1,513.28,58Z" transform="translate(-0.28 0.07)" fill="#fff"/>
  <path d="M513.94,57.37a.86.86,0,0,1-.66.66.76.76,0,0,0-.34-.3.75.75,0,0,1,.71-.7A.74.74,0,0,0,513.94,57.37Z" transform="translate(-0.28 0.07)" fill="#fff"/>
  <path d="M515.35,54.81c.2-.36.47-.71.79-.18.13.21-.23.44-.53.49A.86.86,0,0,0,515.35,54.81Z" transform="translate(-0.28 0.07)" fill="#fff"/>
  <path d="M461.46,33.08c-.67,0-.71-.42-.75-.89.09-.82-.62-1.56-.26-2.73C461.71,30.63,462.49,31.6,461.46,33.08Z" transform="translate(-0.28 0.07)" fill="#fff"/>
  <path d="M455.88,31.07c.08-.46.47-.61.82-.75s.85-.26,1,.22-.28.84-.81.89A1,1,0,0,1,455.88,31.07Z" transform="translate(-0.28 0.07)" fill="#fff"/>
  <path d="M480.79,184.37a.31.31,0,0,1-.39-.16l1.22-.94C481.76,183.94,481.49,184.32,480.79,184.37Z" transform="translate(-0.28 0.07)" fill="#fff"/>
  <path d="M482.18,182.75c0,.49-.15.77-.7.64C481.54,183,481.72,182.72,482.18,182.75Z" transform="translate(-0.28 0.07)" fill="#fff"/>
  <path d="M437.86,105.44c-.33-1.6-1.88-1.62-2.95-2-2.25-.85-4.63-1.38-7.23-2.12,0,1.33.76,2.2,1.62,2.13,2.9-.25,3.15,1.93,3.86,3.78.19.5.37.93-.18,1.24s-.74-.09-1-.35c-.85-.81-1.69-1.63-2.5-2.48a2.22,2.22,0,0,0-3.1-.52h0c-1.39.92-3,1.09-4.58,1.51-.38.1-1.21.24-1.49-.43a1.34,1.34,0,0,1,.43-1.33,17.68,17.68,0,0,1,4.28-3.52c-1.06-1.27-3,.06-4-1.66,2-.68,3.85-.15,5.59.12a58.35,58.35,0,0,1,7.39,1.75c.87.24,1.63.69,2.45,0,.37-.3.72-.35.79.22.14,1.28,1.23,1.35,2.08,1.76a66.28,66.28,0,0,1,22.23,16.83c1.58,1.86,2.16,4.28,3.76,6.1.43.48-.52,1.07.12,1.54V128c-1.36-.88-2-2.37-2.93-3.59-1.29-1.67-2.7-3.25-4.06-4.87a4.11,4.11,0,0,0-1.6-1.63,59.09,59.09,0,0,0-16.64-12c-.58-.27-1.15-.77-1.88-.38A.51.51,0,0,0,437.86,105.44Z" transform="translate(-0.28 0.07)" fill="#fff"/>
  <path d="M435.29,125.53a15.12,15.12,0,0,0-3.89-2.35l-1.11-.05a6.18,6.18,0,0,1,1.53-3.72c.39,2.31.4,2.29,2.41,3.88.6.49,1.17,1.3,1.95.52s2-1.44,1.55-2.87c-.14-.46-.5-.85-.3-1.58,1-.19,2.27,1,3.33-.12.78-.8,1.54-1.56.39-2.65a11.13,11.13,0,0,1-.95-1.11c.48-.7.95-.37,1.38,0,.63.58,1.24,1.18,1.84,1.78a1.36,1.36,0,0,0,1.91.09l.09-.09c.79.56.46,1.23.09,1.8a7.4,7.4,0,0,1-2.63,2.7,19.68,19.68,0,0,0-6.25,5.48Z" transform="translate(-0.28 0.07)" fill="#fff"/>
  <path d="M441.75,138.81c.09-.71.17-1.43.26-2.15l-.06.07a3.25,3.25,0,0,1,2,0c4.1,1.69,8.22,3.37,12.3,5.13,1.54.66,1.64,2,.39,3.5-.24.29-.12.53-.05.8h.16c-.66-1.35-2.35-1.58-3.08-2.55s-1.31-2.15-2.7-2.52c-1.59-.43-3-2.33-4.88-.69-.2.17-.89-.25-1.35-.4-.91-.3-1.77-.89-2.78-.37Z" transform="translate(-0.28 0.07)" fill="#fff"/>
  <path d="M463.15,140.71c-4-.2-7.7-1.85-11.64-2.35-1.79-1.71-4.66-1.72-6.38-4,1.39-.26,2.22.5,3.15.9a51.52,51.52,0,0,0,11.27,3.84c.67.12,1.64.64,1.38-.88-.07-.41.54-.38.91-.38.57,0,1,.26.74.88s.06.84.57,1Z" transform="translate(-0.28 0.07)" fill="#fff"/>
  <path d="M483.94,104.93a22.3,22.3,0,0,1,1.32,11.71c-.25,1.74-.15,3.53-.74,5.22,1.57,1.67,0,2.31-1.55,3.62a46.86,46.86,0,0,0,1.61-10.59A97.55,97.55,0,0,0,483.94,104.93Z" transform="translate(-0.28 0.07)" fill="#fff"/>
  <path d="M445.41,117.29a1.36,1.36,0,0,1-1.91.09l-.09-.09c-.6-.6-1.21-1.2-1.84-1.78-.43-.41-.9-.74-1.38,0a3.78,3.78,0,0,1-1.71-1.09c-.45-.42-1.37-1.14-.44-1.54.62-.27,1.11-1.75,2-.76C441.79,113.91,444.13,115.07,445.41,117.29Z" transform="translate(-0.28 0.07)" fill="#fff"/>
  <path d="M437.78,143.25l.83.1c-.76,1,.56,2.67-1.14,3.48-1.1.53-.11,2.07-1,2.83-.77-2.73-.7-3.06,1.38-6.46Z" transform="translate(-0.28 0.07)" fill="#fff"/>
  <path d="M453.5,147.45c-.34,2.21-1.93,3.48-2.64,5.57-.87-.86-1.14-2.15-2.39-2.17.08-.75.53-.73.84-.56,1.09.62,1.71.26,2.32-.77A12.24,12.24,0,0,1,453.5,147.45Z" transform="translate(-0.28 0.07)" fill="#fff"/>
  <path d="M458.1,85.08c2-1.57,4.09-1.17,6.23-.37C462.25,84.81,460.17,84.81,458.1,85.08Z" transform="translate(-0.28 0.07)" fill="#fff"/>
  <path d="M427,109c-1.23.65-2.45-.27-3.45.64-.34.31-.86-.24-.77-.81.17-1.09,1.23-1.12,1.93-1.62,1.06-.77,1.05.33,1.45.64A5,5,0,0,1,427,109Z" transform="translate(-0.28 0.07)" fill="#fff"/>
  <path d="M463.15,140.71v-1c.73-.26.5-1.49,1.54-1.47.48,0,1.3,0,1.26.34-.12.89.73,1.54.44,2.37-.07.18-.51.34-.75.31C464.81,141.11,464,140.89,463.15,140.71Z" transform="translate(-0.28 0.07)" fill="#fff"/>
  <path d="M423,114.27c-1.05,0-1.32-.86-2.14-1.1-1.58-.48-1.55-.57-.41-1.68a1,1,0,0,1,1.41-.1l.16.18C422.67,112.35,422.41,113.42,423,114.27Z" transform="translate(-0.28 0.07)" fill="#fff"/>
  <path d="M456.41,104c-.19.8-.58,1.46-1.51,1.46a1.17,1.17,0,0,1-1.12-1.14c-.16-1.07.57-1.35,1.42-1.4S456.2,103.34,456.41,104Z" transform="translate(-0.28 0.07)" fill="#fff"/>
  <path d="M431.93,132.54c.71,0,1.65-.65,1.9.57.14.7-.09,1.54-.92,1.58s-1.79-.27-1.47-1.56C431.75,133.06,432,132.94,431.93,132.54Z" transform="translate(-0.28 0.07)" fill="#fff"/>
  <path d="M444.83,94.46a8.4,8.4,0,0,1-2.78,4A6.9,6.9,0,0,1,444.83,94.46Z" transform="translate(-0.28 0.07)" fill="#fff"/>
  <path d="M435.29,125.53l1.36,1.74a4.53,4.53,0,0,1-2.45,2.38C435.07,128.37,434.52,126.81,435.29,125.53Z" transform="translate(-0.28 0.07)" fill="#fff"/>
  <path d="M477.88,92.51c-.43.13-.63.39-.46.84a6.61,6.61,0,0,1,0,4.08c-.7-1.19-.35-2.56-.76-3.81-.31-.94,1.11-.41,1.23-1.12Z" transform="translate(-0.28 0.07)" fill="#fff"/>
  <path d="M442,136.61c-1.24.35-1,2-2.41,2.57.36-2.26,1.49-3.87,2.69-5.88.64,1.57-.86,2.31-.34,3.38Z" transform="translate(-0.28 0.07)" fill="#fff"/>
  <path d="M437.86,105.44a.51.51,0,0,1,.48,0c-.33,1.78-1.51,3.09-2.45,4.53C436.41,108.39,436.54,106.66,437.86,105.44Z" transform="translate(-0.28 0.07)" fill="#fff"/>
  <path d="M433.35,148c-.45-1.18.27-1.44.54-1.9s.55-.75.44-1.3-1-.3-.62-1c.09-.14.58-.18.8-.08a1.22,1.22,0,0,1,.47,1.47A17.87,17.87,0,0,1,433.35,148Z" transform="translate(-0.28 0.07)" fill="#fff"/>
  <path d="M419.56,100.27c-.89.17-1.77.39-2.66.51a.67.67,0,0,1-.8-.5.5.5,0,0,1,0-.12c0-.68.56-.81,1-.65a2.2,2.2,0,0,0,2.4-.15Z" transform="translate(-0.28 0.07)" fill="#fff"/>
  <path d="M441.1,140.57c-.44,1-.86,1.89-2.22,1.08-.19-.11-.65.25-1,.39l-.35-.4c.45-.85.73-2,2.09-.89.13.1.73-.36,1.12-.56A4.27,4.27,0,0,0,441.1,140.57Z" transform="translate(-0.28 0.07)" fill="#fff"/>
  <path d="M427,137c0-1.3-.06-2.62.84-3.7A4.22,4.22,0,0,1,427,137Z" transform="translate(-0.28 0.07)" fill="#fff"/>
  <path d="M431.93,132.54c.09.4-.18.52-.49.59-.21-.45-1-.68-.43-1.43a5.84,5.84,0,0,1,2.89-2.17C433.61,131,432.27,131.44,431.93,132.54Z" transform="translate(-0.28 0.07)" fill="#fff"/>
  <path d="M439.48,77.46c.9-1.21,2.21-.53,3.59-1A6.69,6.69,0,0,1,439.48,77.46Z" transform="translate(-0.28 0.07)" fill="#fff"/>
  <path d="M430.29,123.13l1.11.05c-.67.78-.51,2-1.73,2.87A5,5,0,0,1,430.29,123.13Z" transform="translate(-0.28 0.07)" fill="#fff"/>
  <path d="M411.75,129.45c1.44.53,2.09,1,2.45,2.19C412.94,131.38,412.51,130.68,411.75,129.45Z" transform="translate(-0.28 0.07)" fill="#fff"/>
  <path d="M410.16,128.41a1,1,0,0,1-1-.8c-.09-.35.2-.51.5-.5a1,1,0,0,1,1,.82C410.77,128.37,410.41,128.34,410.16,128.41Z" transform="translate(-0.28 0.07)" fill="#fff"/>
  <path d="M456.86,117.81a4.11,4.11,0,0,1,1.6,1.63,1.57,1.57,0,0,0-.52-.16C456.27,119.47,456.27,119.48,456.86,117.81Z" transform="translate(-0.28 0.07)" fill="#fff"/>
  <path d="M434.63,78.73a2.05,2.05,0,0,1,1.75-.66C436,78,435.55,79.05,434.63,78.73Z" transform="translate(-0.28 0.07)" fill="#fff"/>
  <path d="M456.75,146.09h-.16a.67.67,0,0,1,.43.86l0,.05c-.11.39-.32.74-.76.6-.13,0-.16-.5-.16-.76a.68.68,0,0,1,.61-.75Z" transform="translate(-0.28 0.07)" fill="#fff"/>
  <path d="M451.46,85.62c.22,0,.38.07.3.26s-.26.21-.41.28-.13-.1-.2-.16Z" transform="translate(-0.28 0.07)" fill="#fff"/>
  <path d="M444.9,90.81a.91.91,0,0,1,1-.86h0a1.56,1.56,0,0,1,0,.53c-.24.36-.48.88-1,.29Z" transform="translate(-0.28 0.07)" fill="#fff"/>
  <path d="M454.41,80.23c-.27-.3-1.07.09-.94-.64.06-.38.31-.92.94-.53h-.06v1.23Z" transform="translate(-0.28 0.07)" fill="#fff"/>
  <path d="M437.89,142c0,.4-.38.78-.11,1.21l.05-.05c-1.06-.34-1.37-.82-.29-1.56Z" transform="translate(-0.28 0.07)" fill="#fff"/>
  <path d="M419.08,106.9c-.36.65-.63,1-1.17.88-.24,0-.28-.21-.17-.39.22-.41.47-.78,1-.66C419,106.81,419,107,419.08,106.9Z" transform="translate(-0.28 0.07)" fill="#fff"/>
  <path d="M444.82,90.75c.5.25.3.56,0,.82a.54.54,0,0,1-.43,0,.58.58,0,0,1,.31-.76l.15,0Z" transform="translate(-0.28 0.07)" fill="#fff"/>
  <path d="M454.41,79.06l-.05-.49.37.08-.38.37Z" transform="translate(-0.28 0.07)" fill="#fff"/>
  <path d="M441.75,138.81l.21.8-.29.52-.39-.53A.9.9,0,0,1,441.75,138.81Z" transform="translate(-0.28 0.07)" fill="#fff"/>
  <path d="M441.67,140.08l-.57.49c-.12-.12-.24-.25-.35-.38a.65.65,0,0,1,.53-.64Z" transform="translate(-0.28 0.07)" fill="#fff"/>
  <path d="M439,71c2-.39,4.08,0,6.13-.1a2.76,2.76,0,0,1,2.7,1.68,48.77,48.77,0,0,1-8.71-.43Z" transform="translate(-0.28 0.07)" fill="#fff"/>
  <path d="M439,71l.12,1.15a2.14,2.14,0,0,1-2.94.45l-.07-1.12C437,71.26,438,70.74,439,71Z" transform="translate(-0.28 0.07)" fill="#fff"/>
  <path d="M436.08,71.44l.07,1.12a9.37,9.37,0,0,0-1,.38c-.65.34-1.19.18-1.35-.48s.45-.77.91-.88A9.62,9.62,0,0,1,436.08,71.44Z" transform="translate(-0.28 0.07)" fill="#fff"/>
  <path d="M432.19,73.71c-.39-.09-.8-.29-.76-.7s.56-.68,1.05-.67c.3,0,.56.12.57.47C433.07,73.39,432.68,73.61,432.19,73.71Z" transform="translate(-0.28 0.07)" fill="#fff"/>
  <path d="M466.68,79.63h-1.21c-.17-.63-.68-.59-1.17-.6v-.61h.95C466.1,78.4,466.82,78.52,466.68,79.63Z" transform="translate(-0.28 0.07)" fill="#fff"/>
  <path d="M473.33,83.59c-.62.09-1.11,0-1.28-.73A1.24,1.24,0,0,1,473.33,83.59Z" transform="translate(-0.28 0.07)" fill="#fff"/>
  <path d="M472.08,83.12l-.69-.91C471.75,82.41,472.24,82.52,472.08,83.12Z" transform="translate(-0.28 0.07)" fill="#fff"/>
  <path d="M465.27,78.39h-.95a1.65,1.65,0,0,1-.18-.41l.15-.21A.9.9,0,0,1,465.27,78.39Z" transform="translate(-0.28 0.07)" fill="#fff"/>
  <path d="M491.49,172.68c.39-.05.49-.32.5-.66.88.81.71,1.27-.65,1.77Z" transform="translate(-0.28 0.07)" fill="#fff"/>
  <path d="M480.17,185c-.05-.48-.15-1,.65-.64C480.86,184.81,481,185.34,480.17,185Z" transform="translate(-0.28 0.07)" fill="#fff"/>
  <path d="M490.75,174.38c.09-.36.26-.63.66-.66Q491.61,174.58,490.75,174.38Z" transform="translate(-0.28 0.07)" fill="#fff"/>
  <path d="M575.35,115.3c-1.53.56-2.82,1-2.81,3.07-1.47-1.66-1.09-3.05-1-4.36.06-.84.75-1,1.5-1.07a2.26,2.26,0,0,1,2.1.76c1.64-1.44,3.57-.27,5.26-.63.94-.2,1.16,1.89,2.09.36.76-1.24,1.59.52,2.54,0a8,8,0,0,1,2.83-.52,2.34,2.34,0,0,1,1.89.31,1,1,0,0,1-.92,1c-.24,0-.65-.08-.6.38,0,.06.3.12.47.15.46.08,1.08,0,.87.78-.14.46-.61.41-1,.37s-.5.15-.57.46c.31.82,1.51.24,1.84,1-.43,1.16-3.07.43-3.36-.8-.13-.54.16-1.19-.46-1.6-.63.33-.47,1-.55,1.49-.21,1.47-.74,1.78-1.74.52-.24-.3-.42-.55-.9-.29-1.39.78-1.4.76-2-.63a4.1,4.1,0,0,0-.49-.53c-.54,1.29-1,2.76-2.73,2.52C576.17,117.9,575.41,117,575.35,115.3Zm1.29-.1c.13.81.41,1.61,1.36,1.58.67,0,.88-.74.81-1.36s-.34-1.39-1.19-1.44S576.74,114.59,576.64,115.2Zm-3.07-.77c-.15-.05-.33-.18-.46-.14s-.18.24-.26.37a1.78,1.78,0,0,0,.5.14C573.59,114.81,573.67,114.66,573.57,114.43Z" transform="translate(-0.28 0.07)" fill="#fff"/>
  <path d="M559,116.23c1.22.73,1.56,0,1.82-.93a11.24,11.24,0,0,1,.55-1.35c.2-.47.49-.91,1-.91a1.34,1.34,0,0,1,1.27,1c.2.54.35,1.1.59,1.62s.94,1.24.45,1.85c-.68.85-1.1-.33-1.69-.43a2.78,2.78,0,0,0-1.89.35,6.59,6.59,0,0,1-3.64.48,2,2,0,0,1-1.8-1.66,2.53,2.53,0,0,1,.59-2.71,2.41,2.41,0,0,1,2.74-.31.83.83,0,0,1,.53.93c-.06.35-.36.42-.66.39-.76-.09-1.88-.82-1.77.8C557.19,116.63,557.88,117.1,559,116.23Z" transform="translate(-0.28 0.07)" fill="#fff"/>
  <path d="M539,117.21a2.15,2.15,0,0,1-2.47,1.09,9.38,9.38,0,0,0-3.3-.07c-2,.27-2.5-.43-2.46-2.53,0-.8-.42-2.2.52-2.27,1.3-.09.74,1.31.72,2.06,0,2.17,1.85,1.17,2.68,1.91a4.23,4.23,0,0,0,.27-2.11c.1-2.56.45-2.75,3.27-1.78a1,1,0,0,1-.77.79c-.2.07-.68.28-.41.39,3.23,1.3-.52,1.18-.35,1.88a5.44,5.44,0,0,0,2.36.7Z" transform="translate(-0.28 0.07)" fill="#fff"/>
  <path d="M539,117.27v-1.43c0-2.45.89-3.24,3.22-2.68a3.52,3.52,0,0,0,2.29-.07c1.28-.47,2.66,0,4,.23l-.06,1.06c-1.21-.57-2-.35-2.21,1.11-.09.75.18,1.55-.35,2.25-1.36-.39-.9-1.52-1-2.41-.06-.62-.39-1.52-.78-1.27a4.86,4.86,0,0,1-3.22.45c-.31,0-.57.5-.51.92.09.6.33,1.17,1,1.23.35,0,.71-.26,1.09-.32a.51.51,0,0,1,.62.35s0,0,0,.07a1.07,1.07,0,0,1-.23.77,1.92,1.92,0,0,1-2.12.51c-.61-.24-1.2-.55-1.79-.83Z" transform="translate(-0.28 0.07)" fill="#fff"/>
  <path d="M591.32,117.49c-.73-.65-.41-1.58-.45-2.4-.12-2,.11-2.32,1.56-2.33,1.88,0,2.36.43,2.44,2.24,0,.58.1,1.15.09,1.73,0,.36,0,.8-.42,1-.68.29-.74-.26-.94-.69-.62-1.32-1.17-1.09-1.61.12A.46.46,0,0,1,591.32,117.49Z" transform="translate(-0.28 0.07)" fill="#fff"/>
  <path d="M548.41,114.38l.06-1.06c.69-.55,1.49-.29,2.24-.28,1,0,1.76.39,1.45,1.59-.28,1,.63,2.06,0,3.07-.21,0-.49.08-.56,0-1.39-1.7-1.39-1.71-2.9.13A7.89,7.89,0,0,1,548.41,114.38Zm2.38,0c-.13-.23-.25-.48-.6-.42a.54.54,0,0,0-.54.54.52.52,0,0,0,0,.21c0,.15.48.24.72.22a.39.39,0,0,0,.43-.34.37.37,0,0,0,0-.18Z" transform="translate(-0.28 0.07)" fill="#fff"/>
  <path d="M529.35,113.27c-.09.76-.55.84-1,1-.78.25-.62.52,0,.78.4.17,1,.32.4.9a3,3,0,0,1-1,.42c.2,1.08,1.53.33,1.77,1.32-1,.92-2.12.62-3.17,0-.32-.19-.56-4-.22-4.22A3.33,3.33,0,0,1,529.35,113.27Z" transform="translate(-0.28 0.07)" fill="#fff"/>
  <path d="M569.56,117.5c-1.56.52-2.93,1-3.61-.18a4.88,4.88,0,0,1-.11-3.91c.14-.41.7-.38,1-.07a2.07,2.07,0,0,1,.3,1.08C567.18,115.88,566.56,117.75,569.56,117.5Z" transform="translate(-0.28 0.07)" fill="#fff"/>
  <path d="M554,118c-.67-1.48-.5-2.76-.72-4a.72.72,0,0,1,.53-.88h0c.63-.11.88.34.88.84C554.73,115.23,555.15,116.52,554,118Z" transform="translate(-0.28 0.07)" fill="#fff"/>
  <g>
    <path d="M.28.09a1.7,1.7,0,0,1,1.46,0C2,.17,2,.34,1.63.35S.65.52.28.09Z" transform="translate(-0.28 0.07)" fill="none"/>
    <path d="M694.59.09a1.7,1.7,0,0,1,1.46,0c.27.08.22.25-.11.26S695,.52,694.59.09Z" transform="translate(-0.28 0.07)" fill="none"/>
    <path d="M694.59,567.91a1.7,1.7,0,0,1,1.46,0c.27.08.22.25-.11.26S695,568.34,694.59,567.91Z" transform="translate(-0.28 0.07)" fill="none"/>
  </g>
</svg>
