<svg id="b9f21c09-c278-4369-8dde-0423363951d1" data-name="Слой 1" xmlns="http://www.w3.org/2000/svg" xmlns:xlink="http://www.w3.org/1999/xlink" viewBox="0 0 465.29 238.85"><defs><linearGradient id="bff9fab0-6937-4f33-8e1c-1240cf0ac436" x1="164.2" y1="279.05" x2="629.49" y2="279.05" gradientUnits="userSpaceOnUse"><stop offset="0" stop-color="#01c6fd"/><stop offset="1" stop-color="#00d4bd"/></linearGradient><linearGradient id="a2edd799-03e2-480a-82b0-e2842c065fa8" x1="228.12" y1="412.03" x2="539.48" y2="412.03" gradientUnits="userSpaceOnUse"><stop offset="0" stop-color="#fe996a"/><stop offset="1" stop-color="#934ee9"/></linearGradient></defs><path class="draw" stroke-linejoin="round" stroke-width="10" d="M481.83,345l-.78-.82c-33.46-35.12-70.86-59-111.15-70.92-32.22-9.55-66.37-11.54-101.49-5.92-59.85,9.58-102.29,38.31-102.71,38.59l-1.5-1.84c39.22-37.56,81.64-63.84,126.07-78.12A265.7,265.7,0,0,1,400,214.63c63.42,6.69,106.4,33.88,106.83,34.15l-1.29,2c-.42-.28-43-27.2-105.89-33.8a263.22,263.22,0,0,0-108.71,11.24c-40.87,13.15-80,36.55-116.58,69.63,16.1-9.11,50.4-26,93.68-32.92,35.48-5.68,70-3.66,102.55,6,40.39,12,77.87,35.77,111.43,70.76a223,223,0,0,1,44.43-27.14c25.07-11.57,63.3-23.18,103-12.78l-.6,2.31c-74.79-19.57-145.5,39.54-146.2,40.14Z" transform="translate(-164.2 -213.14)" fill="url(#bff9fab0-6937-4f33-8e1c-1240cf0ac436)"/><path d="M229.63,425.63c39.08-30.34,79.53-48,120.24-52.43,32.92-3.59,66.06,1.38,98.52,14.77,55.2,22.78,91,61.93,91.09,63l-1.25.24-.75.73c-8-10.31-53.19-46.64-90.08-61.84-32.08-13.22-64.82-18.12-97.32-14.56C309.43,380,269,397.81,230,428.41l-1.21.95-.62-1.41" transform="translate(-164.2 -213.14)" fill="url(#a2edd799-03e2-480a-82b0-e2842c065fa8)"/></svg>