<svg id="fea2cc75-7eb4-45d8-a965-09c3c66c451e" data-name="Слой 1" xmlns="http://www.w3.org/2000/svg" viewBox="0 0 96.49 100.37">
  <g>
    <g>
      <path d="M49.4,93.92A3.43,3.43,0,1,1,44.84,99l-15.4-14.8a2.83,2.83,0,0,1,4.22-3.35l0,0Z" transform="translate(0.77 0.12)" fill="none" stroke="#61efff" stroke-linecap="round" stroke-linejoin="round" stroke-width="0.5"/>
      <path d="M33.7,80.85l0,0a2.83,2.83,0,0,0-4.22,3.35l-1.22-1.18L28,82.83a.24.24,0,0,1-.06-.08,2.6,2.6,0,0,1,3.74-3.57Z" transform="translate(0.77 0.12)" fill="none" stroke="#61efff" stroke-linecap="round" stroke-linejoin="round" stroke-width="0.5"/>
      <path d="M31.78,73.77c0,.32,0,.64,0,.94a13.35,13.35,0,0,1-.79,4,2.6,2.6,0,0,0-3,4l-.24.1,0,0-4,2.32a8.15,8.15,0,0,0,3.42-4.93,15.23,15.23,0,0,0,.51-4.06c0-9-6.29-19.85-14-24.34-3.8-2.19-7.25-2.44-9.78-1.06L7.8,48.46c2.54-1.47,6.05-1.26,9.93,1a24.15,24.15,0,0,1,5.51,4.47,33.64,33.64,0,0,1,6.15,9.44A26.53,26.53,0,0,1,31.78,73.77Z" transform="translate(0.77 0.12)" fill="none" stroke="#61efff" stroke-linecap="round" stroke-linejoin="round" stroke-width="0.5"/>
      <path d="M27.58,76.2a15.23,15.23,0,0,1-.51,4.06,8.15,8.15,0,0,1-3.42,4.93l-.19.1c-2.54,1.47-6.05,1.26-9.93-1C7.19,80.65,1.83,72.7.08,65A23,23,0,0,1-.52,60c0-4.49,1.57-7.63,4.12-9.1l.09-.05.06,0c2.53-1.38,6-1.13,9.78,1.06C21.29,56.35,27.58,67.24,27.58,76.2ZM23.18,80a9.54,9.54,0,0,0,1.44-5.47c0-7.07-5-15.67-11.09-19.2A9.52,9.52,0,0,0,8.07,53.8c-3.36.26-5.62,3.11-5.62,7.89,0,7.07,5,15.67,11.08,19.2C17.67,83.28,21.28,82.74,23.18,80Z" transform="translate(0.77 0.12)" fill="none" stroke="#61efff" stroke-linecap="round" stroke-linejoin="round" stroke-width="0.5"/>
      <path d="M24.62,74.49A9.54,9.54,0,0,1,23.18,80c-1.9,2.78-5.51,3.32-9.65.93C7.41,77.36,2.45,68.76,2.45,61.69c0-4.78,2.26-7.63,5.62-7.89a9.52,9.52,0,0,1,5.46,1.49C19.65,58.82,24.62,67.42,24.62,74.49Z" transform="translate(0.77 0.12)" fill="none" stroke="#61efff" stroke-linecap="round" stroke-linejoin="round" stroke-width="0.5"/>
    </g>
    <g>
      <path d="M23.46,85.29c-2.54,1.47-6.05,1.26-9.93-1C7.19,80.65,1.83,72.7.08,65A23,23,0,0,1-.52,60c0-4.49,1.57-7.63,4.12-9.1" transform="translate(0.77 0.12)" fill="none" stroke="#61efff" stroke-linecap="round" stroke-linejoin="round" stroke-width="0.5"/>
      <path d="M3.75,50.8c2.53-1.38,6-1.13,9.78,1.06,7.76,4.49,14.05,15.38,14.05,24.34a15.23,15.23,0,0,1-.51,4.06,8.15,8.15,0,0,1-3.42,4.93" transform="translate(0.77 0.12)" fill="none" stroke="#61efff" stroke-linecap="round" stroke-linejoin="round" stroke-width="0.5"/>
      <path d="M8.07,53.8a9.52,9.52,0,0,1,5.46,1.49c6.12,3.53,11.09,12.13,11.09,19.2A9.54,9.54,0,0,1,23.18,80c-1.9,2.78-5.51,3.32-9.65.93C7.41,77.36,2.45,68.76,2.45,61.69,2.45,56.91,4.71,54.06,8.07,53.8Z" transform="translate(0.77 0.12)" fill="none" stroke="#61efff" stroke-linecap="round" stroke-linejoin="round" stroke-width="0.5"/>
      <path d="M3.6,50.88l4.2-2.42c2.54-1.47,6.05-1.26,9.93,1a24.15,24.15,0,0,1,5.51,4.47,33.64,33.64,0,0,1,6.15,9.44,26.53,26.53,0,0,1,2.39,10.42c0,.32,0,.64,0,.94a13.35,13.35,0,0,1-.79,4" transform="translate(0.77 0.12)" fill="none" stroke="#61efff" stroke-linecap="round" stroke-linejoin="round" stroke-width="0.5"/>
      <path d="M27.71,82.85l0,0-4.21,2.42" transform="translate(0.77 0.12)" fill="none" stroke="#61efff" stroke-linecap="round" stroke-linejoin="round" stroke-width="0.5"/>
      <path d="M29.44,84.24,44.84,99a3.43,3.43,0,1,0,4.56-5.12L31.69,79.18a2.42,2.42,0,0,0-.72-.43,2.6,2.6,0,0,0-3,4,.24.24,0,0,0,.06.08l.21.23Z" transform="translate(0.77 0.12)" fill="none" stroke="#61efff" stroke-linecap="round" stroke-linejoin="round" stroke-width="0.5"/>
      <path d="M33.66,80.89a2.83,2.83,0,0,0-4.22,3.35" transform="translate(0.77 0.12)" fill="none" stroke="#61efff" stroke-linecap="round" stroke-linejoin="round" stroke-width="0.5"/>
    </g>
  </g>
  <g>
    <g>
      <line x1="25.17" y1="48.99" x2="58.24" y2="10.89" fill="none" stroke="#61efff" stroke-linecap="round" stroke-linejoin="round" stroke-width="0.5"/>
      <line x1="43.64" y1="63.77" x2="83.99" y2="51.85" fill="none" stroke="#61efff" stroke-linecap="round" stroke-linejoin="round" stroke-width="0.5"/>
      <g>
        <g>
          <polygon points="88.83 29.83 88.83 38.32 83.99 41.12 88.83 29.83" fill="none" stroke="#61efff" stroke-linecap="round" stroke-linejoin="round" stroke-width="0.5"/>
          <polygon points="88.83 21.08 88.83 29.83 83.99 41.12 79.01 43.99 88.83 21.08" fill="none" stroke="#61efff" stroke-linecap="round" stroke-linejoin="round" stroke-width="0.5"/>
          <polygon points="88.83 20.67 88.83 21.08 79.01 43.99 73.74 47.03 83.79 23.57 88.83 20.67" fill="none" stroke="#61efff" stroke-linecap="round" stroke-linejoin="round" stroke-width="0.5"/>
          <polygon points="88.83 20.67 73.53 29.49 58.24 20.67 73.53 11.84 88.83 20.67" fill="none" stroke="#61efff" stroke-linecap="round" stroke-linejoin="round" stroke-width="0.5"/>
          <polygon points="83.79 23.57 73.74 47.03 73.53 47.15 73.53 38.78 78.81 26.45 83.79 23.57" fill="none" stroke="#61efff" stroke-linecap="round" stroke-linejoin="round" stroke-width="0.5"/>
          <polygon points="78.81 26.45 73.53 38.78 73.53 29.49 78.81 26.45" fill="none" stroke="#61efff" stroke-linecap="round" stroke-linejoin="round" stroke-width="0.5"/>
          <polygon points="73.53 38.78 73.53 47.15 58.24 38.32 58.24 20.67 73.53 29.49 73.53 38.78" fill="none" stroke="#61efff" stroke-linecap="round" stroke-linejoin="round" stroke-width="0.5"/>
        </g>
        <g>
          <polygon points="58.24 20.67 73.53 11.84 88.83 20.67 73.53 29.49 58.24 20.67" fill="none" stroke="#61efff" stroke-linecap="round" stroke-linejoin="round" stroke-width="0.5"/>
          <line x1="73.53" y1="29.49" x2="73.53" y2="47.15" fill="none" stroke="#61efff" stroke-linecap="round" stroke-linejoin="round" stroke-width="0.5"/>
          <polyline points="58.24 20.67 58.24 38.32 73.53 47.15 88.83 38.32 88.83 20.67" fill="none" stroke="#61efff" stroke-linecap="round" stroke-linejoin="round" stroke-width="0.5"/>
          <line x1="73.53" y1="38.78" x2="78.81" y2="26.45" fill="none" stroke="#61efff" stroke-linecap="round" stroke-linejoin="round" stroke-width="0.5"/>
          <line x1="73.74" y1="47.03" x2="83.79" y2="23.57" fill="none" stroke="#61efff" stroke-linecap="round" stroke-linejoin="round" stroke-width="0.5"/>
          <line x1="79.01" y1="43.99" x2="88.83" y2="21.08" fill="none" stroke="#61efff" stroke-linecap="round" stroke-linejoin="round" stroke-width="0.5"/>
          <line x1="83.99" y1="41.11" x2="88.83" y2="29.83" fill="none" stroke="#61efff" stroke-linecap="round" stroke-linejoin="round" stroke-width="0.5"/>
        </g>
      </g>
      <path d="M57.47,30.85a31.86,31.86,0,0,1-2.28-11.27C55.19,8.47,63,4,72.61,9.53a24.28,24.28,0,0,1,2.77,1.85" transform="translate(0.77 0.12)" fill="none" stroke="#61efff" stroke-linecap="round" stroke-linejoin="round" stroke-width="0.5"/>
      <path d="M82.75,19.13C87.16,25.33,90,33,90,39.7c0,11.11-7.8,15.62-17.43,10.06a32.28,32.28,0,0,1-8.89-7.94" transform="translate(0.77 0.12)" fill="none" stroke="#61efff" stroke-linecap="round" stroke-linejoin="round" stroke-width="0.5"/>
      <path d="M52.75,31.23a47.64,47.64,0,0,1-2-6.54" transform="translate(0.77 0.12)" fill="none" stroke="#61efff" stroke-linecap="round" stroke-linejoin="round" stroke-width="0.5"/>
      <path d="M49.77,15.79c.3-14.1,10.41-19.71,22.84-12.54a42.65,42.65,0,0,1,12.09,11" transform="translate(0.77 0.12)" fill="none" stroke="#61efff" stroke-linecap="round" stroke-linejoin="round" stroke-width="0.5"/>
      <path d="M90.16,22.85c3.31,6.5,5.31,13.55,5.31,20,0,9.64-4.48,15.49-11.16,16.23" transform="translate(0.77 0.12)" fill="none" stroke="#61efff" stroke-linecap="round" stroke-linejoin="round" stroke-width="0.5"/>
      <path d="M76.37,57.85A26.83,26.83,0,0,1,72.61,56,42,42,0,0,1,61,45.61" transform="translate(0.77 0.12)" fill="none" stroke="#61efff" stroke-linecap="round" stroke-linejoin="round" stroke-width="0.5"/>
    </g>
    <g>
      <path d="M41.26,47.52a24.94,24.94,0,0,1-2-5.59" transform="translate(0.77 0.12)" fill="none" stroke="#61efff" stroke-linecap="round" stroke-linejoin="round" stroke-width="0.5"/>
      <path d="M38.74,37.57a9.79,9.79,0,0,1,1.32-5" transform="translate(0.77 0.12)" fill="none" stroke="#61efff" stroke-linecap="round" stroke-linejoin="round" stroke-width="0.5"/>
      <path d="M45.59,29.94a10.88,10.88,0,0,1,4.34,1.5,20.71,20.71,0,0,1,5.4,4.72" transform="translate(0.77 0.12)" fill="none" stroke="#61efff" stroke-linecap="round" stroke-linejoin="round" stroke-width="0.5"/>
      <path d="M58.05,40.17a27.63,27.63,0,0,1,1.7,3.67" transform="translate(0.77 0.12)" fill="none" stroke="#61efff" stroke-linecap="round" stroke-linejoin="round" stroke-width="0.5"/>
      <path d="M61,48.6a16.75,16.75,0,0,1,.15,2.21c0,4.88-2.34,7.77-5.79,8" transform="translate(0.77 0.12)" fill="none" stroke="#61efff" stroke-linecap="round" stroke-linejoin="round" stroke-width="0.5"/>
      <path d="M50.08,57.36l-.15-.09a20.55,20.55,0,0,1-5.71-5.1" transform="translate(0.77 0.12)" fill="none" stroke="#61efff" stroke-linecap="round" stroke-linejoin="round" stroke-width="0.5"/>
    </g>
  </g>
</svg>
