<?xml version="1.0" encoding="utf-8"?>
<!-- Generator: Adobe Illustrator 24.1.0, SVG Export Plug-In . SVG Version: 6.00 Build 0)  -->
<svg version="1.1" id="Слой_1" xmlns="http://www.w3.org/2000/svg" xmlns:xlink="http://www.w3.org/1999/xlink" x="0px" y="0px"
	 viewBox="0 0 28 32" style="enable-background:new 0 0 28 32;" xml:space="preserve">
<style type="text/css">
	.st0{fill:#61EFFF;}
</style>
<g>
	<path class="st0" d="M13.9,2c0.1,0,0.2,0,0.3,0.1l10.6,3.6c0.4,0.1,0.6,0.5,0.6,0.8l0.1,10.6c0,2.7-1,5.4-2.8,7.5
		c-0.8,0.9-1.9,1.8-3.3,2.5l-5.4,2.9l-5.4-2.8c-1.4-0.7-2.5-1.5-3.4-2.5c-1.9-2.1-2.9-4.7-2.9-7.4L2.4,6.6c0-0.4,0.2-0.7,0.6-0.8
		l10.6-3.7C13.7,2,13.8,2,13.9,2 M12.9,14.1l-0.8-0.8c-0.6-0.6-1.4-0.9-2.2-0.9c-0.9,0-1.7,0.3-2.3,0.9c-0.6,0.6-0.9,1.4-0.9,2.3
		c0,0.9,0.4,1.7,1,2.3l3.1,3c0.6,0.6,1.4,0.9,2.3,0.9c0,0,0,0,0,0c0.8,0,1.6-0.3,2.2-0.9l6.2-6.2c0.6-0.6,0.9-1.4,0.9-2.3
		c0-0.9-0.3-1.7-1-2.3c-0.6-0.6-1.4-0.9-2.2-0.9c-0.9,0-1.7,0.3-2.3,0.9L12.9,14.1 M13.9,0c-0.3,0-0.7,0.1-1,0.2L2.4,3.9
		c-1.2,0.4-2,1.5-2,2.7l0.1,10.6c0,3.2,1.2,6.3,3.4,8.8c1,1.1,2.3,2.1,3.9,2.9l5.8,3c0.2,0.1,0.4,0.1,0.6,0.1c0,0,0,0,0,0
		c0.2,0,0.4-0.1,0.6-0.1l5.7-3.1c1.6-0.9,2.9-1.8,3.9-3c2.2-2.4,3.3-5.6,3.3-8.8L27.5,6.4c0-1.2-0.8-2.3-2-2.7L14.9,0.2
		C14.6,0.1,14.3,0,13.9,0L13.9,0z M12.9,16.9l5.4-5.3c0.2-0.2,0.5-0.3,0.9-0.3c0.3,0,0.6,0.1,0.9,0.3c0.5,0.5,0.5,1.2,0,1.7
		l-6.2,6.2c-0.2,0.2-0.5,0.3-0.9,0.3c0,0,0,0,0,0c-0.3,0-0.6-0.1-0.8-0.3L9,16.4c-0.5-0.5-0.5-1.2,0-1.7c0.2-0.2,0.5-0.4,0.9-0.4
		c0.3,0,0.6,0.1,0.8,0.3L12.9,16.9L12.9,16.9z"/>
</g>
</svg>
