<?xml version="1.0" encoding="utf-8"?>
<!-- Generator: Adobe Illustrator 24.1.0, SVG Export Plug-In . SVG Version: 6.00 Build 0)  -->
<svg version="1.1" id="Слой_1" xmlns="http://www.w3.org/2000/svg" xmlns:xlink="http://www.w3.org/1999/xlink" x="0px" y="0px"
	 viewBox="0 0 33 32" style="enable-background:new 0 0 33 32;" xml:space="preserve">
<style type="text/css">
	.st0{fill:#61EFFF;}
</style>
<g>
	<path class="st0" d="M16,3l3.4,6.8c0.5,1.1,1.6,1.9,2.8,2.1l7.5,1.1l-5.6,5.3c-0.9,0.9-1.3,2.1-1.1,3.3l1.3,7.4l-6.7-3.5
		c-0.5-0.3-1.1-0.4-1.7-0.4c0,0,0,0-0.1,0h-0.4c-0.1,0-0.2,0-0.3,0c-0.4,0.1-0.8,0.2-1.1,0.4L7.4,29l1.3-7.4
		c0.2-1.2-0.2-2.5-1.1-3.3L2.3,13l7.5-1.1c1.3-0.1,2.4-0.9,3-2.1L16,3 M16.2,0.8h-0.7l-0.3,0.1L15.1,1C15,1,14.9,1.1,14.8,1.2
		l-0.1,0.1c-0.1,0.1-0.2,0.3-0.3,0.4l-3.5,7.2c-0.3,0.5-0.8,0.9-1.4,1l-8,1.2c-0.7,0.1-1.2,0.6-1.4,1.2C-0.1,12.9,0,13.6,0.5,14
		l5.8,5.6c0.4,0.4,0.6,1,0.5,1.6l-1.4,7.9c-0.2,1,0.5,1.9,1.4,2c0.1,0,0.2,0,0.3,0c0.3,0,0.6-0.1,0.8-0.2l7.1-3.7
		c0.1-0.1,0.3-0.1,0.4-0.1h0.4c0.3,0,0.6,0.1,0.8,0.2l7.1,3.7c0.3,0.1,0.5,0.2,0.8,0.2c0.4,0,0.7-0.1,1-0.3c0.6-0.4,0.8-1.1,0.7-1.7
		L25,21.3c-0.1-0.6,0.1-1.2,0.5-1.6l6-5.7c0.5-0.5,0.7-1.2,0.5-1.8c-0.2-0.6-0.8-1.1-1.5-1.2l-8-1.2c-0.6-0.1-1.1-0.5-1.3-1
		l-3.6-7.2C17.4,1.2,16.8,0.9,16.2,0.8L16.2,0.8z"/>
</g>
</svg>
