<svg id="b918dd18-4a35-4b5b-bc9c-2b8591ada65d" data-name="Слой 1" xmlns="http://www.w3.org/2000/svg" viewBox="0 0 93.93 90.5">
  <g>
    <g>
      <g>
        <polygon points="44.81 56.81 73.52 40.23 93.68 51.87 64.97 68.45 44.81 56.81" fill="none" stroke="#61efff" stroke-linecap="round" stroke-linejoin="round" stroke-width="0.5"/>
        <polygon points="92.43 74.4 92.43 54.04 74.8 64.22 74.79 64.22 66.22 69.17 66.22 89.53 64.97 90.25 64.97 68.45 93.68 51.87 93.68 73.68 92.43 74.4" fill="none" stroke="#61efff" stroke-linecap="round" stroke-linejoin="round" stroke-width="0.5"/>
        <polygon points="44.81 78.62 44.81 56.81 64.97 68.45 64.97 90.25 44.81 78.62" fill="none" stroke="#61efff" stroke-linecap="round" stroke-linejoin="round" stroke-width="0.5"/>
        <polygon points="74.8 64.22 92.43 54.04 92.43 74.4 74.8 64.22" fill="none" stroke="#61efff" stroke-linecap="round" stroke-linejoin="round" stroke-width="0.5"/>
      </g>
      <g>
        <polygon points="74.79 64.22 66.22 69.17 66.22 89.53 64.97 90.25 64.97 68.45 93.68 51.87 93.68 73.68 92.43 74.4 92.43 54.04 74.8 64.22 74.79 64.22" fill="none" stroke="#61efff" stroke-linecap="round" stroke-linejoin="round" stroke-width="0.5"/>
        <polyline points="93.68 51.87 73.52 40.23 44.81 56.81 44.81 78.62 64.97 90.25" fill="none" stroke="#61efff" stroke-linecap="round" stroke-linejoin="round" stroke-width="0.5"/>
        <line x1="64.97" y1="68.45" x2="44.81" y2="56.81" fill="none" stroke="#61efff" stroke-linecap="round" stroke-linejoin="round" stroke-width="0.5"/>
        <polyline points="92.43 74.4 74.8 64.22 74.79 64.22" fill="none" stroke="#61efff" stroke-linecap="round" stroke-linejoin="round" stroke-width="0.5"/>
      </g>
    </g>
    <g>
      <g>
        <path d="M80.4,58l1,.57-1.05.56a20.81,20.81,0,0,0-5.44,4.34l-8.48-4.9A22.53,22.53,0,0,1,73,53.64Z" transform="translate(-0.81 -7.66)" fill="none" stroke="#61efff" stroke-linecap="round" stroke-linejoin="round" stroke-width="0.5"/>
        <path d="M74.88,63.45l0,0,0,1.55L71.62,67l-1.31.78L67.8,69.22V67.54A20.15,20.15,0,0,1,74.88,63.45Z" transform="translate(-0.81 -7.66)" fill="none" stroke="#61efff" stroke-linecap="round" stroke-linejoin="round" stroke-width="0.5"/>
        <path d="M66.4,58.55l8.48,4.9a20.15,20.15,0,0,0-7.07,4.09l-8.49-4.91A20.88,20.88,0,0,1,66.4,58.55Z" transform="translate(-0.81 -7.66)" fill="none" stroke="#61efff" stroke-linecap="round" stroke-linejoin="round" stroke-width="0.5"/>
        <polygon points="67 59.88 66.98 61.56 58.51 56.61 58.51 54.98 67 59.88" fill="none" stroke="#61efff" stroke-linecap="round" stroke-linejoin="round" stroke-width="0.5"/>
      </g>
      <g>
        <path d="M59.32,62.63a20.88,20.88,0,0,1,7.08-4.08A22.53,22.53,0,0,1,73,53.64l8.4,4.91-1.05.56a20.81,20.81,0,0,0-5.44,4.34,20.15,20.15,0,0,0-7.07,4.09Z" transform="translate(-0.81 -7.66)" fill="none" stroke="#61efff" stroke-linecap="round" stroke-linejoin="round" stroke-width="0.5"/>
        <path d="M62.35,62.45a19.57,19.57,0,0,1,4-2.31" transform="translate(-0.81 -7.66)" fill="none" stroke="#61efff" stroke-linecap="round" stroke-linejoin="round" stroke-width="0.5"/>
        <path d="M63.44,63.11a18.68,18.68,0,0,1,3.91-2.25" transform="translate(-0.81 -7.66)" fill="none" stroke="#61efff" stroke-linecap="round" stroke-linejoin="round" stroke-width="0.5"/>
        <path d="M64.65,63.68a19.63,19.63,0,0,1,3.93-2.19" transform="translate(-0.81 -7.66)" fill="none" stroke="#61efff" stroke-linecap="round" stroke-linejoin="round" stroke-width="0.5"/>
        <path d="M65.58,64.46a19.69,19.69,0,0,1,4-2.23" transform="translate(-0.81 -7.66)" fill="none" stroke="#61efff" stroke-linecap="round" stroke-linejoin="round" stroke-width="0.5"/>
        <path d="M66.64,65.14a19.62,19.62,0,0,1,4.15-2.27" transform="translate(-0.81 -7.66)" fill="none" stroke="#61efff" stroke-linecap="round" stroke-linejoin="round" stroke-width="0.5"/>
        <polyline points="74.08 55.82 74.05 57.37 70.81 59.29" fill="none" stroke="#61efff" stroke-linecap="round" stroke-linejoin="round" stroke-width="0.5"/>
        <polyline points="69.49 60.07 66.98 61.56 67 59.88" fill="none" stroke="#61efff" stroke-linecap="round" stroke-linejoin="round" stroke-width="0.5"/>
        <polyline points="58.51 54.98 58.51 56.61 66.98 61.56" fill="none" stroke="#61efff" stroke-linecap="round" stroke-linejoin="round" stroke-width="0.5"/>
        <line x1="74.07" y1="55.8" x2="65.58" y2="50.9" fill="none" stroke="#61efff" stroke-linecap="round" stroke-linejoin="round" stroke-width="0.5"/>
      </g>
    </g>
  </g>
  <g id="a736ea59-64e1-4d6f-8884-3369da34d5ba" data-name="AI">
    <g>
      <path d="M59.65,17.21V52.58L17.17,77.1V41.73ZM57.56,51.38V20.81L19.26,42.93V73.49Z" transform="translate(-0.81 -7.66)" fill="none" stroke="#61efff" stroke-linecap="round" stroke-linejoin="round" stroke-width="0.5"/>
      <polygon points="58.83 9.55 16.36 34.07 0.25 24.77 42.72 0.25 58.83 9.55" fill="none" stroke="#61efff" stroke-linecap="round" stroke-linejoin="round" stroke-width="0.5"/>
      <polygon points="56.75 13.16 56.75 43.73 18.44 65.84 18.44 59.39 21.05 60.9 27.09 57.41 28.73 51.77 37.59 46.66 39.23 50.4 45.39 46.84 43.62 43.26 47.61 45.56 53.53 42.15 53.53 17.98 50.97 16.5 56.75 13.16" fill="none" stroke="#61efff" stroke-linecap="round" stroke-linejoin="round" stroke-width="0.5"/>
      <polygon points="53.53 17.98 53.53 42.15 47.61 45.56 47.61 21.39 53.53 17.98" fill="none" stroke="#61efff" stroke-linecap="round" stroke-linejoin="round" stroke-width="0.5"/>
      <polygon points="53.53 17.98 47.61 21.39 45.05 19.91 50.97 16.5 53.53 17.98" fill="none" stroke="#61efff" stroke-linecap="round" stroke-linejoin="round" stroke-width="0.5"/>
      <polygon points="47.61 21.39 47.61 45.56 43.62 43.26 36.12 28.03 33.56 26.55 45.05 19.91 47.61 21.39" fill="none" stroke="#61efff" stroke-linecap="round" stroke-linejoin="round" stroke-width="0.5"/>
      <path d="M44.44,50.92,46.2,54.5,40,58.06,38.4,54.31l-8.85,5.11-1.64,5.65-6.05,3.48,9.24-29.5,5.83-3.37Zm-7.77-.65L34,44.09l-2.69,9.29Z" transform="translate(-0.81 -7.66)" fill="none" stroke="#61efff" stroke-linecap="round" stroke-linejoin="round" stroke-width="0.5"/>
      <polygon points="36.12 28.03 30.29 31.39 27.73 29.91 33.56 26.55 36.12 28.03" fill="none" stroke="#61efff" stroke-linecap="round" stroke-linejoin="round" stroke-width="0.5"/>
      <polygon points="33.16 36.44 35.85 42.62 32.01 40.4 33.16 36.44" fill="none" stroke="#61efff" stroke-linecap="round" stroke-linejoin="round" stroke-width="0.5"/>
      <polygon points="35.85 42.62 30.47 45.72 32.01 40.4 35.85 42.62" fill="none" stroke="#61efff" stroke-linecap="round" stroke-linejoin="round" stroke-width="0.5"/>
      <polygon points="30.29 31.39 21.05 60.9 18.44 59.39 18.44 35.27 27.73 29.91 30.29 31.39" fill="none" stroke="#61efff" stroke-linecap="round" stroke-linejoin="round" stroke-width="0.5"/>
      <path d="M17.17,41.73V77.1L1.06,67.8V32.43ZM13.75,49a1.6,1.6,0,0,0-.35-1.71c-.45-.57-1-.73-1.31-.35a1.63,1.63,0,0,0,.36,1.71C12.9,49.25,13.49,49.41,13.75,49Zm.13,5.25a2.36,2.36,0,0,0-1-1.88L5.19,48a.79.79,0,0,0-.39-.12c-.35,0-.6.32-.6.86a2.33,2.33,0,0,0,1,1.88L12.9,55a.79.79,0,0,0,.39.12C13.64,55.14,13.88,54.82,13.88,54.28Zm-4-7.49a1.6,1.6,0,0,0-.35-1.71c-.46-.57-1-.73-1.31-.35a1.64,1.64,0,0,0,.35,1.71C9,47,9.61,47.17,9.87,46.79ZM6,44.55a1.6,1.6,0,0,0-.35-1.71c-.46-.57-1-.73-1.31-.36a1.64,1.64,0,0,0,.35,1.72C5.14,44.77,5.73,44.93,6,44.55Z" transform="translate(-0.81 -7.66)" fill="none" stroke="#61efff" stroke-linecap="round" stroke-linejoin="round" stroke-width="0.5"/>
      <path d="M13.4,47.32A1.6,1.6,0,0,1,13.75,49c-.26.38-.85.22-1.3-.35A1.63,1.63,0,0,1,12.09,47C12.36,46.59,13,46.75,13.4,47.32Z" transform="translate(-0.81 -7.66)" fill="none" stroke="#61efff" stroke-linecap="round" stroke-linejoin="round" stroke-width="0.5"/>
      <path d="M12.9,52.4a2.36,2.36,0,0,1,1,1.88c0,.54-.24.86-.59.86A.79.79,0,0,1,12.9,55L5.19,50.57a2.33,2.33,0,0,1-1-1.88c0-.54.25-.86.6-.86a.79.79,0,0,1,.39.12Z" transform="translate(-0.81 -7.66)" fill="none" stroke="#61efff" stroke-linecap="round" stroke-linejoin="round" stroke-width="0.5"/>
      <path d="M9.52,45.08a1.6,1.6,0,0,1,.35,1.71c-.26.38-.85.22-1.31-.35a1.64,1.64,0,0,1-.35-1.71C8.48,44.35,9.06,44.51,9.52,45.08Z" transform="translate(-0.81 -7.66)" fill="none" stroke="#61efff" stroke-linecap="round" stroke-linejoin="round" stroke-width="0.5"/>
      <path d="M5.64,42.84A1.6,1.6,0,0,1,6,44.55c-.26.38-.85.22-1.31-.35a1.64,1.64,0,0,1-.35-1.72C4.6,42.11,5.18,42.27,5.64,42.84Z" transform="translate(-0.81 -7.66)" fill="none" stroke="#61efff" stroke-linecap="round" stroke-linejoin="round" stroke-width="0.5"/>
    </g>
    <g>
      <polygon points="36.12 28.03 45.39 46.84 39.23 50.4 37.59 46.66 28.73 51.77 27.09 57.41 21.05 60.9 30.29 31.39 36.12 28.03" fill="none" stroke="#61efff" stroke-linecap="round" stroke-linejoin="round" stroke-width="0.5"/>
      <polygon points="35.85 42.62 33.16 36.44 30.47 45.72 35.85 42.62" fill="none" stroke="#61efff" stroke-linecap="round" stroke-linejoin="round" stroke-width="0.5"/>
      <line x1="30.29" y1="31.39" x2="27.73" y2="29.91" fill="none" stroke="#61efff" stroke-linecap="round" stroke-linejoin="round" stroke-width="0.5"/>
      <line x1="36.12" y1="28.03" x2="33.56" y2="26.55" fill="none" stroke="#61efff" stroke-linecap="round" stroke-linejoin="round" stroke-width="0.5"/>
      <line x1="18.44" y1="59.39" x2="21.05" y2="60.9" fill="none" stroke="#61efff" stroke-linecap="round" stroke-linejoin="round" stroke-width="0.5"/>
      <line x1="32.01" y1="40.4" x2="35.85" y2="42.62" fill="none" stroke="#61efff" stroke-linecap="round" stroke-linejoin="round" stroke-width="0.5"/>
      <polygon points="47.61 21.39 53.53 17.98 53.53 42.15 47.61 45.56 47.61 21.39" fill="none" stroke="#61efff" stroke-linecap="round" stroke-linejoin="round" stroke-width="0.5"/>
      <line x1="45.05" y1="19.91" x2="47.61" y2="21.39" fill="none" stroke="#61efff" stroke-linecap="round" stroke-linejoin="round" stroke-width="0.5"/>
      <line x1="53.53" y1="17.98" x2="50.97" y2="16.5" fill="none" stroke="#61efff" stroke-linecap="round" stroke-linejoin="round" stroke-width="0.5"/>
      <line x1="43.62" y1="43.26" x2="47.61" y2="45.56" fill="none" stroke="#61efff" stroke-linecap="round" stroke-linejoin="round" stroke-width="0.5"/>
      <polygon points="50.97 16.5 56.75 13.16 56.75 43.73 18.44 65.84 18.44 35.27 50.97 16.5" fill="none" stroke="#61efff" stroke-linecap="round" stroke-linejoin="round" stroke-width="0.5"/>
      <polygon points="16.36 69.45 16.36 34.07 58.83 9.55 58.83 44.93 16.36 69.45" fill="none" stroke="#61efff" stroke-linecap="round" stroke-linejoin="round" stroke-width="0.5"/>
      <polyline points="16.36 69.45 0.25 60.15 0.25 24.77 42.72 0.25 58.83 9.55" fill="none" stroke="#61efff" stroke-linecap="round" stroke-linejoin="round" stroke-width="0.5"/>
      <line x1="16.36" y1="34.07" x2="0.25" y2="24.77" fill="none" stroke="#61efff" stroke-linecap="round" stroke-linejoin="round" stroke-width="0.5"/>
      <path d="M6,44.55c-.26.38-.85.22-1.31-.35a1.64,1.64,0,0,1-.35-1.72c.27-.37.85-.21,1.31.36A1.6,1.6,0,0,1,6,44.55Z" transform="translate(-0.81 -7.66)" fill="none" stroke="#61efff" stroke-linecap="round" stroke-linejoin="round" stroke-width="0.5"/>
      <path d="M9.87,46.79c-.26.38-.85.22-1.31-.35a1.64,1.64,0,0,1-.35-1.71c.27-.38.85-.22,1.31.35A1.6,1.6,0,0,1,9.87,46.79Z" transform="translate(-0.81 -7.66)" fill="none" stroke="#61efff" stroke-linecap="round" stroke-linejoin="round" stroke-width="0.5"/>
      <path d="M13.75,49c-.26.38-.85.22-1.3-.35A1.63,1.63,0,0,1,12.09,47c.27-.38.86-.22,1.31.35A1.6,1.6,0,0,1,13.75,49Z" transform="translate(-0.81 -7.66)" fill="none" stroke="#61efff" stroke-linecap="round" stroke-linejoin="round" stroke-width="0.5"/>
      <path d="M12.9,55,5.19,50.57a2.33,2.33,0,0,1-1-1.88c0-.54.25-.86.6-.86a.79.79,0,0,1,.39.12L12.9,52.4a2.36,2.36,0,0,1,1,1.88c0,.54-.24.86-.59.86A.79.79,0,0,1,12.9,55Z" transform="translate(-0.81 -7.66)" fill="none" stroke="#61efff" stroke-linecap="round" stroke-linejoin="round" stroke-width="0.5"/>
    </g>
  </g>
</svg>
